SplineFontDB: 3.0
FontName: ModernAntiqua-BookOblique
FullName: Modern Antiqua Book Oblique
FamilyName: Modern Antiqua
Weight: Book
Copyright: Copyright (c) 2020-2024 by Wojciech Kalinowski "wmk69" with Reserved Font Name "ModernAntiqua-BookOblique".\nThis Font Software is licensed under the SIL Open Font License, Version 1.1.
Version: 3.1.0; 2021-05-28
ItalicAngle: -12
UnderlinePosition: -80
UnderlineWidth: 200
Ascent: 1638
Descent: 410
InvalidEm: 0
LayerCount: 2
Layer: 0 1 "Warstwa t+AUIA-a" 1
Layer: 1 1 "Plan pierwszy" 0
XUID: [1021 783 23647091 7762759]
StyleMap: 0x0001
FSType: 0
OS2Version: 3
OS2_WeightWidthSlopeOnly: 0
OS2_UseTypoMetrics: 1
CreationTime: 1260698820
ModificationTime: 1622217656
PfmFamily: 17
TTFWeight: 400
TTFWidth: 5
LineGap: 300
VLineGap: 0
Panose: 2 5 5 3 6 5 5 13 4 4
OS2TypoAscent: 1950
OS2TypoAOffset: 0
OS2TypoDescent: -537
OS2TypoDOffset: 0
OS2TypoLinegap: 300
OS2WinAscent: 1950
OS2WinAOffset: 0
OS2WinDescent: 537
OS2WinDOffset: 0
HheadAscent: 1950
HheadAOffset: 0
HheadDescent: -537
HheadDOffset: 0
OS2SubXSize: 1434
OS2SubYSize: 1331
OS2SubXOff: 0
OS2SubYOff: 287
OS2SupXSize: 1434
OS2SupYSize: 1331
OS2SupXOff: 0
OS2SupYOff: 977
OS2StrikeYSize: 102
OS2StrikeYPos: 512
OS2CapHeight: 1510
OS2XHeight: 1100
OS2Vendor: '    '
OS2CodePages: 20000093.00000000
OS2UnicodeRanges: 8000002f.4000204b.00000000.00000000
Lookup: 258 0 0 "'kern' Horizontal Kerning lookup 0" { "'kern' Horizontal Kerning lookup 0-1 subtable" [307,0,4] } ['kern' ('DFLT' <'dflt' > 'grek' <'dflt' > 'latn' <'dflt' > ) ]
MarkAttachClasses: 1
DEI: 91125
KernClass2: 69 53 "'kern' Horizontal Kerning lookup 0-1 subtable"
 84 A Agrave Aacute Acircumflex Atilde Adieresis Aring Amacron Abreve Aogonek Aringacute
 28 B germandbls uni1E02 uni1E9E
 47 C Ccedilla Cacute Ccircumflex Cdotaccent Ccaron
 122 D O Q Eth Ograve Oacute Ocircumflex Otilde Odieresis Oslash Dcaron Dcroat Omacron Obreve Ohungarumlaut Oslashacute uni1E0A

StartChar: .notdef
Encoding: 65536 -1 0
Width: 994
Flags: W
HStem: 0 68<274 748> 1442 68<567 1041>
VStem: 150 694<0 694> 471 694<816 1510>
DStem2: 150 0 259.546 0 0.207912 0.978148<92.2951 1497.19> 733.546 0 844 0 0.207912 0.978148<69.5192 1474.41>
LayerCount: 2
Fore
SplineSet
150 0 m 1,0,-1
 471 1510 l 1,1,-1
 1165 1510 l 1,2,-1
 844 0 l 1,3,-1
 150 0 l 1,0,-1
274 68 m 1,4,-1
 748 68 l 1,5,-1
 1041 1442 l 1,6,-1
 567 1442 l 1,7,-1
 274 68 l 1,4,-1
EndSplineSet
Validated: 1
EndChar

StartChar: exclam
Encoding: 33 33 4
Width: 659
GlyphClass: 2
Flags: W
HStem: -20 264<275.398 431.041> 1510 20G<628 681.5>
VStem: 220 265<33.5176 189.179> 497 262<1260.5 1478.85>
LayerCount: 2
Fore
SplineSet
326 -20 m 128,-1,1
 272 -20 272 -20 242 18 c 0,2,3
 220 46 220 46 220 83 c 0,4,5
 220 97 220 97 224 112 c 0,6,7
 236 167 236 167 282 205.5 c 128,-1,8
 328 244 328 244 382 244 c 128,-1,9
 436 244 436 244 465 206 c 0,10,11
 485 180 485 180 485 142 c 0,12,13
 485 125 485 125 482 112 c 0,14,15
 470 57 470 57 425 18.5 c 128,-1,0
 380 -20 380 -20 326 -20 c 128,-1,1
655 1530 m 0,16,17
 708 1530 708 1530 738 1492 c 0,18,19
 759 1465 759 1465 759 1429 c 0,20,21
 759 1404 759 1404 750 1376 c 10,22,-1
 446 320 l 1,23,-1
 348 320 l 1,24,-1
 493 1376 l 2,25,26
 494 1386 494 1386 497 1398 c 0,27,28
 509 1453 509 1453 555 1491.5 c 128,-1,29
 601 1530 601 1530 655 1530 c 0,16,17
EndSplineSet
Validated: 1
EndChar

StartChar: quotedbl
Encoding: 34 34 5
Width: 644
GlyphClass: 2
Flags: W
HStem: 1141 409<424 494.9 716 786.9>
VStem: 424 177<1278.32 1548> 716 177<1278.32 1548>
LayerCount: 2
Fore
SplineSet
671 1550 m 1,0,1
 867 1550 l 1,2,3
 893 1496 893 1496 893 1437 c 0,4,5
 893 1408 893 1408 887 1379 c 0,6,7
 863 1267 863 1267 751 1141 c 1,8,-1
 615 1141 l 1,9,10
 690 1250 690 1250 709 1343 c 0,11,12
 716 1376 716 1376 716 1407 c 0,13,14
 716 1486 716 1486 671 1550 c 1,0,1
379 1550 m 1,15,-1
 575 1550 l 1,16,17
 601 1496 601 1496 601 1437 c 0,18,19
 601 1408 601 1408 595 1379 c 0,20,21
 571 1267 571 1267 459 1141 c 1,22,-1
 323 1141 l 1,23,24
 398 1250 398 1250 417 1343 c 0,25,26
 424 1376 424 1376 424 1407 c 0,27,28
 424 1486 424 1486 379 1550 c 1,15,-1
EndSplineSet
Validated: 1
EndChar

StartChar: numbersign
Encoding: 35 35 6
Width: 1354
GlyphClass: 2
Flags: W
HStem: 517 131<412 550 715 887 1051 1190> 859 131<484 623 787 960 1123 1263>
DStem2: 499 277 636.271 277 0.207912 0.978148<104.193 245.359 407.802 595.063 757.298 898.671> 836 277 972.271 277 0.207912 0.978148<103.985 245.359 407.594 595.063 757.09 898.671>
LayerCount: 2
Fore
SplineSet
838 1230 m 1,0,-1
 787 990 l 1,1,-1
 987 990 l 1,2,-1
 1023 1156 l 1,3,-1
 1174 1230 l 1,4,-1
 1123 990 l 1,5,-1
 1364 990 l 1,6,-1
 1263 859 l 1,7,-1
 1096 859 l 1,8,-1
 1051 648 l 1,9,-1
 1292 648 l 1,10,-1
 1190 517 l 1,11,-1
 1023 517 l 1,12,-1
 988 351 l 1,13,-1
 836 277 l 1,14,-1
 887 517 l 1,15,-1
 687 517 l 1,16,-1
 652 351 l 1,17,-1
 499 277 l 1,18,-1
 550 517 l 1,19,-1
 310 517 l 1,20,-1
 412 648 l 1,21,-1
 578 648 l 1,22,-1
 623 859 l 1,23,-1
 383 859 l 1,24,-1
 484 990 l 1,25,-1
 650 990 l 1,26,-1
 686 1156 l 1,27,-1
 838 1230 l 1,0,-1
760 859 m 1,28,-1
 715 648 l 1,29,-1
 915 648 l 1,30,-1
 960 859 l 1,31,-1
 760 859 l 1,28,-1
EndSplineSet
Validated: 1
EndChar

StartChar: dollar
Encoding: 36 36 7
Width: 1301
GlyphClass: 2
Flags: W
HStem: -19 92<465.289 596 716 839.057> 1510 20G<1276 1314>
VStem: 116 15<-20 -4.38477> 240 15<531.334 566> 468 198<1062.73 1296.26> 1072 217<346.664 613.096> 1204 15<1080 1112.59>
DStem2: 568 -150 667.884 -150 0.207912 0.978148<79.0405 133.959 252.81 928.682 1163.45 1623.57 1724.56 1792.24> 810 988 699 815 0.902061 -0.431608<-156.222 0 150.299 368.406>
LayerCount: 2
Fore
SplineSet
568 -150 m 1,0,-1
 596 -19 l 1,1,2
 461 -12 461 -12 358 45 c 0,3,4
 288 84 288 84 248 84 c 0,5,6
 175 84 175 84 131 -20 c 1,7,-1
 116 -20 l 1,8,-1
 240 566 l 1,9,-1
 255 566 l 1,10,11
 255 340 255 340 346 220 c 0,12,13
 447 87 447 87 616 73 c 1,14,-1
 766 782 l 1,15,-1
 699 815 l 2,16,17
 468 929 468 929 468 1112 c 0,18,19
 468 1167 468 1167 481 1219 c 0,20,21
 512 1341 512 1341 641 1437 c 0,22,23
 764 1530 764 1530 925 1530 c 9,24,-1
 941 1603 l 1,25,-1
 1053 1660 l 1,26,-1
 1023 1520 l 1,27,28
 1057 1512 1057 1512 1086 1499 c 0,29,30
 1166 1463 1166 1463 1209 1463 c 0,31,32
 1253 1463 1253 1463 1299 1530 c 1,33,-1
 1314 1530 l 1,34,-1
 1219 1080 l 1,35,-1
 1204 1080 l 1,36,37
 1195 1213 1195 1213 1157 1304 c 0,38,39
 1109 1417 1109 1417 1006 1438 c 1,40,-1
 901 945 l 1,41,-1
 1019 888 l 2,42,43
 1289 758 1289 758 1289 550 c 0,44,45
 1289 495 1289 495 1278 445 c 0,46,47
 1234 250 1234 250 1043 106 c 0,48,49
 899 -3 899 -3 696 -18 c 1,50,-1
 680 -93 l 1,51,-1
 568 -150 l 1,0,-1
810 988 m 1,52,-1
 906 1438 l 1,53,54
 831 1427 831 1427 772 1382 c 0,55,56
 688 1318 688 1318 670 1223 c 0,57,58
 666 1202 666 1202 666 1183 c 0,59,60
 666 1058 666 1058 810 988 c 1,52,-1
857 738 m 1,61,-1
 716 77 l 1,62,63
 841 96 841 96 944 191 c 0,64,65
 1034 275 1034 275 1062 399 c 0,66,67
 1072 442 1072 442 1072 486 c 0,68,69
 1072 633 1072 633 883 725 c 2,70,-1
 857 738 l 1,61,-1
EndSplineSet
Validated: 1
EndChar

StartChar: percent
Encoding: 37 37 8
Width: 1589
GlyphClass: 2
Flags: W
HStem: -20 84<1061.46 1236.83> 580 84<1151.9 1327.62> 846 84<582.75 758.118> 1446 84<672.895 848.623>
VStem: 392 161<954.355 1289.19> 878 161<81.5359 436.375 1087.13 1422.75> 1357 161<220.814 555.645>
DStem2: 273 34 388 -40 0.63679 0.771037<16.1741 1966.15>
LayerCount: 2
Fore
SplineSet
1122 -20 m 128,-1,1
 1004 -20 1004 -20 931 62 c 0,2,3
 871 129 871 129 871 231 c 0,4,5
 872 274 872 274 882 322 c 0,6,7
 918 488 918 488 1042 582 c 0,8,9
 1149 664 1149 664 1267 664 c 128,-1,10
 1385 664 1385 664 1458 582 c 0,11,12
 1518 515 1518 515 1518 413 c 0,13,14
 1518 370 1518 370 1508 322 c 0,15,16
 1472 156 1472 156 1347 62 c 0,17,0
 1240 -20 1240 -20 1122 -20 c 128,-1,1
1140.5 64 m 128,-1,19
 1206 64 1206 64 1264 134 c 0,20,21
 1316 197 1316 197 1343 322 c 0,22,23
 1357 386 1357 386 1357 433 c 0,24,25
 1357 479 1357 479 1344 510 c 0,26,27
 1316 580 1316 580 1249 580 c 0,28,29
 1183 580 1183 580 1124 510 c 0,30,31
 1072 448 1072 448 1045 322 c 0,32,33
 1031 257 1031 257 1031 210 c 0,34,35
 1031 164 1031 164 1044 134 c 0,36,18
 1075 64 1075 64 1140.5 64 c 128,-1,19
788 1530 m 128,-1,38
 906 1530 906 1530 979 1448 c 0,39,40
 1039 1381 1039 1381 1039 1279 c 0,41,42
 1038 1236 1038 1236 1028 1188 c 0,43,44
 992 1022 992 1022 868 928 c 0,45,46
 761 846 761 846 643 846 c 128,-1,47
 525 846 525 846 452 928 c 0,48,49
 392 995 392 995 392 1097 c 0,50,51
 392 1140 392 1140 402 1188 c 0,52,53
 438 1354 438 1354 563 1448 c 0,54,37
 670 1530 670 1530 788 1530 c 128,-1,38
770 1446 m 0,55,56
 704 1446 704 1446 645 1376 c 0,57,58
 593 1314 593 1314 567 1188 c 0,59,60
 553 1123 553 1123 553 1076 c 0,61,62
 553 1030 553 1030 566 1000 c 0,63,64
 596 930 596 930 661.5 930 c 128,-1,65
 727 930 727 930 786 1000 c 0,66,67
 838 1063 838 1063 864 1188 c 0,68,69
 877 1251 877 1251 878 1298 c 0,70,71
 878 1344 878 1344 865 1376 c 0,72,73
 837 1446 837 1446 770 1446 c 0,55,56
1525 1550 m 1,74,-1
 1645 1482 l 1,75,-1
 388 -40 l 1,76,-1
 273 34 l 1,77,-1
 1525 1550 l 1,74,-1
EndSplineSet
Validated: 1
EndChar

StartChar: quotesingle
Encoding: 39 39 9
Width: 352
GlyphClass: 2
Flags: W
HStem: 1141 409<424 494.9>
VStem: 424 177<1278.32 1548>
LayerCount: 2
Fore
SplineSet
379 1550 m 1,0,1
 575 1550 l 1,2,3
 601 1496 601 1496 601 1437 c 0,4,5
 601 1408 601 1408 595 1379 c 0,6,7
 571 1267 571 1267 459 1141 c 1,8,-1
 323 1141 l 1,9,10
 398 1250 398 1250 417 1343 c 0,11,12
 424 1376 424 1376 424 1407 c 0,13,14
 424 1486 424 1486 379 1550 c 1,0,1
EndSplineSet
Validated: 1
EndChar

StartChar: parenleft
Encoding: 40 40 10
Width: 670
GlyphClass: 2
Flags: W
VStem: 323 177<98.2139 716.095>
LayerCount: 2
Fore
SplineSet
909 1730 m 1,0,-1
 979 1691 l 1,1,2
 830 1488 830 1488 721.5 1263 c 128,-1,3
 613 1038 613 1038 553 755 c 0,4,5
 500 506 500 506 500 298 c 0,6,7
 500 273 500 273 501 249 c 0,8,9
 508 20 508 20 582 -181 c 1,10,-1
 494 -220 l 1,11,12
 380 4 380 4 341 208 c 0,13,14
 323 308 323 308 323 418 c 0,15,16
 323 576 323 576 361 755 c 0,17,18
 421 1037 421 1037 574 1302 c 0,19,20
 708 1532 708 1532 909 1730 c 1,0,-1
EndSplineSet
Validated: 1
EndChar

StartChar: parenright
Encoding: 41 41 11
Width: 670
GlyphClass: 2
Flags: W
VStem: 491 177<793.905 1411.79>
LayerCount: 2
Fore
SplineSet
497 1730 m 1,0,1
 611 1506 611 1506 650 1302 c 0,2,3
 668 1202 668 1202 668 1092 c 0,4,5
 668 934 668 934 630 755 c 0,6,7
 570 473 570 473 417 208 c 0,8,9
 283 -22 283 -22 82 -220 c 1,10,-1
 12 -181 l 1,11,12
 161 22 161 22 269.5 247 c 128,-1,13
 378 472 378 472 438 755 c 0,14,15
 491 1004 491 1004 491 1212 c 0,16,17
 491 1237 491 1237 490 1261 c 0,18,19
 483 1490 483 1490 409 1691 c 1,20,-1
 497 1730 l 1,0,1
EndSplineSet
Validated: 1
EndChar

StartChar: asterisk
Encoding: 42 42 12
Width: 891
GlyphClass: 2
Flags: W
LayerCount: 2
Fore
SplineSet
767 1550 m 1,0,-1
 778 1550 l 1,1,-1
 798 1295 l 1,2,-1
 928 1350 l 1,3,-1
 849 1237 l 1,4,-1
 1088 1162 l 1,5,-1
 1086 1151 l 1,6,-1
 815 1077 l 1,7,-1
 845 959 l 1,8,-1
 744 1014 l 1,9,-1
 614 759 l 1,10,-1
 603 759 l 1,11,-1
 584 1014 l 1,12,-1
 454 959 l 1,13,-1
 533 1072 l 1,14,-1
 294 1147 l 1,15,-1
 296 1158 l 1,16,-1
 567 1232 l 1,17,-1
 537 1350 l 1,18,-1
 638 1295 l 1,19,-1
 767 1550 l 1,0,-1
EndSplineSet
Validated: 1
EndChar

StartChar: plus
Encoding: 43 43 13
Width: 1218
GlyphClass: 2
Flags: W
HStem: 680 150<411 676 863 1128>
DStem2: 594 296 749.933 296 0.207912 0.978148<119.319 392.657 578.259 851.597>
LayerCount: 2
Fore
SplineSet
945 1214 m 1,0,-1
 863 830 l 1,1,-1
 1244 830 l 1,2,-1
 1128 680 l 1,3,-1
 832 680 l 1,4,-1
 768 381 l 1,5,-1
 594 296 l 1,6,-1
 676 680 l 1,7,-1
 295 680 l 1,8,-1
 411 830 l 1,9,-1
 707 830 l 1,10,-1
 771 1129 l 1,11,-1
 945 1214 l 1,0,-1
EndSplineSet
Validated: 1
EndChar

StartChar: comma
Encoding: 44 44 14
Width: 368
GlyphClass: 2
Flags: W
HStem: -221 444
VStem: 70 266<13.8145 175.758>
LayerCount: 2
Fore
SplineSet
-30 -221 m 1,0,-1
 -27 -208 l 1,1,2
 60 -164 60 -164 122 -97 c 0,3,4
 153 -63 153 -63 177 -18 c 1,5,6
 113 -18 113 -18 90 13 c 0,7,8
 70 39 70 39 70 73 c 0,9,10
 70 85 70 85 73 99 c 0,11,12
 84 151 84 151 128 188 c 0,13,14
 170 223 170 223 225 223 c 0,15,16
 277 223 277 223 307 189 c 0,17,18
 336 155 336 155 336 107 c 0,19,20
 336 84 336 84 332 69 c 0,21,22
 316 -3 316 -3 257 -76 c 0,23,24
 178 -172 178 -172 60 -209 c 0,25,26
 21 -221 21 -221 -30 -221 c 1,0,-1
EndSplineSet
Validated: 1
EndChar

StartChar: hyphen
Encoding: 45 45 15
Width: 1218
GlyphClass: 2
Flags: W
HStem: 680 150<411 1128>
LayerCount: 2
Fore
SplineSet
411 830 m 1,0,-1
 1244 830 l 1,1,-1
 1128 680 l 1,2,-1
 295 680 l 1,3,-1
 411 830 l 1,0,-1
EndSplineSet
Validated: 1
EndChar

StartChar: period
Encoding: 46 46 16
Width: 359
GlyphClass: 2
Flags: W
HStem: -20 264<125.398 281.041>
VStem: 70 265<33.5176 189.179>
LayerCount: 2
Fore
SplineSet
176 -20 m 128,-1,1
 122 -20 122 -20 92 18 c 0,2,3
 70 46 70 46 70 83 c 0,4,5
 70 97 70 97 74 112 c 0,6,7
 86 167 86 167 132 205.5 c 128,-1,8
 178 244 178 244 232 244 c 128,-1,9
 286 244 286 244 315 206 c 0,10,11
 335 180 335 180 335 142 c 0,12,13
 335 127 335 127 332 112 c 0,14,15
 320 57 320 57 275 18.5 c 128,-1,0
 230 -20 230 -20 176 -20 c 128,-1,1
EndSplineSet
Validated: 1
EndChar

StartChar: slash
Encoding: 47 47 17
Width: 1078
GlyphClass: 2
Flags: W
DStem2: -5 -72 129 -150 0.591806 0.80608<16.4277 2148.91>
LayerCount: 2
Fore
SplineSet
1267 1660 m 1,0,-1
 1405 1588 l 1,1,-1
 129 -150 l 1,2,-1
 -5 -72 l 1,3,-1
 1267 1660 l 1,0,-1
EndSplineSet
Validated: 1
EndChar

StartChar: zero
Encoding: 48 48 18
Width: 1460
GlyphClass: 2
Flags: W
HStem: -20 92<589.182 922.104> 1438 92<858.756 1191.48>
VStem: 224 221<278.281 803.312> 1336 220<706.746 1231.63>
LayerCount: 2
Fore
SplineSet
745 72 m 128,-1,1
 904 72 904 72 1042 205 c 0,2,3
 1222 380 1222 380 1302 754 c 0,4,5
 1336 913 1336 913 1336 1037 c 0,6,7
 1336 1203 1336 1203 1275 1305 c 0,8,9
 1194 1438 1194 1438 1035.5 1438 c 128,-1,10
 877 1438 877 1438 739 1305 c 0,11,12
 559 1131 559 1131 478 756 c 0,13,14
 445 603 445 603 445 473 c 0,15,16
 445 307 445 307 506 205 c 0,17,0
 586 72 586 72 745 72 c 128,-1,1
726 -20 m 128,-1,19
 495 -20 495 -20 358 134 c 0,20,21
 224 286 224 286 224 525 c 0,22,23
 224 631 224 631 250 755 c 0,24,25
 336 1157 336 1157 622 1376 c 0,26,27
 824 1530 824 1530 1055 1530 c 128,-1,28
 1286 1530 1286 1530 1422 1376 c 0,29,30
 1556 1224 1556 1224 1556 984 c 0,31,32
 1556 878 1556 878 1530 755 c 0,33,34
 1445 353 1445 353 1158 134 c 0,35,18
 957 -20 957 -20 726 -20 c 128,-1,19
EndSplineSet
Validated: 1
EndChar

StartChar: one
Encoding: 49 49 19
Width: 640
GlyphClass: 2
Flags: W
HStem: 0 15<50.1853 74.9531 573.781 590>
VStem: 734 15<1543.4 1550>
DStem2: 219.861 0 419.861 0 0.207912 0.978148<227.036 1087.29>
LayerCount: 2
Fore
SplineSet
50 0 m 1,0,1
 52 9 52 9 53 15 c 1,2,3
 233 60 233 60 273 250 c 2,4,-1
 431 995 l 2,5,6
 439 1034 439 1034 439 1066 c 0,7,8
 439 1194 439 1194 311 1230 c 1,9,10
 312 1237 312 1237 315 1245 c 9,11,12
 571 1338 571 1338 734 1550 c 1,13,-1
 749 1550 l 1,14,-1
 473 250 l 2,15,16
 465 211 465 211 465 179 c 0,17,18
 465 51 465 51 593 15 c 1,19,-1
 590 0 l 1,20,-1
 50 0 l 1,0,1
EndSplineSet
Validated: 1
EndChar

StartChar: two
Encoding: 50 50 20
Width: 1341
GlyphClass: 2
Flags: W
HStem: -20 180<765.247 1021.31> 70 180<334.793 649.344> 1438 92<752.904 1073.92>
VStem: 416 15<1014 1027.64> 1152 228<1009.49 1357.78>
LayerCount: 2
Fore
SplineSet
146 -20 m 1,0,1
 282 269 282 269 480 449 c 0,2,3
 655 608 655 608 876 755 c 0,4,5
 1096 901 1096 901 1140 1107 c 0,6,7
 1152 1165 1152 1165 1152 1212 c 0,8,9
 1152 1257 1152 1257 1141 1293 c 0,10,11
 1094 1438 1094 1438 929 1438 c 0,12,13
 756 1438 756 1438 613 1285 c 0,14,15
 496 1160 496 1160 431 1014 c 1,16,-1
 416 1014 l 1,17,-1
 486 1346 l 1,18,19
 700 1530 700 1530 970 1530 c 0,20,21
 1178 1530 1178 1530 1289 1417 c 0,22,23
 1380 1325 1380 1325 1380 1196 c 0,24,25
 1380 1153 1380 1153 1370 1107 c 0,26,27
 1313 841 1313 841 1027 688 c 0,28,29
 770 551 770 551 627 442 c 0,30,31
 504 348 504 348 393 215 c 1,32,33
 478 250 478 250 560 250 c 0,34,35
 648 250 648 250 765 205 c 128,-1,36
 882 160 882 160 963 160 c 0,37,38
 1101 160 1101 160 1231 258 c 1,39,-1
 1246 258 l 1,40,41
 1095 -20 1095 -20 830 -20 c 0,42,43
 765 -20 765 -20 629 33 c 0,44,45
 535 70 535 70 427 70 c 0,46,47
 287 70 287 70 161 -20 c 1,48,-1
 146 -20 l 1,0,1
EndSplineSet
Validated: 1
EndChar

StartChar: three
Encoding: 51 51 21
Width: 1213
GlyphClass: 2
Flags: W
HStem: -20 92<359.564 692.339> 1438 92<655.969 950.042>
VStem: 213 10<366.115 389> 464 15<1169 1185.26> 954 221<367.57 721.247> 999 194<1095.47 1390.26>
LayerCount: 2
Fore
SplineSet
502 -20 m 0,0,1
 289 -20 289 -20 149 88 c 1,2,-1
 213 389 l 1,3,-1
 223 389 l 1,4,5
 235 307 235 307 266 234 c 0,6,7
 336 72 336 72 521 72 c 0,8,9
 668 72 668 72 792 190 c 0,10,11
 906 298 906 298 943 472 c 0,12,13
 954 524 954 524 954 569 c 0,14,15
 954 685 954 685 882 755 c 0,16,17
 799 836 799 836 648 856 c 1,18,-1
 651 871 l 1,19,20
 795 913 795 913 884 995 c 0,21,22
 964 1068 964 1068 990 1189 c 0,23,24
 999 1232 999 1232 999 1268 c 0,25,26
 999 1325 999 1325 976 1363 c 0,27,28
 930 1438 930 1438 825 1438 c 0,29,30
 707 1438 707 1438 624 1371 c 0,31,32
 538 1301 538 1301 479 1169 c 1,33,-1
 464 1169 l 1,34,-1
 519 1426 l 1,35,36
 645 1530 645 1530 855 1530 c 0,37,38
 1025 1530 1025 1530 1115 1447 c 0,39,40
 1193 1374 1193 1374 1193 1267 c 0,41,42
 1193 1233 1193 1233 1185 1195 c 0,43,44
 1155 1052 1155 1052 1031 964 c 0,45,46
 971 921 971 921 904 894 c 1,47,48
 1009 873 1009 873 1078 806 c 0,49,50
 1175 715 1175 715 1175 574 c 0,51,52
 1175 525 1175 525 1163 470 c 0,53,54
 1116 248 1116 248 915 104 c 0,55,56
 743 -20 743 -20 502 -20 c 0,0,1
EndSplineSet
Validated: 1
EndChar

StartChar: four
Encoding: 52 52 22
Width: 1147
GlyphClass: 2
Flags: W
HStem: 0 15<560 581.953 1080.78 1097> 360 90<285 804 1023 1123>
DStem2: 85 375 285 450 0.70132 0.712847<193.727 1171.69> 726.861 0 926.861 0 0.207912 0.978148<227.036 368.171 501.737 1172.69>
LayerCount: 2
Fore
SplineSet
557 0 m 1,0,-1
 560 15 l 1,1,2
 740 60 740 60 780 250 c 2,3,-1
 804 360 l 1,4,-1
 82 360 l 1,5,-1
 85 375 l 1,6,-1
 1241 1550 l 1,7,-1
 1256 1550 l 1,8,-1
 1023 450 l 1,9,-1
 1193 450 l 1,10,-1
 1123 360 l 1,11,-1
 1004 360 l 1,12,-1
 980 250 l 2,13,14
 972 211 972 211 972 179 c 0,15,16
 972 51 972 51 1100 15 c 1,17,-1
 1097 0 l 1,18,-1
 557 0 l 1,0,-1
823 450 m 1,19,-1
 971 1147 l 1,20,-1
 285 450 l 1,21,-1
 823 450 l 1,19,-1
EndSplineSet
Validated: 1
EndChar

StartChar: five
Encoding: 53 53 23
Width: 1203
GlyphClass: 2
Flags: W
HStem: -20 92<349.564 679.185> 815 101<579.22 835.508> 1320 190<790.777 1071.26>
VStem: 203 10<366.115 389> 944 221<368.044 713.257>
LayerCount: 2
Fore
SplineSet
492 -20 m 0,0,1
 279 -20 279 -20 139 88 c 1,2,-1
 203 389 l 1,3,-1
 213 389 l 1,4,5
 225 307 225 307 256 234 c 0,6,7
 326 72 326 72 511 72 c 0,8,9
 660 72 660 72 792 199 c 0,10,11
 897 300 897 300 933 470 c 0,12,13
 944 521 944 521 944 565 c 0,14,15
 944 662 944 662 892 723 c 0,16,17
 814 815 814 815 660 815 c 0,18,19
 575 815 575 815 505 787 c 1,20,-1
 362 901 l 1,21,-1
 653 1510 l 1,22,-1
 1317 1510 l 1,23,24
 1182 1320 1182 1320 959 1320 c 0,25,26
 785 1320 785 1320 698 1461 c 1,27,-1
 577 893 l 1,28,29
 663 916 663 916 760 916 c 0,30,31
 953 916 953 916 1068 806 c 0,32,33
 1165 715 1165 715 1165 574 c 0,34,35
 1165 525 1165 525 1153 470 c 0,36,37
 1106 248 1106 248 905 104 c 0,38,39
 733 -20 733 -20 492 -20 c 0,0,1
EndSplineSet
Validated: 1
EndChar

StartChar: six
Encoding: 54 54 24
Width: 1366
GlyphClass: 2
Flags: W
HStem: -20 92<562.254 861.469> 943 92<730.889 1028.87> 1438 92<892.595 1215.98>
VStem: 272 200<218.35 600.52> 1122 215<414.704 819.608> 1328 15<1162 1195.42>
LayerCount: 2
Fore
SplineSet
690 -20 m 0,0,1
 466 -20 466 -20 355 147 c 0,2,3
 272 273 272 273 272 462 c 0,4,5
 272 573 272 573 300 705 c 0,6,7
 393 1141 393 1141 658 1371 c 0,8,9
 842 1530 842 1530 1094 1530 c 0,10,11
 1274 1530 1274 1530 1403 1446 c 1,12,-1
 1343 1162 l 1,13,-1
 1328 1162 l 1,14,15
 1286 1438 1286 1438 1078 1438 c 0,16,17
 891 1438 891 1438 765 1295 c 0,18,19
 610 1118 610 1118 555 854 c 1,20,21
 717 1035 717 1035 914 1035 c 0,22,23
 1134 1035 1134 1035 1250 886 c 0,24,25
 1337 774 1337 774 1337 627 c 0,26,27
 1337 570 1337 570 1324 508 c 0,28,29
 1277 285 1277 285 1090 130 c 0,30,31
 909 -20 909 -20 690 -20 c 0,0,1
701 72 m 0,32,33
 863 72 863 72 983 223 c 0,34,35
 1062 323 1062 323 1102 508 c 0,36,37
 1122 602 1122 602 1122 675 c 0,38,39
 1122 744 1122 744 1104 792 c 0,40,41
 1048 943 1048 943 886 943 c 0,42,43
 730 943 730 943 610 792 c 0,44,45
 531 692 531 692 492 508 c 0,46,47
 472 412 472 412 472 339 c 0,48,49
 472 271 472 271 489 223 c 0,50,51
 545 72 545 72 701 72 c 0,32,33
EndSplineSet
Validated: 1
EndChar

StartChar: seven
Encoding: 55 55 25
Width: 1081
GlyphClass: 2
Flags: W
HStem: 0 21G<346 632> 1260 180<882.656 1191> 1350 180<510.686 766.753>
VStem: 346 258<4.8064 358.438>
LayerCount: 2
Fore
SplineSet
346 0 m 1,0,1
 349 170 349 170 380 316 c 0,2,3
 438 591 438 591 595 779 c 0,4,5
 677 878 677 878 752.5 942 c 128,-1,6
 828 1006 828 1006 910 1069 c 0,7,8
 1037 1164 1037 1164 1139 1295 c 1,9,10
 1054 1260 1054 1260 972 1260 c 0,11,12
 884 1260 884 1260 767 1305 c 128,-1,13
 650 1350 650 1350 569 1350 c 0,14,15
 431 1350 431 1350 301 1252 c 1,16,-1
 286 1252 l 1,17,18
 437 1530 437 1530 702 1530 c 0,19,20
 767 1530 767 1530 903 1477 c 0,21,22
 997 1440 997 1440 1105 1440 c 0,23,24
 1245 1440 1245 1440 1371 1530 c 1,25,-1
 1386 1530 l 1,26,27
 1242 1256 1242 1256 1044 1078 c 0,28,29
 930 975 930 975 865 909 c 0,30,31
 785 827 785 827 718 720 c 128,-1,32
 651 613 651 613 623 479 c 0,33,34
 604 389 604 389 604 283 c 0,35,36
 604 154 604 154 632 0 c 1,37,-1
 346 0 l 1,0,1
EndSplineSet
Validated: 1
EndChar

StartChar: eight
Encoding: 56 56 26
Width: 1245
GlyphClass: 2
Flags: W
HStem: -20 92<459.833 794.967> 1438 92<812.633 1065.23>
VStem: 200 149<181.438 517.321> 483 197<1048.15 1276.96> 1019 212<349.255 588.312> 1112 150<1091.12 1392.53>
LayerCount: 2
Fore
SplineSet
907 923 m 1,0,1
 1065 1008 1065 1008 1104 1192 c 0,2,3
 1112 1230 1112 1230 1112 1263 c 0,4,5
 1112 1318 1112 1318 1090 1361 c 0,6,7
 1049 1438 1049 1438 953.5 1438 c 128,-1,8
 858 1438 858 1438 782.5 1371 c 128,-1,9
 707 1304 707 1304 685 1198 c 0,10,11
 680 1177 680 1177 680 1157 c 0,12,13
 680 1059 680 1059 791 993 c 2,14,-1
 907 923 l 1,0,1
611 -20 m 0,15,16
 396 -20 396 -20 289 101 c 0,17,18
 200 203 200 203 200 333 c 0,19,20
 200 377 200 377 210 424 c 0,21,22
 271 710 271 710 625 843 c 1,23,24
 483 951 483 951 483 1099 c 0,25,26
 483 1134 483 1134 491 1172 c 0,27,28
 527 1342 527 1342 679 1444 c 0,29,30
 807 1530 807 1530 962 1530 c 0,31,32
 1112 1530 1112 1530 1190 1448 c 0,33,34
 1262 1372 1262 1372 1262 1266 c 0,35,36
 1262 1231 1262 1231 1254 1192 c 0,37,38
 1211 990 1211 990 986 874 c 1,39,40
 1231 744 1231 744 1231 538 c 0,41,42
 1231 499 1231 499 1222 457 c 0,43,44
 1180 258 1180 258 997 112 c 0,45,46
 831 -20 831 -20 611 -20 c 0,15,16
702 788 m 1,47,48
 409 655 409 655 359 419 c 0,49,50
 349 372 349 372 349 330 c 0,51,52
 349 248 349 248 388 188 c 0,53,54
 462 72 462 72 630 72 c 0,55,56
 761 72 761 72 880 176 c 0,57,58
 985 268 985 268 1013 400 c 0,59,60
 1019 429 1019 429 1019 456 c 0,61,62
 1019 597 1019 597 858 694 c 2,63,-1
 702 788 l 1,47,48
EndSplineSet
Validated: 1
EndChar

StartChar: nine
Encoding: 57 57 27
Width: 1366
GlyphClass: 2
Flags: W
HStem: -20 92<471.021 794.405> 475 92<658.134 956.111> 1438 92<825.531 1124.75>
VStem: 344 15<314.578 348> 350 215<690.392 1095.3> 1215 200<909.48 1291.65>
LayerCount: 2
Fore
SplineSet
593 -20 m 0,0,1
 413 -20 413 -20 284 64 c 1,2,-1
 344 348 l 1,3,-1
 359 348 l 1,4,5
 401 72 401 72 609 72 c 0,6,7
 796 72 796 72 922 215 c 0,8,9
 1077 392 1077 392 1132 656 c 1,10,11
 970 475 970 475 773 475 c 0,12,13
 553 475 553 475 437 624 c 0,14,15
 350 736 350 736 350 883 c 0,16,17
 350 940 350 940 363 1002 c 0,18,19
 410 1225 410 1225 597 1380 c 0,20,21
 778 1530 778 1530 997 1530 c 0,22,23
 1221 1530 1221 1530 1332 1363 c 0,24,25
 1415 1237 1415 1237 1415 1048 c 0,26,27
 1415 937 1415 937 1387 805 c 0,28,29
 1294 369 1294 369 1029 139 c 0,30,31
 845 -20 845 -20 593 -20 c 0,0,1
986 1438 m 0,32,33
 824 1438 824 1438 704 1287 c 0,34,35
 625 1187 625 1187 585 1002 c 0,36,37
 565 908 565 908 565 835 c 0,38,39
 565 766 565 766 583 718 c 0,40,41
 639 567 639 567 801 567 c 0,42,43
 957 567 957 567 1077 718 c 0,44,45
 1156 818 1156 818 1195 1002 c 0,46,47
 1215 1098 1215 1098 1215 1171 c 0,48,49
 1215 1239 1215 1239 1198 1287 c 0,50,51
 1142 1438 1142 1438 986 1438 c 0,32,33
EndSplineSet
Validated: 1
EndChar

StartChar: colon
Encoding: 58 58 28
Width: 359
GlyphClass: 2
Flags: W
HStem: -20 264<125.398 281.041> 625 264<262.398 418.041>
VStem: 70 265<33.5176 189.179> 207 265<678.518 834.179>
LayerCount: 2
Fore
SplineSet
176 -20 m 128,-1,1
 122 -20 122 -20 92 18 c 0,2,3
 70 46 70 46 70 83 c 0,4,5
 70 97 70 97 74 112 c 0,6,7
 86 167 86 167 132 205.5 c 128,-1,8
 178 244 178 244 232 244 c 128,-1,9
 286 244 286 244 315 206 c 0,10,11
 335 180 335 180 335 142 c 0,12,13
 335 127 335 127 332 112 c 0,14,15
 320 57 320 57 275 18.5 c 128,-1,0
 230 -20 230 -20 176 -20 c 128,-1,1
313 625 m 128,-1,17
 259 625 259 625 229 663 c 0,18,19
 207 691 207 691 207 728 c 0,20,21
 207 742 207 742 211 757 c 0,22,23
 223 812 223 812 269 850.5 c 128,-1,24
 315 889 315 889 369 889 c 128,-1,25
 423 889 423 889 452 851 c 0,26,27
 472 825 472 825 472 787 c 0,28,29
 472 772 472 772 469 757 c 0,30,31
 457 702 457 702 412 663.5 c 128,-1,16
 367 625 367 625 313 625 c 128,-1,17
EndSplineSet
Validated: 1
EndChar

StartChar: semicolon
Encoding: 59 59 29
Width: 368
GlyphClass: 2
Flags: W
HStem: 625 264<262.398 418.041>
VStem: 70 266<13.8145 175.758> 207 265<678.518 834.179>
LayerCount: 2
Fore
SplineSet
313 625 m 128,-1,1
 259 625 259 625 229 663 c 0,2,3
 207 691 207 691 207 728 c 0,4,5
 207 742 207 742 211 757 c 0,6,7
 223 812 223 812 269 850.5 c 128,-1,8
 315 889 315 889 369 889 c 128,-1,9
 423 889 423 889 452 851 c 0,10,11
 472 825 472 825 472 787 c 0,12,13
 472 772 472 772 469 757 c 0,14,15
 457 702 457 702 412 663.5 c 128,-1,0
 367 625 367 625 313 625 c 128,-1,1
-30 -221 m 1,16,-1
 -27 -208 l 1,17,18
 60 -164 60 -164 122 -97 c 0,19,20
 153 -63 153 -63 177 -18 c 1,21,22
 113 -18 113 -18 90 13 c 0,23,24
 70 39 70 39 70 73 c 0,25,26
 70 85 70 85 73 99 c 0,27,28
 84 151 84 151 128 188 c 0,29,30
 170 223 170 223 225 223 c 0,31,32
 277 223 277 223 307 189 c 0,33,34
 336 155 336 155 336 107 c 0,35,36
 336 84 336 84 332 69 c 0,37,38
 316 -3 316 -3 257 -76 c 0,39,40
 178 -172 178 -172 60 -209 c 0,41,42
 21 -221 21 -221 -30 -221 c 1,16,-1
EndSplineSet
Validated: 1
EndChar

StartChar: less
Encoding: 60 60 30
Width: 1238
GlyphClass: 2
Flags: W
DStem2: 578 786 309 750 0.852274 -0.523095<0 624.982> 313 765 578 786 0.892504 0.45104<245.985 1033.53>
LayerCount: 2
Fore
SplineSet
1245 1236 m 1,0,-1
 1281 1141 l 1,1,-1
 578 786 l 1,2,-1
 1128 451 l 1,3,-1
 1021 313 l 1,4,-1
 309 750 l 1,5,-1
 313 765 l 1,6,-1
 1245 1236 l 1,0,-1
EndSplineSet
Validated: 1
EndChar

StartChar: equal
Encoding: 61 61 31
Width: 1218
GlyphClass: 2
Flags: W
HStem: 490 150<371 1087> 870 150<452 1168>
LayerCount: 2
Fore
SplineSet
371 640 m 1,0,-1
 1204 640 l 1,1,-1
 1087 490 l 1,2,-1
 254 490 l 1,3,-1
 371 640 l 1,0,-1
452 1020 m 1,4,-1
 1285 1020 l 1,5,-1
 1168 870 l 1,6,-1
 335 870 l 1,7,-1
 452 1020 l 1,4,-1
EndSplineSet
Validated: 1
EndChar

StartChar: greater
Encoding: 62 62 32
Width: 1238
GlyphClass: 2
Flags: W
DStem2: 287 408 323 313 0.892504 0.45104<0 786.657> 547 1236 439 1098 0.851946 -0.523629<0 624.237>
LayerCount: 2
Fore
SplineSet
547 1236 m 1,0,-1
 1258 799 l 1,1,-1
 1255 784 l 1,2,-1
 323 313 l 1,3,-1
 287 408 l 1,4,-1
 989 763 l 1,5,-1
 439 1098 l 1,6,-1
 547 1236 l 1,0,-1
EndSplineSet
Validated: 1
EndChar

StartChar: question
Encoding: 63 63 33
Width: 1235
GlyphClass: 2
Flags: W
HStem: -20 264<491.398 647.041> 1438 92<702.904 1019.07>
VStem: 366 15<1014 1027.64> 436 265<33.5176 189.179> 555 108<320 433.892> 1097 233<1010.99 1356.44>
LayerCount: 2
Fore
SplineSet
542 -20 m 128,-1,1
 488 -20 488 -20 458 18 c 0,2,3
 436 46 436 46 436 83 c 0,4,5
 436 97 436 97 440 112 c 0,6,7
 452 167 452 167 498 205.5 c 128,-1,8
 544 244 544 244 598 244 c 128,-1,9
 652 244 652 244 681 206 c 0,10,11
 701 180 701 180 701 142 c 0,12,13
 701 127 701 127 698 112 c 0,14,15
 686 57 686 57 641 18.5 c 128,-1,0
 596 -20 596 -20 542 -20 c 128,-1,1
920 1530 m 0,16,17
 1128 1530 1128 1530 1239 1417 c 0,18,19
 1330 1325 1330 1325 1330 1196 c 0,20,21
 1330 1153 1330 1153 1320 1107 c 0,22,23
 1275 895 1275 895 1042 735 c 2,24,-1
 897 635 l 2,25,26
 701 500 701 500 663 320 c 1,27,-1
 555 320 l 1,28,29
 608 570 608 570 835 760 c 2,30,-1
 887 804 l 2,31,32
 1050 941 1050 941 1085 1107 c 0,33,34
 1097 1165 1097 1165 1097 1212 c 0,35,36
 1097 1257 1097 1257 1086 1293 c 0,37,38
 1039 1438 1039 1438 879 1438 c 0,39,40
 706 1438 706 1438 563 1285 c 0,41,42
 446 1160 446 1160 381 1014 c 1,43,-1
 366 1014 l 1,44,-1
 436 1346 l 1,45,46
 650 1530 650 1530 920 1530 c 0,16,17
EndSplineSet
Validated: 1
EndChar

StartChar: at
Encoding: 64 64 34
Width: 1444
GlyphClass: 2
Flags: W
HStem: -430 90<595.739 980.027> -20 92<821.178 1033.15> 606 46<1063.16 1173> 1030 90<849.047 1168.23>
VStem: 197 196<-119.525 416.784> 595 187<110.812 402.571> 1219 181<653.547 980.575>
DStem2: 952.186 -430 1132.97 -430 0.207912 0.978148<719.285 1059.27 1096.47 1316.24>
LayerCount: 2
Fore
SplineSet
939 -20 m 0,0,1
 768 -20 768 -20 672 68 c 0,2,3
 595 140 595 140 595 241 c 0,4,5
 595 272 595 272 602 306 c 0,6,7
 635 463 635 463 795 560 c 0,8,9
 946 652 946 652 1183 652 c 1,10,-1
 1211 786 l 2,11,12
 1219 826 1219 826 1219 860 c 0,13,14
 1219 930 1219 930 1183 972 c 0,15,16
 1132 1030 1132 1030 1031 1030 c 0,17,18
 860 1030 860 1030 712 887 c 0,19,20
 487 670 487 670 419 345 c 0,21,22
 393 221 393 221 393 118 c 0,23,24
 393 -67 393 -67 475 -187 c 0,25,26
 579 -340 579 -340 787 -340 c 0,27,28
 959 -340 959 -340 1130 -213 c 1,29,-1
 1181 -276 l 1,30,31
 979 -430 979 -430 723.5 -430 c 128,-1,32
 468 -430 468 -430 331 -276 c 0,33,34
 197 -124 197 -124 197 115 c 0,35,36
 197 221 197 221 224 345 c 0,37,38
 310 747 310 747 595 966 c 0,39,40
 797 1120 797 1120 1078 1120 c 0,41,42
 1231 1120 1231 1120 1316 1048 c 0,43,44
 1400 977 1400 977 1400 863 c 0,45,46
 1400 826 1400 826 1391 785 c 2,47,-1
 1279 257 l 2,48,49
 1277 246 1277 246 1277 236 c 0,50,51
 1277 156 1277 156 1417 109 c 1,52,-1
 1414 95 l 1,53,54
 1142 -20 1142 -20 939 -20 c 0,0,1
1173 606 m 1,55,56
 1029 594 1029 594 917 506 c 0,57,58
 815 426 815 426 791 315 c 0,59,60
 782 273 782 273 782 237 c 0,61,62
 782 181 782 181 804 141 c 0,63,64
 840 72 840 72 935 72 c 0,65,66
 1059 72 1059 72 1098 256 c 2,67,-1
 1173 606 l 1,55,56
EndSplineSet
Validated: 1
EndChar

StartChar: A
Encoding: 65 65 35
Width: 1705
GlyphClass: 2
Flags: W
HStem: 0 15<13 31.5508 461.316 472 1682.19 1695> 545 90<665 1215>
DStem2: 292 250 403 250 0.561439 0.827518<-48.9069 419.287 528.011 1241.38> 1189 1550 1066 1225 0.246743 -0.969081<284.602 893.124 986.017 1344.04>
LayerCount: 2
Fore
SplineSet
10 0 m 1,0,-1
 13 15 l 1,1,2
 162 59 162 59 292 250 c 2,3,-1
 1174 1550 l 1,4,-1
 1189 1550 l 1,5,-1
 1520 250 l 2,6,7
 1569 59 1569 59 1698 15 c 1,8,-1
 1695 0 l 1,9,-1
 1138 0 l 1,10,-1
 1141 15 l 1,11,12
 1295 70 1295 70 1318 169 c 0,13,14
 1321 182 1321 182 1321 196 c 0,15,16
 1321 218 1321 218 1313 250 c 2,17,-1
 1238 545 l 1,18,-1
 604 545 l 1,19,-1
 403 250 l 2,20,21
 372 204 372 204 365 170 c 0,22,23
 362 156 362 156 362 143 c 0,24,25
 362 62 362 62 475 15 c 1,26,-1
 472 0 l 1,27,-1
 10 0 l 1,0,-1
1215 635 m 1,28,-1
 1066 1225 l 1,29,-1
 665 635 l 1,30,-1
 1215 635 l 1,28,-1
EndSplineSet
Validated: 1
EndChar

StartChar: B
Encoding: 66 66 36
Width: 1335
GlyphClass: 2
Flags: W
HStem: -20 92<515.465 858.971> 1439 91<785.264 1074.38>
VStem: 1125 225<350.236 683.281 1097.42 1373.2>
DStem2: 215.76 -20 415.76 -20 0.207912 0.978148<283.336 1326.14>
LayerCount: 2
Fore
SplineSet
474 254 m 2,0,1
 470 235 470 235 470 215 c 0,2,3
 470 155 470 155 515 113 c 0,4,5
 559 72 559 72 667 72 c 0,6,7
 856 72 856 72 993 219 c 0,8,9
 1089 322 1089 322 1116 451 c 0,10,11
 1125 494 1125 494 1125 536 c 0,12,13
 1125 646 1125 646 1045 725 c 0,14,15
 961 809 961 809 791 841 c 1,16,17
 915 891 915 891 988 946 c 0,18,19
 1093 1024 1093 1024 1124 1170 c 0,20,21
 1134 1218 1134 1218 1134 1259 c 0,22,23
 1134 1321 1134 1321 1106 1362 c 0,24,25
 1052 1439 1052 1439 932 1439 c 0,26,27
 850 1439 850 1439 788 1398 c 0,28,29
 705 1343 705 1343 687 1257 c 2,30,-1
 474 254 l 2,0,1
596 -20 m 0,31,32
 302 -20 302 -20 70 92 c 1,33,34
 70 94 70 94 73 106 c 1,35,36
 254 160 254 160 274 254 c 2,37,-1
 487 1257 l 2,38,39
 489 1268 489 1268 489 1278 c 0,40,41
 489 1357 489 1357 349 1405 c 1,42,43
 352 1417 352 1417 352 1419 c 1,44,45
 630 1530 630 1530 925 1530 c 0,46,47
 1189 1530 1189 1530 1288 1400 c 0,48,49
 1341 1329 1341 1329 1341 1243 c 0,50,51
 1341 1211 1341 1211 1334 1178 c 0,52,53
 1306 1045 1306 1045 1174 940 c 0,54,55
 1117 895 1117 895 1045 865 c 1,56,57
 1145 846 1145 846 1224 790 c 0,58,59
 1350 700 1350 700 1350 542 c 0,60,61
 1350 502 1350 502 1342 457 c 0,62,63
 1304 261 1304 261 1087 106 c 0,64,65
 909 -20 909 -20 596 -20 c 0,31,32
EndSplineSet
Validated: 1
EndChar

StartChar: C
Encoding: 67 67 37
Width: 1432
GlyphClass: 2
Flags: W
HStem: -20 92<635.642 1029.94> 1438 92<905.936 1282.1>
VStem: 227 232<313.438 832.871> 1469 15<950 983.225> 1592 15<1514.69 1530>
LayerCount: 2
Fore
SplineSet
785 -20 m 0,0,1
 469 -20 469 -20 313 230 c 0,2,3
 227 367 227 367 227 552 c 0,4,5
 227 647 227 647 250 755 c 0,6,7
 318 1075 318 1075 536 1280 c 0,8,9
 802 1530 802 1530 1117 1530 c 0,10,11
 1247 1530 1247 1530 1333 1479 c 128,-1,12
 1419 1428 1419 1428 1470 1428 c 0,13,14
 1549 1428 1549 1428 1592 1530 c 1,15,-1
 1607 1530 l 1,16,-1
 1484 950 l 1,17,-1
 1469 950 l 1,18,19
 1455 1166 1455 1166 1378 1296 c 0,20,21
 1294 1438 1294 1438 1098 1438 c 0,22,23
 858 1438 858 1438 675 1191 c 0,24,25
 538 1006 538 1006 485 756 c 0,26,27
 459 634 459 634 459 528 c 0,28,29
 459 404 459 404 488 316 c 0,30,31
 570 72 570 72 806 72 c 0,32,33
 1111 72 1111 72 1361 373 c 1,34,-1
 1331 230 l 1,35,36
 1112 -20 1112 -20 785 -20 c 0,0,1
EndSplineSet
Validated: 1
EndChar

StartChar: D
Encoding: 68 68 38
Width: 1454
GlyphClass: 2
Flags: W
HStem: -20 92<515.399 872.98> 1438 92<785.325 1139.58>
VStem: 1320 227<694.456 1201.04>
DStem2: 215.972 -20 415.972 -20 0.207912 0.978148<277.246 1326.1>
LayerCount: 2
Fore
SplineSet
677 72 m 0,0,1
 920 72 920 72 1098 311 c 0,2,3
 1237 497 1237 497 1291 756 c 0,4,5
 1320 894 1320 894 1320 1004 c 0,6,7
 1320 1127 1320 1127 1284 1216 c 0,8,9
 1194 1438 1194 1438 968 1438 c 0,10,11
 859 1438 859 1438 788 1397 c 0,12,13
 707 1350 707 1350 687 1257 c 2,14,-1
 474 253 l 2,15,16
 469 230 469 230 469 209 c 0,17,18
 469 147 469 147 515 113 c 0,19,20
 571 72 571 72 677 72 c 0,0,1
596 -20 m 0,21,22
 300 -20 300 -20 69 91 c 1,23,-1
 72 105 l 1,24,25
 253 159 253 159 274 253 c 2,26,-1
 487 1257 l 2,27,28
 489 1268 489 1268 489 1278 c 0,29,30
 489 1357 489 1357 349 1405 c 1,31,-1
 352 1419 l 1,32,33
 630 1530 630 1530 925 1530 c 0,34,35
 1302 1530 1302 1530 1462 1280 c 0,36,37
 1547 1145 1547 1145 1547 961 c 0,38,39
 1547 865 1547 865 1524 755 c 0,40,41
 1457 438 1457 438 1239 230 c 0,42,43
 977 -20 977 -20 596 -20 c 0,21,22
EndSplineSet
Validated: 1
EndChar

StartChar: E
Encoding: 69 69 39
Width: 1302
GlyphClass: 2
Flags: W
HStem: 0 90<464.969 1043.57> 0 15<53 74.9531> 545 90<555 786.29> 1420 90<730.202 1177.81> 1495 15<371 387.219>
DStem2: 219.861 0 419.861 0 0.207912 0.978148<213.11 598.819 690.803 1357.37>
LayerCount: 2
Fore
SplineSet
50 0 m 1,0,-1
 53 15 l 1,1,2
 233 60 233 60 273 250 c 2,3,-1
 488 1260 l 2,4,5
 496 1298 496 1298 496 1330 c 0,6,7
 496 1459 496 1459 368 1495 c 1,8,-1
 371 1510 l 1,9,-1
 1297 1510 l 1,10,-1
 1415 1188 l 1,11,-1
 1400 1188 l 1,12,13
 1225 1420 1225 1420 970 1420 c 2,14,-1
 760 1420 l 1,15,16
 710 1362 710 1362 688 1260 c 2,17,-1
 555 635 l 1,18,-1
 719 635 l 2,19,20
 933 635 933 635 1164 832 c 1,21,-1
 1179 832 l 1,22,-1
 810 360 l 1,23,-1
 795 360 l 1,24,25
 804 402 804 402 804 434 c 0,26,27
 804 545 804 545 700 545 c 2,28,-1
 536 545 l 1,29,-1
 473 250 l 2,30,31
 463 203 463 203 463 165 c 0,32,33
 463 121 463 121 477 90 c 1,34,-1
 817 90 l 2,35,36
 1072 90 1072 90 1345 322 c 1,37,-1
 1360 322 l 1,38,-1
 1106 0 l 1,39,-1
 50 0 l 1,0,-1
EndSplineSet
Validated: 1
EndChar

StartChar: F
Encoding: 70 70 40
Width: 1172
GlyphClass: 2
Flags: W
HStem: 0 15<53 74.8359 573.781 590> 545 90<555 786.554> 1420 90<730.202 1177.81> 1495 15<371 387.219>
DStem2: 219.861 0 419.861 0 0.207912 0.978148<227.036 598.819 690.803 1357.37>
LayerCount: 2
Fore
SplineSet
50 0 m 1,0,-1
 53 15 l 1,1,2
 232 59 232 59 273 250 c 2,3,-1
 488 1260 l 2,4,5
 496 1298 496 1298 496 1330 c 0,6,7
 496 1459 496 1459 368 1495 c 1,8,-1
 371 1510 l 1,9,-1
 1297 1510 l 1,10,-1
 1415 1188 l 1,11,-1
 1400 1188 l 1,12,13
 1225 1420 1225 1420 970 1420 c 2,14,-1
 760 1420 l 1,15,16
 710 1362 710 1362 688 1260 c 2,17,-1
 555 635 l 1,18,-1
 719 635 l 2,19,20
 934 635 934 635 1164 831 c 1,21,-1
 1179 831 l 1,22,-1
 810 360 l 1,23,-1
 795 360 l 1,24,25
 804 402 804 402 804 434 c 0,26,27
 804 545 804 545 700 545 c 2,28,-1
 536 545 l 1,29,-1
 473 250 l 2,30,31
 465 211 465 211 465 179 c 0,32,33
 465 51 465 51 593 15 c 1,34,-1
 590 0 l 1,35,-1
 50 0 l 1,0,-1
EndSplineSet
Validated: 1
EndChar

StartChar: G
Encoding: 71 71 41
Width: 1520
GlyphClass: 2
Flags: W
HStem: -20 92<636.575 1025.6> 625 15<1066 1082.07 1580.93 1603> 1438 92<905.936 1282.35>
VStem: 227 232<310.939 832.871> 1469 15<950 983.225> 1592 15<1514.69 1530>
DStem2: 1094.34 -20 1295.17 -20 0.207912 0.978148<216.829 489.367>
LayerCount: 2
Fore
SplineSet
788 -20 m 0,0,1
 469 -20 469 -20 313 230 c 0,2,3
 227 367 227 367 227 552 c 0,4,5
 227 647 227 647 250 755 c 0,6,7
 318 1075 318 1075 536 1280 c 0,8,9
 802 1530 802 1530 1117 1530 c 0,10,11
 1247 1530 1247 1530 1333 1479 c 128,-1,12
 1419 1428 1419 1428 1470 1428 c 0,13,14
 1549 1428 1549 1428 1592 1530 c 1,15,-1
 1607 1530 l 1,16,-1
 1484 950 l 1,17,-1
 1469 950 l 1,18,19
 1455 1166 1455 1166 1378 1296 c 0,20,21
 1295 1438 1295 1438 1098 1438 c 0,22,23
 858 1438 858 1438 675 1191 c 0,24,25
 538 1006 538 1006 485 756 c 0,26,27
 459 634 459 634 459 528 c 0,28,29
 459 402 459 402 489 311 c 0,30,31
 570 72 570 72 806 72 c 0,32,33
 1113 72 1113 72 1163 303 c 2,34,-1
 1182 391 l 2,35,36
 1190 428 1190 428 1190 461 c 0,37,38
 1190 589 1190 589 1063 625 c 1,39,-1
 1066 640 l 1,40,-1
 1606 640 l 1,41,-1
 1603 625 l 1,42,43
 1422 580 1422 580 1382 391 c 2,44,-1
 1343 205 l 17,45,46
 1091 -20 1091 -20 788 -20 c 0,0,1
EndSplineSet
Validated: 1
EndChar

StartChar: H
Encoding: 72 72 42
Width: 1487
GlyphClass: 2
Flags: W
HStem: 0 15<53 74.9531 573.781 590 901 922.832 1420.78 1437> 540 100<556 1182> 1495 15<371 387.219 886.047 908 1219 1238.7 1733.05 1755>
DStem2: 219.861 0 419.861 0 0.207912 0.978148<227.036 593.721 695.902 1358.35> 1066.86 0 1266.86 0 0.207912 0.978148<227.036 552.138 654.319 1359.29>
LayerCount: 2
Fore
SplineSet
50 0 m 1,0,-1
 53 15 l 1,1,2
 233 60 233 60 273 250 c 2,3,-1
 488 1260 l 2,4,5
 496 1299 496 1299 496 1331 c 0,6,7
 496 1459 496 1459 368 1495 c 1,8,-1
 371 1510 l 1,9,-1
 911 1510 l 1,10,-1
 908 1495 l 1,11,12
 728 1450 728 1450 688 1260 c 2,13,-1
 556 640 l 1,14,-1
 1203 640 l 1,15,-1
 1335 1260 l 2,16,17
 1343 1299 1343 1299 1343 1332 c 0,18,19
 1343 1460 1343 1460 1216 1495 c 1,20,-1
 1219 1510 l 1,21,-1
 1758 1510 l 1,22,-1
 1755 1495 l 1,23,24
 1575 1450 1575 1450 1535 1260 c 2,25,-1
 1320 250 l 2,26,27
 1312 211 1312 211 1312 179 c 0,28,29
 1312 51 1312 51 1440 15 c 1,30,-1
 1437 0 l 1,31,-1
 898 0 l 1,32,-1
 901 15 l 1,33,34
 1080 60 1080 60 1120 250 c 2,35,-1
 1182 540 l 1,36,-1
 535 540 l 1,37,-1
 473 250 l 2,38,39
 465 211 465 211 465 179 c 0,40,41
 465 51 465 51 593 15 c 1,42,-1
 590 0 l 1,43,-1
 50 0 l 1,0,-1
EndSplineSet
Validated: 1
EndChar

StartChar: I
Encoding: 73 73 43
Width: 640
GlyphClass: 2
Flags: W
HStem: 0 15<53 74.9531 573.781 590> 1495 15<371 387.219 886.047 908>
DStem2: 219.861 0 419.861 0 0.207912 0.978148<227.036 1358.35>
LayerCount: 2
Fore
SplineSet
50 0 m 1,0,1
 53 15 l 1,2,3
 233 60 233 60 273 250 c 2,4,-1
 488 1260 l 2,5,6
 496 1299 496 1299 496 1331 c 0,7,8
 496 1459 496 1459 368 1495 c 1,9,-1
 371 1510 l 1,10,-1
 911 1510 l 1,11,-1
 908 1495 l 1,12,13
 728 1450 728 1450 688 1260 c 2,14,-1
 473 250 l 2,15,16
 465 211 465 211 465 179 c 0,17,18
 465 51 465 51 593 15 c 1,19,-1
 590 0 l 1,20,-1
 50 0 l 1,0,1
EndSplineSet
Validated: 1
EndChar

StartChar: J
Encoding: 74 74 44
Width: 640
GlyphClass: 2
Flags: W
HStem: -430 21G<-98 118.5> 1495 15<371 387.219 886.047 908>
DStem2: 128.601 -430 328.601 -430 0.207912 0.978148<250.566 1797.92>
LayerCount: 2
Fore
SplineSet
371 1510 m 1,0,-1
 911 1510 l 1,1,-1
 908 1495 l 1,2,3
 728 1450 728 1450 688 1260 c 2,4,-1
 420 0 l 2,5,6
 338 -388 338 -388 -101 -430 c 1,7,-1
 -98 -415 l 1,8,9
 159 -289 159 -289 220 0 c 2,10,-1
 488 1260 l 2,11,12
 496 1299 496 1299 496 1331 c 0,13,14
 496 1459 496 1459 368 1495 c 1,15,-1
 371 1510 l 1,0,-1
EndSplineSet
Validated: 1
EndChar

StartChar: K
Encoding: 75 75 45
Width: 1470
GlyphClass: 2
Flags: W
HStem: -283 133<1137.5 1359.18> -40 20G<1491.5 1516> 0 15<53 74.9531 573.931 590> 544 117<662.536 977.937> 1495 15<371 387.219 886.047 908>
DStem2: 159.92 -283 359.707 -283 0.207912 0.978148<519.486 821.65 916.733 1647.59> 542 573 726 632 0.697756 0.716335<170.651 1120.6> 1142 414 938 341 0.184814 -0.982774<-130.976 572.753>
LayerCount: 2
Fore
SplineSet
50 0 m 1,0,-1
 53 15 l 1,1,2
 233 60 233 60 273 249 c 2,3,-1
 488 1260 l 2,4,5
 496 1298 496 1298 496 1331 c 0,6,7
 496 1459 496 1459 368 1495 c 1,8,-1
 371 1510 l 1,9,-1
 911 1510 l 1,10,-1
 908 1495 l 1,11,12
 728 1450 728 1450 688 1260 c 2,13,-1
 542 573 l 1,14,-1
 1218 1267 l 2,15,16
 1281 1332 1281 1332 1290 1379 c 0,17,18
 1293 1395 1293 1395 1293 1408 c 0,19,20
 1293 1472 1293 1472 1220 1495 c 1,21,-1
 1223 1510 l 1,22,-1
 1701 1510 l 1,23,-1
 1698 1495 l 1,24,25
 1486 1411 1486 1411 1339 1260 c 2,26,-1
 726 632 l 1,27,28
 788 661 788 661 854 661 c 0,29,30
 1096 661 1096 661 1142 414 c 2,31,-1
 1227 -38 l 2,32,33
 1248 -150 1248 -150 1334 -150 c 0,34,35
 1391 -150 1391 -150 1433 -112 c 0,36,37
 1477 -72 1477 -72 1506 -20 c 1,38,-1
 1516 -20 l 1,39,40
 1479 -139 1479 -139 1395.5 -211 c 128,-1,41
 1312 -283 1312 -283 1218 -283 c 0,42,43
 1057 -283 1057 -283 1021 -95 c 2,44,-1
 938 341 l 2,45,46
 899 544 899 544 730 544 c 0,47,48
 532 544 532 544 477 270 c 2,49,-1
 473 250 l 2,50,51
 466 215 466 215 466 182 c 0,52,53
 466 52 466 52 593 15 c 1,54,-1
 590 0 l 1,55,-1
 50 0 l 1,0,-1
EndSplineSet
Validated: 1
EndChar

StartChar: L
Encoding: 76 76 46
Width: 1221
GlyphClass: 2
Flags: W
HStem: 0 90<464.969 962.57> 0 15<53 74.9531> 1495 15<371 387.219 886.047 908>
DStem2: 219.861 0 419.861 0 0.207912 0.978148<213.11 1358.35>
LayerCount: 2
Fore
SplineSet
50 0 m 1,0,-1
 53 15 l 1,1,2
 233 60 233 60 273 250 c 2,3,-1
 488 1260 l 2,4,5
 496 1299 496 1299 496 1331 c 0,6,7
 496 1459 496 1459 368 1495 c 1,8,-1
 371 1510 l 1,9,-1
 911 1510 l 1,10,-1
 908 1495 l 1,11,12
 728 1450 728 1450 688 1260 c 2,13,-1
 473 250 l 2,14,15
 463 203 463 203 463 165 c 0,16,17
 463 121 463 121 477 90 c 1,18,-1
 736 90 l 2,19,20
 991 90 991 90 1264 322 c 1,21,-1
 1279 322 l 1,22,-1
 1025 0 l 1,23,-1
 50 0 l 1,0,-1
EndSplineSet
Validated: 1
EndChar

StartChar: M
Encoding: 77 77 47
Width: 2052
GlyphClass: 2
Flags: W
HStem: 0 15<478.137 491 1452 1469.74 2029.71 2044.87>
VStem: 1682 196<130.234 482.749>
DStem2: 279 250 380 250 0.34064 0.940194<-47.8939 914.478> 765 1550 681 1077 0.254945 -0.966955<435.954 1306.16> 1098 287 992 -40 0.556974 0.83053<0 1010.63> 1682 250 1879 250 0.0621871 0.998065<-5.71068 829.569>
LayerCount: 2
Fore
SplineSet
10 0 m 1,0,-1
 13 15 l 17,1,2
 219 84 219 84 279 250 c 2,3,-1
 750 1550 l 1,4,-1
 765 1550 l 1,5,-1
 1098 287 l 1,6,-1
 1945 1550 l 1,7,-1
 1960 1550 l 1,8,-1
 1879 250 l 2,9,10
 1878 234 1878 234 1878 232 c 0,11,12
 1878 80 1878 80 2045 15 c 1,13,14
 2044 9 2044 9 2042 0 c 1,15,-1
 1449 0 l 1,16,-1
 1452 15 l 1,17,18
 1645 73 1645 73 1677 211 c 0,19,20
 1681 229 1681 229 1682 250 c 2,21,-1
 1733 1078 l 1,22,-1
 992 -40 l 1,23,-1
 977 -40 l 1,24,-1
 681 1077 l 1,25,-1
 380 250 l 2,26,27
 372 228 372 228 368 209 c 0,28,29
 363 188 363 188 363 168 c 0,30,31
 363 64 363 64 494 15 c 1,32,-1
 491 0 l 1,33,-1
 10 0 l 1,0,-1
EndSplineSet
Validated: 1
EndChar

StartChar: N
Encoding: 78 78 48
Width: 1505
GlyphClass: 2
Flags: W
HStem: 0 15<53 74.9531 473.781 490> 1495 15<1336 1352.22 1751.05 1773>
DStem2: 211.359 -40 311.359 -40 0.207912 0.978148<247.168 1245.55> 564 1550 566 1158 0.501805 -0.864981<340.076 1381.32> 1177.4 -40 1276 -40 0.207912 0.978148<406.892 1398.05>
LayerCount: 2
Fore
SplineSet
50 0 m 1,0,1
 53 15 l 1,2,3
 233 60 233 60 273 250 c 2,4,-1
 549 1550 l 1,5,-1
 564 1550 l 1,6,-1
 1262 358 l 1,7,-1
 1453 1260 l 2,8,9
 1461 1298 1461 1298 1461 1330 c 0,10,11
 1461 1459 1461 1459 1333 1495 c 1,12,-1
 1336 1510 l 1,13,-1
 1776 1510 l 1,14,-1
 1773 1495 l 1,15,16
 1593 1450 1593 1450 1553 1260 c 2,17,-1
 1276 -40 l 1,18,-1
 1261 -40 l 1,19,-1
 566 1158 l 1,20,-1
 373 250 l 2,21,22
 365 212 365 212 365 179 c 0,23,24
 365 51 365 51 493 15 c 1,25,-1
 490 0 l 1,26,-1
 50 0 l 1,0,1
EndSplineSet
Validated: 1
EndChar

StartChar: P
Encoding: 80 80 49
Width: 1306
GlyphClass: 2
Flags: W
HStem: 0 15<53 74.9531 573.781 590> 490 91<622.546 957.536> 1438 92<782.422 1124.6>
VStem: 1242 222<912.842 1306.71>
DStem2: 220.073 0 419.861 0 0.207912 0.978148<226.992 619.17 779.975 1305.68>
LayerCount: 2
Fore
SplineSet
50 0 m 1,0,-1
 53 15 l 1,1,2
 233 60 233 60 273 249 c 2,3,-1
 487 1257 l 2,4,5
 489 1268 489 1268 489 1278 c 0,6,7
 489 1357 489 1357 349 1405 c 1,8,9
 352 1417 352 1417 352 1419 c 1,10,11
 633 1530 633 1530 899 1530 c 0,12,13
 1218 1530 1218 1530 1361 1385 c 0,14,15
 1464 1280 1464 1280 1464 1128 c 0,16,17
 1464 1074 1464 1074 1452 1016 c 0,18,19
 1404 788 1404 788 1202 635 c 0,20,21
 1012 490 1012 490 768 490 c 0,22,23
 622 490 622 490 540 565 c 1,24,-1
 473 250 l 2,25,26
 465 211 465 211 465 179 c 0,27,28
 465 51 465 51 593 15 c 1,29,-1
 590 0 l 1,30,-1
 50 0 l 1,0,-1
582 762 m 2,31,32
 577 738 577 738 577 721 c 0,33,34
 577 660 577 660 623 622 c 0,35,36
 671 581 671 581 775 581 c 0,37,38
 960 581 960 581 1096 732 c 0,39,40
 1189 835 1189 835 1226 1010 c 0,41,42
 1242 1085 1242 1085 1242 1147 c 0,43,44
 1242 1234 1242 1234 1216 1288 c 0,45,46
 1145 1438 1145 1438 958 1438 c 0,47,48
 854 1438 854 1438 788 1397 c 0,49,50
 706 1346 706 1346 687 1257 c 2,51,-1
 582 762 l 2,31,32
EndSplineSet
Validated: 1
EndChar

StartChar: Q
Encoding: 81 81 50
Width: 1460
GlyphClass: 2
Flags: W
HStem: -258 120<1011.5 1216.17> -40 20G<1329 1351> -20 92<589.426 871.764> 256 120<727.179 937.5> 1438 92<858.756 1191.48>
VStem: 224 221<278.281 803.254> 1336 220<706.988 1231.63>
DStem2: 1046 209 863 155 0.179941 -0.983677<-80.2752 0 175.73 353.484>
LayerCount: 2
Fore
SplineSet
726 -20 m 0,0,1
 495 -20 495 -20 358 134 c 0,2,3
 224 286 224 286 224 525 c 0,4,5
 224 631 224 631 250 755 c 0,6,7
 336 1157 336 1157 622 1376 c 0,8,9
 824 1530 824 1530 1055 1530 c 128,-1,10
 1286 1530 1286 1530 1422 1376 c 0,11,12
 1556 1224 1556 1224 1556 984 c 0,13,14
 1556 878 1556 878 1530 755 c 0,15,16
 1445 353 1445 353 1158 134 c 0,17,18
 1115 101 1115 101 1071 75 c 1,19,-1
 1091 -37 l 2,20,21
 1109 -138 1109 -138 1187 -138 c 0,22,23
 1237 -138 1237 -138 1276.5 -103.5 c 128,-1,24
 1316 -69 1316 -69 1342 -20 c 1,25,-1
 1351 -20 l 1,26,27
 1317 -127 1317 -127 1242.5 -192.5 c 128,-1,28
 1168 -258 1168 -258 1083 -258 c 0,29,30
 940 -258 940 -258 908 -89 c 2,31,-1
 891 2 l 1,32,33
 806 -20 806 -20 726 -20 c 0,0,1
1046 209 m 1,34,35
 1223 384 1223 384 1302 754 c 0,36,37
 1336 914 1336 914 1336 1037 c 0,38,39
 1336 1203 1336 1203 1275 1305 c 0,40,41
 1194 1438 1194 1438 1035.5 1438 c 128,-1,42
 877 1438 877 1438 739 1305 c 0,43,44
 558 1130 558 1130 478 756 c 0,45,46
 445 602 445 602 445 473 c 0,47,48
 445 307 445 307 506 205 c 0,49,50
 587 72 587 72 745 72 c 0,51,52
 811 72 811 72 873 95 c 1,53,-1
 863 155 l 2,54,55
 846 256 846 256 756 256 c 0,56,57
 706 256 706 256 667 221.5 c 128,-1,58
 628 187 628 187 601 138 c 1,59,-1
 592 138 l 1,60,61
 626 245 626 245 701 310.5 c 128,-1,62
 776 376 776 376 861 376 c 0,63,64
 1014 376 1014 376 1046 209 c 1,34,35
EndSplineSet
Validated: 1
EndChar

StartChar: R
Encoding: 82 82 51
Width: 1469
GlyphClass: 2
Flags: W
HStem: -283 133<1136 1357.81> -40 20G<1490 1515> 0 15<53 74.9531 573.781 590> 490 91<624.514 875.187> 1438 92<785.818 1124.6>
VStem: 1242 222<912.842 1306.71>
DStem2: 159.92 -283 359.707 -283 0.207912 0.978148<516.344 908.492 1069.3 1594.94> 1161 313 948 287 0.18522 -0.982697<-156.082 469.638>
LayerCount: 2
Fore
SplineSet
582 762 m 2,0,1
 577 738 577 738 577 721 c 0,2,3
 577 660 577 660 623 622 c 0,4,5
 671 581 671 581 775 581 c 0,6,7
 960 581 960 581 1096 732 c 0,8,9
 1189 835 1189 835 1226 1010 c 0,10,11
 1242 1085 1242 1085 1242 1147 c 0,12,13
 1242 1234 1242 1234 1216 1288 c 0,14,15
 1145 1438 1145 1438 958 1438 c 0,16,17
 854 1438 854 1438 788 1397 c 0,18,19
 706 1346 706 1346 687 1257 c 2,20,-1
 582 762 l 2,0,1
50 0 m 1,21,-1
 53 15 l 1,22,23
 233 60 233 60 273 249 c 2,24,-1
 487 1257 l 2,25,26
 489 1266 489 1266 489 1278 c 0,27,28
 489 1357 489 1357 349 1405 c 1,29,-1
 352 1419 l 1,30,31
 628 1530 628 1530 899 1530 c 0,32,33
 1218 1530 1218 1530 1361 1385 c 0,34,35
 1464 1280 1464 1280 1464 1128 c 0,36,37
 1464 1074 1464 1074 1452 1016 c 0,38,39
 1404 788 1404 788 1202 635 c 0,40,41
 1093 552 1093 552 968 517 c 1,42,43
 1129 487 1129 487 1161 313 c 2,44,-1
 1226 -38 l 2,45,46
 1247 -150 1247 -150 1333 -150 c 0,47,48
 1388 -150 1388 -150 1431.5 -112 c 128,-1,49
 1475 -74 1475 -74 1505 -20 c 1,50,-1
 1515 -20 l 1,51,52
 1478 -139 1478 -139 1394.5 -211 c 128,-1,53
 1311 -283 1311 -283 1217 -283 c 0,54,55
 1055 -283 1055 -283 1020 -95 c 2,56,-1
 948 287 l 2,57,58
 910 490 910 490 768 490 c 0,59,60
 622 490 622 490 540 565 c 1,61,-1
 473 250 l 2,62,63
 465 212 465 212 465 179 c 0,64,65
 465 51 465 51 593 15 c 1,66,-1
 590 0 l 1,67,-1
 50 0 l 1,21,-1
EndSplineSet
Validated: 1
EndChar

StartChar: S
Encoding: 83 83 52
Width: 1243
GlyphClass: 2
Flags: W
HStem: -20 92<433.946 807.997> 1442 88<766.478 1059.43>
VStem: 86 15<-20 -4.38477> 210 15<531.334 566> 438 198<1062.43 1296.26> 1042 217<345.663 614.299> 1174 15<1080 1112.59>
DStem2: 783 987 669 815 0.901318 -0.433158<-158.858 365.289>
LayerCount: 2
Fore
SplineSet
602 -20 m 0,0,1
 444 -20 444 -20 328 45 c 0,2,3
 258 84 258 84 218 84 c 0,4,5
 145 84 145 84 101 -20 c 1,6,-1
 86 -20 l 1,7,-1
 210 566 l 1,8,-1
 225 566 l 1,9,10
 225 340 225 340 316 220 c 0,11,12
 428 72 428 72 623 72 c 0,13,14
 785 72 785 72 914 191 c 0,15,16
 1003 274 1003 274 1032 399 c 0,17,18
 1042 442 1042 442 1042 486 c 0,19,20
 1042 633 1042 633 853 725 c 2,21,-1
 669 815 l 2,22,23
 438 928 438 928 438 1112 c 0,24,25
 438 1167 438 1167 451 1219 c 0,26,27
 482 1341 482 1341 611 1437 c 0,28,29
 734 1530 734 1530 894 1530 c 0,30,31
 988 1530 988 1530 1056 1499 c 0,32,33
 1136 1463 1136 1463 1179 1463 c 0,34,35
 1223 1463 1223 1463 1269 1530 c 1,36,-1
 1284 1530 l 1,37,-1
 1189 1080 l 1,38,-1
 1174 1080 l 1,39,40
 1165 1213 1165 1213 1127 1304 c 0,41,42
 1069 1442 1069 1442 928 1442 c 0,43,44
 821 1442 821 1442 742 1382 c 0,45,46
 658 1318 658 1318 640 1223 c 0,47,48
 636 1202 636 1202 636 1183 c 0,49,50
 636 1058 636 1058 783 987 c 2,51,-1
 989 888 l 2,52,53
 1259 758 1259 758 1259 550 c 0,54,55
 1259 495 1259 495 1248 445 c 0,56,57
 1204 250 1204 250 1013 106 c 0,58,59
 847 -20 847 -20 602 -20 c 0,0,1
EndSplineSet
Validated: 1
EndChar

StartChar: T
Encoding: 84 84 53
Width: 1375
GlyphClass: 2
Flags: W
HStem: 0 15<421 442.953 941.781 958> 1420 90<578.938 864.031 1098.2 1381.13>
DStem2: 587.861 0 787.861 0 0.207912 0.978148<227.036 1371.32>
LayerCount: 2
Fore
SplineSet
418 0 m 1,0,-1
 421 15 l 1,1,2
 601 60 601 60 641 250 c 2,3,-1
 856 1260 l 2,4,5
 866 1307 866 1307 866 1344 c 0,6,7
 866 1388 866 1388 852 1420 c 1,8,-1
 806 1420 l 2,9,10
 550 1420 550 1420 278 1188 c 1,11,-1
 263 1188 l 1,12,-1
 517 1510 l 1,13,-1
 1501 1510 l 1,14,-1
 1618 1188 l 1,15,-1
 1603 1188 l 1,16,17
 1428 1420 1428 1420 1174 1420 c 2,18,-1
 1128 1420 l 1,19,20
 1078 1362 1078 1362 1056 1260 c 2,21,-1
 841 250 l 2,22,23
 833 211 833 211 833 179 c 0,24,25
 833 51 833 51 961 15 c 1,26,-1
 958 0 l 1,27,-1
 418 0 l 1,0,-1
EndSplineSet
Validated: 1
EndChar

StartChar: U
Encoding: 85 85 54
Width: 1487
GlyphClass: 2
Flags: W
HStem: -20 131<629.409 980.829> 1495 15<368.129 387.219 886.047 908 1314.13 1337.05 1733.05 1755>
VStem: 311 200<222.565 556.961>
DStem2: 215.533 -20 415.533 -20 0.207912 0.978148<451.379 1378.81> 1162.53 -20 1262.53 -20 0.207912 0.978148<310.406 1378.81>
LayerCount: 2
Fore
SplineSet
746 -20 m 0,0,1
 514 -20 514 -20 395 122 c 0,2,3
 311 223 311 223 311 368 c 0,4,5
 311 428 311 428 325 495 c 2,6,-1
 488 1260 l 2,7,8
 496 1299 496 1299 496 1331 c 0,9,10
 496 1459 496 1459 368 1495 c 1,11,12
 369 1501 369 1501 371 1510 c 1,13,-1
 911 1510 l 1,14,-1
 908 1495 l 1,15,16
 728 1450 728 1450 688 1260 c 2,17,-1
 525 495 l 2,18,19
 511 430 511 430 511 377 c 0,20,21
 511 280 511 280 557 220 c 0,22,23
 641 111 641 111 808 111 c 0,24,25
 986 111 986 111 1113 218 c 0,26,27
 1235 320 1235 320 1272 495 c 2,28,-1
 1435 1260 l 2,29,30
 1443 1299 1443 1299 1443 1331 c 0,31,32
 1443 1460 1443 1460 1314 1495 c 1,33,34
 1315 1502 1315 1502 1317 1510 c 1,35,-1
 1758 1510 l 1,36,-1
 1755 1495 l 1,37,38
 1575 1450 1575 1450 1535 1260 c 2,39,-1
 1372 495 l 2,40,41
 1324 269 1324 269 1147 123 c 24,42,43
 974 -20 974 -20 746 -20 c 0,0,1
EndSplineSet
Validated: 1
EndChar

StartChar: V
Encoding: 86 86 55
Width: 1705
GlyphClass: 2
Flags: W
HStem: 1495 15<331 343.812 1554 1564.68 1994.45 2013>
DStem2: 708 1260 506 1260 0.246043 -0.969259<-53.5795 1011.86> 956 279 851 -40 0.561875 0.827222<0 1297.49>
LayerCount: 2
Fore
SplineSet
836 -40 m 1,0,-1
 506 1260 l 2,1,2
 457 1451 457 1451 328 1495 c 1,3,-1
 331 1510 l 1,4,-1
 883 1510 l 1,5,-1
 880 1495 l 1,6,7
 724 1439 724 1439 703 1341 c 0,8,9
 700 1329 700 1329 700 1314 c 0,10,11
 700 1290 700 1290 708 1260 c 2,12,-1
 956 279 l 1,13,-1
 1623 1260 l 2,14,15
 1654 1306 1654 1306 1661 1340 c 0,16,17
 1664 1354 1664 1354 1664 1367 c 0,18,19
 1664 1448 1664 1448 1551 1495 c 1,20,-1
 1554 1510 l 1,21,-1
 2016 1510 l 1,22,-1
 2013 1495 l 1,23,24
 1864 1451 1864 1451 1734 1260 c 2,25,-1
 851 -40 l 1,26,-1
 836 -40 l 1,0,-1
EndSplineSet
Validated: 1
EndChar

StartChar: W
Encoding: 87 87 56
Width: 2369
GlyphClass: 2
Flags: W
HStem: 1495 15<331 343.812 2218 2228.68 2658.45 2677>
VStem: 1107 192<1318 1510> 1792 111<1399 1510>
DStem2: 708 1260 506 1260 0.246043 -0.969259<-53.5795 1011.14> 957 280 851 -40 0.56158 0.827423<0 516.649 847.601 1486.65> 1299 1510 1107 1510 0.245771 -0.969328<0 544.493 668.431 710.012 833.704 1281.08> 1613 268 1515 -40 0.561875 0.827222<0 1310.52>
LayerCount: 2
Fore
SplineSet
836 -40 m 1,0,-1
 506 1260 l 2,1,2
 457 1451 457 1451 328 1495 c 1,3,-1
 331 1510 l 1,4,-1
 883 1510 l 1,5,-1
 880 1495 l 1,6,7
 724 1439 724 1439 703 1341 c 0,8,9
 700 1328 700 1328 700 1314 c 0,10,11
 700 1290 700 1290 708 1260 c 2,12,-1
 957 280 l 1,13,-1
 1293 776 l 1,14,-1
 1107 1510 l 1,15,-1
 1299 1510 l 1,16,-1
 1432 982 l 1,17,-1
 1792 1510 l 1,18,-1
 1903 1510 l 1,19,-1
 1463 862 l 1,20,-1
 1613 268 l 1,21,-1
 2287 1260 l 2,22,23
 2318 1305 2318 1305 2325 1340 c 0,24,25
 2328 1354 2328 1354 2328 1367 c 0,26,27
 2328 1448 2328 1448 2215 1495 c 1,28,-1
 2218 1510 l 1,29,-1
 2680 1510 l 1,30,-1
 2677 1495 l 1,31,32
 2528 1451 2528 1451 2398 1260 c 2,33,-1
 1515 -40 l 1,34,-1
 1500 -40 l 1,35,-1
 1323 656 l 1,36,-1
 851 -40 l 1,37,-1
 836 -40 l 1,0,-1
EndSplineSet
Validated: 1
EndChar

StartChar: X
Encoding: 88 88 57
Width: 1533
GlyphClass: 2
Flags: W
HStem: 0 15<530.137 543 909 928.555 1509.44 1523> 1495 15<331 348.809 926.328 946 1309 1321.98 1818.98 1841>
DStem2: 371 250 495 250 0.69964 0.714496<-59.8448 632.671 866.969 1559.5> 977 870 585 1260 0.425581 -0.90492<-526.696 0 165.574 693.627>
LayerCount: 2
Fore
SplineSet
10 0 m 1,0,-1
 13 15 l 1,1,2
 216 92 216 92 371 250 c 2,3,-1
 836 726 l 1,4,-1
 585 1260 l 2,5,6
 497 1448 497 1448 328 1495 c 1,7,-1
 331 1510 l 1,8,-1
 949 1510 l 1,9,-1
 946 1495 l 1,10,11
 784 1445 784 1445 770 1376 c 0,12,13
 768 1366 768 1366 768 1355 c 0,14,15
 768 1315 768 1315 794 1260 c 2,16,-1
 977 870 l 1,17,-1
 1358 1260 l 2,18,19
 1427 1331 1427 1331 1437 1377 c 0,20,21
 1438 1383 1438 1383 1438 1388 c 0,22,23
 1438 1446 1438 1446 1306 1495 c 1,24,-1
 1309 1510 l 1,25,-1
 1844 1510 l 1,26,-1
 1841 1495 l 1,27,28
 1665 1445 1665 1445 1484 1260 c 2,29,-1
 1018 784 l 1,30,-1
 1269 250 l 2,31,32
 1347 85 1347 85 1526 15 c 1,33,-1
 1523 0 l 1,34,-1
 906 0 l 1,35,-1
 909 15 l 1,36,37
 1070 65 1070 65 1085 134 c 0,38,39
 1087 143 1087 143 1087 154 c 0,40,41
 1087 193 1087 193 1060 250 c 2,42,-1
 877 640 l 1,43,-1
 495 250 l 2,44,45
 426 180 426 180 416 134 c 0,46,47
 415 128 415 128 415 123 c 0,48,49
 415 65 415 65 546 15 c 1,50,-1
 543 0 l 1,51,-1
 10 0 l 1,0,-1
EndSplineSet
Validated: 1
EndChar

StartChar: Y
Encoding: 89 89 58
Width: 1595
GlyphClass: 2
Flags: W
HStem: 0 15<531 552.832 1046.3 1066> 1495 15<331 344.008 851.857 873 1438 1453.41>
DStem2: 964 603 526 1260 0.348249 -0.937402<-761.596 0> 696.861 0 896.861 0 0.207912 0.978148<226.148 520.361> 964 603 1005 507 0.622538 0.78259<0 966.583>
LayerCount: 2
Fore
SplineSet
528 0 m 1,0,1
 531 15 l 1,2,3
 710 60 710 60 750 250 c 2,4,-1
 805 509 l 1,5,-1
 526 1260 l 2,6,7
 458 1443 458 1443 328 1495 c 1,8,-1
 331 1510 l 1,9,-1
 876 1510 l 1,10,-1
 873 1495 l 1,11,12
 733 1454 733 1454 713 1352 c 0,13,14
 710 1337 710 1337 710 1322 c 0,15,16
 710 1293 710 1293 722 1260 c 2,17,-1
 964 603 l 1,18,-1
 1487 1260 l 2,19,20
 1525 1308 1525 1308 1535 1353 c 0,21,22
 1538 1366 1538 1366 1538 1382 c 0,23,24
 1538 1461 1538 1461 1435 1495 c 1,25,-1
 1438 1510 l 1,26,-1
 1906 1510 l 1,27,-1
 1903 1495 l 1,28,29
 1748 1441 1748 1441 1604 1260 c 2,30,-1
 1005 507 l 1,31,-1
 950 250 l 2,32,33
 942 213 942 213 942 178 c 0,34,35
 942 50 942 50 1069 15 c 1,36,-1
 1066 0 l 1,37,-1
 528 0 l 1,0,1
EndSplineSet
Validated: 1
EndChar

StartChar: Z
Encoding: 90 90 59
Width: 1336
GlyphClass: 2
Flags: W
HStem: 0 90<342 1069.15> 1420 90<673.656 1227>
DStem2: 20 0 342 90 0.647648 0.761939<277.117 1863.67>
LayerCount: 2
Fore
SplineSet
20 0 m 1,0,-1
 1227 1420 l 1,1,-1
 897 1420 l 2,2,3
 647 1420 647 1420 373 1188 c 1,4,-1
 359 1188 l 1,5,-1
 613 1510 l 1,6,-1
 1549 1510 l 1,7,-1
 342 90 l 1,8,-1
 846 90 l 2,9,10
 1096 90 1096 90 1369 322 c 1,11,-1
 1384 322 l 1,12,-1
 1130 0 l 1,13,-1
 20 0 l 1,0,-1
EndSplineSet
Validated: 1
EndChar

StartChar: bracketleft
Encoding: 91 91 60
Width: 765
GlyphClass: 2
Flags: W
HStem: -200 95<408 672> 1610 100<772 1057>
DStem2: 207 -200 387.807 -200 0.207912 0.978148<134.714 1887.92>
LayerCount: 2
Fore
SplineSet
207 -200 m 1,0,-1
 613 1710 l 1,1,-1
 1078 1710 l 1,2,-1
 1057 1610 l 1,3,-1
 772 1610 l 1,4,-1
 408 -105 l 1,5,-1
 693 -105 l 1,6,-1
 672 -200 l 1,7,-1
 207 -200 l 1,0,-1
EndSplineSet
Validated: 1
EndChar

StartChar: backslash
Encoding: 92 92 61
Width: 1060
GlyphClass: 2
Flags: W
DStem2: 494 1660 350 1599 0.295007 -0.955495<15.8042 1824.14>
LayerCount: 2
Fore
SplineSet
494 1660 m 1,0,-1
 1032 -83 l 1,1,-1
 890 -150 l 1,2,-1
 350 1599 l 1,3,-1
 494 1660 l 1,0,-1
EndSplineSet
Validated: 1
EndChar

StartChar: bracketright
Encoding: 93 93 62
Width: 765
GlyphClass: 2
Flags: W
HStem: -200 95<28 313> 1610 100<413 677>
DStem2: 292.807 -200 472 -200 0.207912 0.978148<97.1224 1850.33>
LayerCount: 2
Fore
SplineSet
7 -200 m 1,0,-1
 28 -105 l 1,1,-1
 313 -105 l 1,2,-1
 677 1610 l 1,3,-1
 392 1610 l 1,4,-1
 413 1710 l 1,5,-1
 878 1710 l 1,6,-1
 472 -200 l 1,7,-1
 7 -200 l 1,0,-1
EndSplineSet
Validated: 1
EndChar

StartChar: asciicircum
Encoding: 94 94 63
Width: 776
GlyphClass: 2
Flags: W
HStem: 1183 367
VStem: 301 676
LayerCount: 2
Fore
SplineSet
639 1550 m 1,0,-1
 795 1550 l 1,1,-1
 977 1183 l 1,2,-1
 801 1183 l 1,3,4
 715 1274 715 1274 715 1493 c 1,5,6
 619 1275 619 1275 477 1183 c 1,7,-1
 301 1183 l 1,8,-1
 639 1550 l 1,0,-1
EndSplineSet
Validated: 1
EndChar

StartChar: underscore
Encoding: 95 95 64
Width: 1233
GlyphClass: 2
Flags: W
HStem: -200 113<196 976>
LayerCount: 2
Fore
SplineSet
196 -87 m 1,0,-1
 1065 -87 l 1,1,-1
 976 -200 l 1,2,-1
 107 -200 l 1,3,-1
 196 -87 l 1,0,-1
EndSplineSet
Validated: 1
EndChar

StartChar: grave
Encoding: 96 96 65
Width: 428
GlyphClass: 2
Flags: W
HStem: 1160 324
VStem: 346 282
LayerCount: 2
Fore
SplineSet
439 1484 m 0,0,1
 503 1484 503 1484 527 1425 c 2,2,-1
 628 1178 l 1,3,-1
 609 1160 l 1,4,-1
 389 1316 l 2,5,6
 346 1346 346 1346 346 1391 c 0,7,8
 346 1429 346 1429 369 1455 c 0,9,10
 395 1484 395 1484 439 1484 c 0,0,1
EndSplineSet
Validated: 1
EndChar

StartChar: a
Encoding: 97 97 66
Width: 1240
GlyphClass: 2
Flags: W
HStem: -20 91<515.291 814.391> 1029 91<692.116 1001.97>
VStem: 191 204<209.546 637.362>
DStem2: 836.185 -20 1015.97 -20 0.207912 0.978148<289.843 944.641>
LayerCount: 2
Fore
SplineSet
674 71 m 0,0,1
 855 71 855 71 894 252 c 2,2,-1
 1020 848 l 2,3,4
 1027 880 1027 880 1027 906 c 0,5,6
 1027 1029 1027 1029 878 1029 c 0,7,8
 683 1029 683 1029 560 875 c 0,9,10
 459 748 459 748 417 550 c 0,11,12
 395 446 395 446 395 367 c 0,13,14
 395 280 395 280 422 225 c 0,15,16
 498 71 498 71 674 71 c 0,0,1
715 -20 m 0,17,18
 419 -20 419 -20 282 141 c 0,19,20
 191 246 191 246 191 406 c 0,21,22
 191 473 191 473 207 550 c 0,23,24
 262 809 262 809 456 959 c 0,25,26
 664 1120 664 1120 957 1120 c 0,27,28
 1196 1120 1196 1120 1404 1009 c 1,29,-1
 1401 995 l 1,30,31
 1223 958 1223 958 1200 847 c 2,32,-1
 1074 253 l 2,33,34
 1071 239 1071 239 1071 226 c 0,35,36
 1071 138 1071 138 1212 105 c 1,37,-1
 1209 91 l 1,38,39
 954 -20 954 -20 715 -20 c 0,17,18
EndSplineSet
Validated: 1
EndChar

StartChar: b
Encoding: 98 98 67
Width: 1240
GlyphClass: 2
Flags: W
HStem: -20 91<472.021 781.884> 1029 91<656.818 958.339> 1510 20G<634.5 720.779>
VStem: 1080 203<465.481 890.454>
DStem2: 215.972 -20 396.185 -20 0.207912 0.978148<258.154 1072.91 1195.78 1339.34>
LayerCount: 2
Fore
SplineSet
596 71 m 0,0,1
 791 71 791 71 914 225 c 0,2,3
 1015 352 1015 352 1057 550 c 0,4,5
 1080 653 1080 653 1080 731 c 0,6,7
 1080 818 1080 818 1052 875 c 0,8,9
 978 1029 978 1029 798.5 1029 c 128,-1,10
 619 1029 619 1029 580 848 c 2,11,-1
 454 252 l 2,12,13
 447 220 447 220 447 194 c 0,14,15
 447 71 447 71 596 71 c 0,0,1
517 -20 m 0,16,17
 278 -20 278 -20 69 91 c 1,18,-1
 72 105 l 1,19,20
 250 142 250 142 274 253 c 2,21,-1
 489 1264 l 2,22,23
 492 1278 492 1278 492 1291 c 0,24,25
 492 1379 492 1379 350 1412 c 1,26,-1
 353 1426 l 1,27,28
 544 1509 544 1509 725 1530 c 9,29,-1
 637 1113 l 1,30,31
 698 1120 698 1120 759 1120 c 0,32,33
 1052 1120 1052 1120 1192 959 c 0,34,35
 1283 854 1283 854 1283 694 c 0,36,37
 1283 627 1283 627 1267 550 c 0,38,39
 1212 291 1212 291 1018 141 c 0,40,41
 810 -20 810 -20 517 -20 c 0,16,17
EndSplineSet
Validated: 1
EndChar

StartChar: c
Encoding: 99 99 68
Width: 1196
GlyphClass: 2
Flags: W
HStem: -20 91<509.798 872.032> 1029 91<695.248 1029.11>
VStem: 192 210<214.507 642.709> 1166 15<634 668.267> 1269 15<1109.34 1120>
LayerCount: 2
Fore
SplineSet
652 -20 m 0,0,1
 407 -20 407 -20 282 141 c 0,2,3
 192 257 192 257 192 414 c 0,4,5
 192 478 192 478 207 550 c 0,6,7
 260 801 260 801 456 959 c 0,8,9
 655 1120 655 1120 884 1120 c 0,10,11
 993 1120 993 1120 1065 1068 c 0,12,13
 1118 1032 1118 1032 1167 1032 c 0,14,15
 1220 1032 1220 1032 1269 1120 c 1,16,-1
 1284 1120 l 1,17,-1
 1181 634 l 1,18,-1
 1166 634 l 1,19,20
 1151 793 1151 793 1091 909 c 0,21,22
 1030 1029 1030 1029 875 1029 c 0,23,24
 688 1029 688 1029 565 875 c 0,25,26
 464 748 464 748 422 550 c 0,27,28
 402 457 402 457 402 379 c 0,29,30
 402 292 402 292 427 225 c 0,31,32
 484 71 484 71 671 71 c 0,33,34
 919 71 919 71 1113 316 c 1,35,-1
 1084 179 l 1,36,37
 906 -20 906 -20 652 -20 c 0,0,1
EndSplineSet
Validated: 1
EndChar

StartChar: d
Encoding: 100 100 69
Width: 1240
GlyphClass: 2
Flags: W
HStem: -20 91<514.749 814.391> 1029 91<692.116 1002.44> 1510 20G<1254.5 1340.76>
VStem: 191 204<209.546 637.362>
DStem2: 836.185 -20 1015.97 -20 0.207912 0.978148<289.843 944.641 1153.22 1339.3>
LayerCount: 2
Fore
SplineSet
715 -20 m 0,0,1
 422 -20 422 -20 282 141 c 0,2,3
 191 246 191 246 191 406 c 0,4,5
 191 473 191 473 207 550 c 0,6,7
 262 809 262 809 456 959 c 0,8,9
 664 1120 664 1120 957 1120 c 0,10,11
 1018 1120 1018 1120 1077 1113 c 1,12,-1
 1109 1264 l 2,13,14
 1112 1278 1112 1278 1112 1291 c 0,15,16
 1112 1379 1112 1379 970 1412 c 1,17,-1
 973 1426 l 1,18,19
 1164 1509 1164 1509 1345 1530 c 1,20,-1
 1074 253 l 2,21,22
 1071 239 1071 239 1071 226 c 0,23,24
 1071 138 1071 138 1212 105 c 1,25,-1
 1209 91 l 1,26,27
 954 -20 954 -20 715 -20 c 0,0,1
674 71 m 128,-1,29
 855 71 855 71 894 252 c 2,30,-1
 1020 848 l 2,31,32
 1027 880 1027 880 1027 906 c 0,33,34
 1027 1029 1027 1029 878 1029 c 0,35,36
 683 1029 683 1029 560 875 c 0,37,38
 459 748 459 748 417 550 c 0,39,40
 395 448 395 448 395 370 c 0,41,42
 395 283 395 283 422 225 c 0,43,28
 493 71 493 71 674 71 c 128,-1,29
EndSplineSet
Validated: 1
EndChar

StartChar: f
Encoding: 102 102 70
Width: 1002
GlyphClass: 2
Flags: W
HStem: 0 15<53 74.9531 553.781 570> 653 90<558 752.95> 1439 91<746.521 1055.43>
DStem2: 219.861 0 399.861 0 0.207912 0.978148<222.878 705.083 797.067 1311.71>
LayerCount: 2
Fore
SplineSet
50 0 m 1,0,-1
 53 15 l 1,1,2
 233 61 233 61 273 250 c 2,3,-1
 487 1257 l 2,4,5
 490 1271 490 1271 490 1284 c 0,6,7
 490 1372 490 1372 349 1405 c 1,8,-1
 352 1419 l 1,9,10
 608 1530 608 1530 846 1530 c 0,11,12
 1136 1530 1136 1530 1272 1364 c 1,13,-1
 1197 1012 l 1,14,-1
 1182 1012 l 1,15,16
 1182 1196 1182 1196 1144 1285 c 0,17,18
 1078 1439 1078 1439 887 1439 c 0,19,20
 705 1439 705 1439 667 1258 c 2,21,-1
 558 743 l 1,22,-1
 786 743 l 2,23,24
 876 743 876 743 991 836 c 1,25,-1
 1006 836 l 1,26,-1
 764 542 l 1,27,-1
 749 542 l 1,28,29
 754 570 754 570 754 592 c 0,30,31
 754 653 754 653 711 653 c 2,32,-1
 539 653 l 1,33,-1
 453 250 l 2,34,35
 445 211 445 211 445 179 c 0,36,37
 445 51 445 51 573 15 c 1,38,-1
 570 0 l 1,39,-1
 50 0 l 1,0,-1
EndSplineSet
Validated: 1
EndChar

StartChar: h
Encoding: 104 104 71
Width: 1305
GlyphClass: 2
Flags: W
HStem: -20 21G<940.246 1030> 0 15<53 74.9531 553.781 570> 1029 91<657.017 963.409> 1510 20G<634.5 720.779>
VStem: 1078 183<441.938 907.088>
DStem2: 215.61 -20 395.61 -20 0.207912 0.978148<243.325 1073.07 1195.85 1339.42> 936 -20 1120.46 -20 0.207912 0.978148<283.658 755.854>
LayerCount: 2
Fore
SplineSet
50 0 m 1,0,-1
 53 15 l 1,1,2
 233 61 233 61 273 250 c 2,3,-1
 489 1264 l 2,4,5
 492 1278 492 1278 492 1291 c 0,6,7
 492 1379 492 1379 350 1412 c 1,8,-1
 353 1426 l 1,9,10
 544 1509 544 1509 725 1530 c 1,11,-1
 637 1113 l 1,12,13
 698 1120 698 1120 759 1120 c 0,14,15
 1049 1120 1049 1120 1185 954 c 0,16,17
 1261 861 1261 861 1261 712 c 0,18,19
 1261 638 1261 638 1242 550 c 2,20,-1
 1177 246 l 2,21,22
 1174 232 1174 232 1174 219 c 0,23,24
 1174 131 1174 131 1316 98 c 1,25,-1
 1313 84 l 1,26,27
 1124 2 1124 2 936 -20 c 1,28,-1
 1057 550 l 2,29,30
 1078 647 1078 647 1078 725 c 0,31,32
 1078 812 1078 812 1052 875 c 0,33,34
 988 1029 988 1029 800 1029 c 0,35,36
 619 1029 619 1029 580 848 c 2,37,-1
 453 250 l 2,38,39
 445 211 445 211 445 179 c 0,40,41
 445 51 445 51 573 15 c 1,42,-1
 570 0 l 1,43,-1
 50 0 l 1,0,-1
EndSplineSet
Validated: 1
EndChar

StartChar: i
Encoding: 105 105 72
Width: 620
GlyphClass: 2
Flags: W
HStem: 0 15<53 74.9531 553.781 570> 1100 20G<547.5 633.747> 1180 264<492.398 648.041>
VStem: 437 265<1233.52 1389.18>
DStem2: 219.861 0 399.861 0 0.207912 0.978148<222.878 899.843>
LayerCount: 2
Fore
SplineSet
599 1444 m 128,-1,1
 653 1444 653 1444 682 1406 c 0,2,3
 702 1380 702 1380 702 1342 c 0,4,5
 702 1327 702 1327 699 1312 c 0,6,7
 687 1257 687 1257 642 1218.5 c 128,-1,8
 597 1180 597 1180 543 1180 c 128,-1,9
 489 1180 489 1180 459 1218 c 0,10,11
 437 1246 437 1246 437 1283 c 0,12,13
 437 1297 437 1297 441 1312 c 0,14,15
 453 1367 453 1367 499 1405.5 c 128,-1,0
 545 1444 545 1444 599 1444 c 128,-1,1
50 0 m 1,16,-1
 53 15 l 1,17,18
 233 60 233 60 273 250 c 2,19,-1
 402 854 l 2,20,21
 405 868 405 868 405 881 c 0,22,23
 405 969 405 969 263 1002 c 1,24,-1
 266 1016 l 1,25,26
 457 1099 457 1099 638 1120 c 1,27,-1
 453 250 l 2,28,29
 445 211 445 211 445 179 c 0,30,31
 445 51 445 51 573 15 c 1,32,-1
 570 0 l 1,33,-1
 50 0 l 1,16,-1
EndSplineSet
Validated: 1
EndChar

StartChar: j
Encoding: 106 106 73
Width: 620
GlyphClass: 2
Flags: W
HStem: -430 21G<-98 108.5> 1100 20G<547.5 633.75> 1180 264<492.398 648.041>
VStem: 437 265<1233.52 1389.18>
DStem2: 128.601 -430 308.601 -430 0.207912 0.978148<245.676 1339.42>
LayerCount: 2
Fore
SplineSet
599 1444 m 128,-1,1
 653 1444 653 1444 682 1406 c 0,2,3
 702 1380 702 1380 702 1342 c 0,4,5
 702 1327 702 1327 699 1312 c 0,6,7
 687 1257 687 1257 642 1218.5 c 128,-1,8
 597 1180 597 1180 543 1180 c 128,-1,9
 489 1180 489 1180 459 1218 c 0,10,11
 437 1246 437 1246 437 1283 c 0,12,13
 437 1297 437 1297 441 1312 c 0,14,15
 453 1367 453 1367 499 1405.5 c 128,-1,0
 545 1444 545 1444 599 1444 c 128,-1,1
-101 -430 m 1,16,-1
 -98 -415 l 1,17,18
 159 -289 159 -289 220 0 c 2,19,-1
 402 854 l 2,20,21
 405 868 405 868 405 881 c 0,22,23
 405 969 405 969 263 1002 c 1,24,-1
 266 1016 l 1,25,26
 457 1099 457 1099 638 1120 c 1,27,-1
 400 0 l 2,28,29
 318 -388 318 -388 -101 -430 c 1,16,-1
EndSplineSet
Validated: 1
EndChar

StartChar: l
Encoding: 108 108 74
Width: 620
GlyphClass: 2
Flags: W
HStem: 0 15<53 74.9531 553.781 570> 1510 20G<634.5 720.75>
VStem: 50 675
DStem2: 219.861 0 399.861 0 0.207912 0.978148<222.878 1318.97>
LayerCount: 2
Fore
SplineSet
50 0 m 1,0,-1
 53 15 l 1,1,2
 233 60 233 60 273 250 c 2,3,-1
 489 1264 l 2,4,5
 492 1278 492 1278 492 1291 c 0,6,7
 492 1379 492 1379 350 1412 c 1,8,-1
 353 1426 l 1,9,10
 544 1509 544 1509 725 1530 c 1,11,-1
 453 250 l 2,12,13
 445 211 445 211 445 179 c 0,14,15
 445 51 445 51 573 15 c 1,16,-1
 570 0 l 1,17,-1
 50 0 l 1,0,-1
EndSplineSet
Validated: 1
EndChar

StartChar: m
Encoding: 109 109 75
Width: 2010
GlyphClass: 2
Flags: W
HStem: -20 21G<1645.25 1735> 0 15<53 74.9531 553.781 570 778 799.953 1275.12 1295> 1029 91<659.339 966.074 1383.06 1670.57>
VStem: 1784 181<444.312 906.081>
DStem2: 215.61 -20 395.61 -20 0.207912 0.978148<243.325 913.027> 940.61 -20 1120.61 -20 0.207912 0.978148<243.325 759.816> 1641 -20 1825.46 -20 0.207912 0.978148<283.658 762.877>
LayerCount: 2
Fore
SplineSet
50 0 m 1,0,-1
 53 15 l 1,1,2
 233 61 233 61 273 250 c 2,3,-1
 400 847 l 2,4,5
 403 861 403 861 403 874 c 0,6,7
 403 962 403 962 261 995 c 1,8,-1
 264 1009 l 1,9,10
 520 1120 520 1120 759 1120 c 0,11,12
 1033 1120 1033 1120 1171 972 c 1,13,14
 1270 1120 1270 1120 1484 1120 c 0,15,16
 1762 1120 1762 1120 1890 954 c 0,17,18
 1965 856 1965 856 1965 708 c 0,19,20
 1965 635 1965 635 1947 550 c 2,21,-1
 1882 246 l 2,22,23
 1879 232 1879 232 1879 219 c 0,24,25
 1879 131 1879 131 2021 98 c 1,26,-1
 2018 84 l 1,27,28
 1829 2 1829 2 1641 -20 c 1,29,-1
 1762 550 l 2,30,31
 1784 653 1784 653 1784 732 c 0,32,33
 1784 819 1784 819 1757 875 c 0,34,35
 1685 1029 1685 1029 1523 1029 c 0,36,37
 1343 1029 1343 1029 1305 848 c 2,38,-1
 1178 250 l 2,39,40
 1170 211 1170 211 1170 179 c 0,41,42
 1170 50 1170 50 1298 15 c 1,43,-1
 1295 0 l 1,44,-1
 775 0 l 1,45,-1
 778 15 l 1,46,47
 958 61 958 61 998 250 c 2,48,-1
 1062 550 l 2,49,50
 1083 650 1083 650 1083 729 c 0,51,52
 1083 816 1083 816 1057 875 c 0,53,54
 988 1029 988 1029 800 1029 c 0,55,56
 618 1029 618 1029 580 848 c 2,57,-1
 453 250 l 2,58,59
 445 211 445 211 445 179 c 0,60,61
 445 51 445 51 573 15 c 1,62,-1
 570 0 l 1,63,-1
 50 0 l 1,0,-1
EndSplineSet
Validated: 1
EndChar

StartChar: n
Encoding: 110 110 76
Width: 1305
GlyphClass: 2
Flags: W
HStem: -20 21G<940.246 1030> 0 15<53 74.9531 553.781 570> 1029 91<659.589 957.06>
VStem: 1079 182<444.312 907.088>
DStem2: 215.61 -20 395.61 -20 0.207912 0.978148<243.325 913.027> 936 -20 1120.46 -20 0.207912 0.978148<283.658 762.877>
LayerCount: 2
Fore
SplineSet
50 0 m 1,0,-1
 53 15 l 1,1,2
 233 61 233 61 273 250 c 2,3,-1
 400 847 l 2,4,5
 403 861 403 861 403 874 c 0,6,7
 403 962 403 962 261 995 c 1,8,-1
 264 1009 l 1,9,10
 520 1120 520 1120 759 1120 c 0,11,12
 1049 1120 1049 1120 1185 954 c 0,13,14
 1261 861 1261 861 1261 712 c 0,15,16
 1261 638 1261 638 1242 550 c 2,17,-1
 1177 246 l 2,18,19
 1174 232 1174 232 1174 219 c 0,20,21
 1174 131 1174 131 1316 98 c 1,22,-1
 1313 84 l 1,23,24
 1124 2 1124 2 936 -20 c 1,25,-1
 1057 550 l 2,26,27
 1079 653 1079 653 1079 732 c 0,28,29
 1079 819 1079 819 1052 875 c 0,30,31
 977 1029 977 1029 800 1029 c 0,32,33
 619 1029 619 1029 580 848 c 2,34,-1
 453 250 l 2,35,36
 445 211 445 211 445 179 c 0,37,38
 445 51 445 51 573 15 c 1,39,-1
 570 0 l 1,40,-1
 50 0 l 1,0,-1
EndSplineSet
Validated: 1
EndChar

StartChar: o
Encoding: 111 111 77
Width: 1220
GlyphClass: 2
Flags: W
HStem: -20 91<484.467 785.432> 1029 91<668.81 969.533>
VStem: 189 203<198.381 630.975> 1061 204<465.782 901.589>
LayerCount: 2
Fore
SplineSet
606 -20 m 128,-1,1
 410 -20 410 -20 289 116 c 0,2,3
 189 228 189 228 189 398 c 0,4,5
 189 469 189 469 207 550 c 0,6,7
 265 826 265 826 473 984 c 0,8,9
 652 1120 652 1120 848 1120 c 128,-1,10
 1044 1120 1044 1120 1165 984 c 0,11,12
 1265 872 1265 872 1265 702 c 0,13,14
 1265 631 1265 631 1247 550 c 0,15,16
 1189 274 1189 274 981 116 c 0,17,0
 802 -20 802 -20 606 -20 c 128,-1,1
625 71 m 128,-1,19
 770 71 770 71 880 193 c 0,20,21
 987 312 987 312 1037 550 c 0,22,23
 1061 663 1061 663 1061 749 c 0,24,25
 1061 844 1061 844 1032 907 c 0,26,27
 974 1029 974 1029 829 1029 c 0,28,29
 685 1029 685 1029 574 907 c 0,30,31
 467 789 467 789 416 550 c 0,32,33
 392 437 392 437 392 351 c 0,34,35
 392 255 392 255 422 193 c 0,36,18
 480 71 480 71 625 71 c 128,-1,19
EndSplineSet
Validated: 1
EndChar

StartChar: p
Encoding: 112 112 78
Width: 1240
VWidth: 1638
GlyphClass: 2
Flags: W
HStem: -410 15<-34 -12.0469 466.781 483> -20 91<471.561 781.884> 1029 91<659.589 963.661>
VStem: 1078 205<462.638 890.454>
DStem2: 132.861 -410 312.861 -410 0.207912 0.978148<222.878 448.328 656.911 1311.71>
LayerCount: 2
Fore
SplineSet
596 71 m 0,0,1
 791 71 791 71 914 225 c 0,2,3
 1015 352 1015 352 1057 550 c 0,4,5
 1078 650 1078 650 1078 728 c 0,6,7
 1078 815 1078 815 1052 875 c 0,8,9
 984 1029 984 1029 800 1029 c 0,10,11
 619 1029 619 1029 580 848 c 2,12,-1
 454 252 l 2,13,14
 447 220 447 220 447 194 c 0,15,16
 447 71 447 71 596 71 c 0,0,1
-37 -410 m 1,17,-1
 -34 -395 l 1,18,19
 146 -350 146 -350 186 -160 c 2,20,-1
 400 847 l 2,21,22
 403 861 403 861 403 874 c 0,23,24
 403 962 403 962 261 995 c 1,25,-1
 264 1009 l 1,26,27
 520 1120 520 1120 759 1120 c 0,28,29
 1052 1120 1052 1120 1192 959 c 0,30,31
 1283 854 1283 854 1283 694 c 0,32,33
 1283 627 1283 627 1267 550 c 0,34,35
 1212 291 1212 291 1018 141 c 0,36,37
 810 -20 810 -20 517 -20 c 0,38,39
 456 -20 456 -20 397 -13 c 1,40,-1
 366 -160 l 2,41,42
 358 -199 358 -199 358 -231 c 0,43,44
 358 -359 358 -359 486 -395 c 1,45,-1
 483 -410 l 1,46,-1
 -37 -410 l 1,17,-1
EndSplineSet
Validated: 1
EndChar

StartChar: q
Encoding: 113 113 79
Width: 1240
GlyphClass: 2
Flags: W
HStem: -430 21G<753.221 839.5> -20 91<507.351 816.983> 1029 91<692.116 1001.97>
VStem: 191 206<209.546 643.928>
DStem2: 748.364 -430 928.46 -430 0.207912 0.978148<282.751 426.316 549.103 1363.94>
LayerCount: 2
Fore
SplineSet
674 71 m 0,0,1
 855 71 855 71 894 252 c 2,2,-1
 1020 848 l 2,3,4
 1027 880 1027 880 1027 906 c 0,5,6
 1027 1029 1027 1029 878 1029 c 0,7,8
 683 1029 683 1029 560 875 c 0,9,10
 459 748 459 748 417 550 c 0,11,12
 397 457 397 457 397 379 c 0,13,14
 397 292 397 292 422 225 c 0,15,16
 478 71 478 71 674 71 c 0,0,1
957 1120 m 0,17,18
 1196 1120 1196 1120 1404 1009 c 1,19,-1
 1401 995 l 1,20,21
 1223 958 1223 958 1200 847 c 2,22,-1
 985 -164 l 2,23,24
 982 -178 982 -178 982 -191 c 0,25,26
 982 -279 982 -279 1124 -312 c 1,27,-1
 1121 -326 l 1,28,29
 930 -409 930 -409 749 -430 c 9,30,-1
 837 -13 l 1,31,32
 776 -20 776 -20 715 -20 c 0,33,34
 422 -20 422 -20 282 141 c 0,35,36
 191 246 191 246 191 406 c 0,37,38
 191 473 191 473 207 550 c 0,39,40
 262 809 262 809 456 959 c 0,41,42
 664 1120 664 1120 957 1120 c 0,17,18
EndSplineSet
Validated: 1
EndChar

StartChar: r
Encoding: 114 114 80
Width: 1002
GlyphClass: 2
Flags: W
HStem: 0 15<53 74.9531 553.781 570> 1029 91<659.589 963.367>
VStem: 1095 15<602 636.515>
DStem2: 219.861 0 399.861 0 0.207912 0.978148<222.878 892.58>
LayerCount: 2
Fore
SplineSet
50 0 m 1,0,-1
 53 15 l 1,1,2
 233 61 233 61 273 250 c 2,3,-1
 400 847 l 2,4,5
 403 861 403 861 403 874 c 0,6,7
 403 962 403 962 261 995 c 1,8,-1
 264 1009 l 1,9,10
 520 1120 520 1120 759 1120 c 0,11,12
 1049 1120 1049 1120 1185 954 c 1,13,-1
 1110 602 l 1,14,-1
 1095 602 l 1,15,16
 1095 791 1095 791 1057 875 c 0,17,18
 985 1029 985 1029 800 1029 c 0,19,20
 619 1029 619 1029 580 848 c 2,21,-1
 453 250 l 2,22,23
 445 211 445 211 445 179 c 0,24,25
 445 51 445 51 573 15 c 1,26,-1
 570 0 l 1,27,-1
 50 0 l 1,0,-1
EndSplineSet
Validated: 1
EndChar

StartChar: s
Encoding: 115 115 81
Width: 990
GlyphClass: 2
Flags: W
HStem: -20 86<338.997 638.125> 1037 83<594.955 840.628>
VStem: 86 15<-20 -4.98828> 186 15<421.517 453> 360 175<780.188 964.813> 790 187<228.579 460.565> 913 15<768 800.527> 988 15<1108.28 1120>
DStem2: 641 735 525 589 0.892098 -0.451842<-131.909 269.736>
LayerCount: 2
Fore
SplineSet
468 -20 m 0,0,1
 351 -20 351 -20 257 39 c 0,2,3
 217 64 217 64 192 64 c 0,4,5
 140 64 140 64 101 -20 c 1,6,-1
 86 -20 l 1,7,-1
 186 453 l 1,8,-1
 201 453 l 1,9,10
 201 247 201 247 282.5 156.5 c 128,-1,11
 364 66 364 66 488 66 c 0,12,13
 595 66 595 66 686 141 c 0,14,15
 766 207 766 207 785 304 c 0,16,17
 790 328 790 328 790 349 c 0,18,19
 790 455 790 455 679 511 c 2,20,-1
 525 589 l 2,21,22
 360 672 360 672 360 815 c 0,23,24
 360 837 360 837 364 860 c 0,25,26
 384 984 384 984 502 1057 c 0,27,28
 600 1120 600 1120 706 1120 c 0,29,30
 788 1120 788 1120 843 1090 c 0,31,32
 880 1070 880 1070 912 1070 c 0,33,34
 961 1070 961 1070 988 1120 c 1,35,-1
 1003 1120 l 1,36,-1
 928 768 l 1,37,-1
 913 768 l 1,38,39
 913 874 913 874 871 955.5 c 128,-1,40
 829 1037 829 1037 718 1037 c 0,41,42
 653 1037 653 1037 606 1005 c 0,43,44
 550 967 550 967 538 901 c 0,45,46
 535 887 535 887 535 874 c 0,47,48
 535 790 535 790 641 735 c 2,49,-1
 780 663 l 2,50,51
 977 561 977 561 977 394 c 0,52,53
 977 368 977 368 972 341 c 0,54,55
 945 182 945 182 789 78 c 0,56,57
 645 -20 645 -20 468 -20 c 0,0,1
EndSplineSet
Validated: 1
EndChar

StartChar: t
Encoding: 116 116 82
Width: 886
GlyphClass: 2
Flags: W
HStem: 0 15<191 212.953 681.781 698> 1010 90<457.074 573 762 876.95> 1510 20G<767.5 848.767>
DStem2: 357.861 0 527.861 0 0.207912 0.978148<220.799 1032.66 1159.99 1318.97>
LayerCount: 2
Fore
SplineSet
188 0 m 1,0,-1
 191 15 l 1,1,2
 371 60 371 60 411 250 c 2,3,-1
 573 1010 l 1,4,-1
 425 1010 l 2,5,6
 335 1010 335 1010 220 917 c 1,7,-1
 205 917 l 1,8,-1
 446 1211 l 1,9,-1
 461 1211 l 1,10,11
 456 1183 456 1183 456 1162 c 0,12,13
 456 1100 456 1100 500 1100 c 2,14,-1
 592 1100 l 1,15,-1
 627 1264 l 2,16,17
 630 1278 630 1278 630 1291 c 0,18,19
 630 1379 630 1379 488 1412 c 1,20,-1
 491 1426 l 1,21,22
 682 1510 682 1510 853 1530 c 1,23,-1
 762 1100 l 1,24,-1
 910 1100 l 2,25,26
 1000 1100 1000 1100 1115 1193 c 1,27,-1
 1130 1193 l 1,28,-1
 888 899 l 1,29,-1
 873 899 l 1,30,31
 878 927 878 927 878 949 c 0,32,33
 878 1010 878 1010 835 1010 c 2,34,-1
 743 1010 l 1,35,-1
 581 250 l 2,36,37
 573 211 573 211 573 179 c 0,38,39
 573 51 573 51 701 15 c 1,40,-1
 698 0 l 1,41,-1
 188 0 l 1,0,-1
EndSplineSet
Validated: 1
EndChar

StartChar: u
Encoding: 117 117 83
Width: 1305
GlyphClass: 2
Flags: W
HStem: -20 91<576.587 879.391> 1100 20G<509 598.754 1232.5 1318.76>
VStem: 278 183<192.912 658.062>
DStem2: 175.843 -20 360.843 -20 0.207912 0.978148<445.112 920.241> 901.185 -20 1080.97 -20 0.207912 0.978148<289.843 920.17>
LayerCount: 2
Fore
SplineSet
780 -20 m 0,0,1
 490 -20 490 -20 354 146 c 0,2,3
 278 239 278 239 278 388 c 0,4,5
 278 462 278 462 297 550 c 2,6,-1
 362 854 l 2,7,8
 365 868 365 868 365 881 c 0,9,10
 365 969 365 969 223 1002 c 1,11,-1
 226 1016 l 1,12,13
 415 1098 415 1098 603 1120 c 1,14,-1
 482 550 l 2,15,16
 461 450 461 450 461 372 c 0,17,18
 461 285 461 285 487 225 c 0,19,20
 555 71 555 71 739 71 c 0,21,22
 920 71 920 71 959 252 c 2,23,-1
 1087 854 l 2,24,25
 1090 868 1090 868 1090 881 c 0,26,27
 1090 969 1090 969 948 1002 c 1,28,-1
 951 1016 l 1,29,30
 1142 1099 1142 1099 1323 1120 c 9,31,-1
 1139 253 l 2,32,33
 1136 239 1136 239 1136 226 c 0,34,35
 1136 138 1136 138 1277 105 c 1,36,-1
 1274 91 l 1,37,38
 1019 -20 1019 -20 780 -20 c 0,0,1
EndSplineSet
Validated: 1
EndChar

StartChar: braceleft
Encoding: 123 123 84
Width: 708
GlyphClass: 2
Flags: W
HStem: -200 82<507.426 615> 1628 82<859.665 1004>
VStem: 283 172<-62.7046 327.969> 361 181<317.359 687.668>
DStem2: 207.002 -200 387.064 -200 0.207912 0.978148<319.579 772.382 1108.96 1744.55>
LayerCount: 2
Fore
SplineSet
1021 1710 m 1,0,-1
 1004 1628 l 1,1,2
 911 1628 911 1628 839 1574 c 0,3,4
 751 1510 751 1510 707 1301 c 2,5,-1
 648 1027 l 2,6,7
 601 806 601 806 387 755 c 1,8,9
 542 708 542 708 542 559 c 0,10,11
 542 524 542 524 533 483 c 2,12,-1
 474 209 l 2,13,14
 455 121 455 121 455 58 c 0,15,16
 455 -27 455 -27 490 -64 c 0,17,18
 540 -118 540 -118 633 -118 c 1,19,-1
 615 -200 l 1,20,21
 435 -200 435 -200 353 -99 c 0,22,23
 283 -13 283 -13 283 109 c 0,24,25
 283 159 283 159 295 214 c 2,26,-1
 352 482 l 2,27,28
 361 523 361 523 361 558 c 0,29,30
 361 705 361 705 210 755 c 1,31,32
 423 815 423 815 469 1028 c 2,33,-1
 525 1296 l 2,34,35
 565 1485 565 1485 716 1609 c 0,36,37
 838 1710 838 1710 1021 1710 c 1,0,-1
EndSplineSet
Validated: 1
EndChar

StartChar: bar
Encoding: 124 124 85
Width: 655
GlyphClass: 2
Flags: W
VStem: 218 155<-150 5> 603 155<1505 1660>
DStem2: 218 -150 373 -150 0.207912 0.978148<32.2263 1850.49>
LayerCount: 2
Fore
SplineSet
218 -150 m 1,0,-1
 603 1660 l 1,1,-1
 758 1660 l 1,2,-1
 373 -150 l 1,3,-1
 218 -150 l 1,0,-1
EndSplineSet
Validated: 1
EndChar

StartChar: braceright
Encoding: 125 125 86
Width: 708
GlyphClass: 2
Flags: W
HStem: -200 82<25 169.205> 1628 82<413 522.004>
VStem: 487 181<819.78 1192.64> 574 171<1182.03 1572.56>
DStem2: 235.064 -200 415.002 -200 0.207912 0.978148<242.361 875.41 1216.96 1671.48>
LayerCount: 2
Fore
SplineSet
413 1710 m 1,0,1
 596 1710 596 1710 676 1609 c 0,2,3
 745 1522 745 1522 745 1402 c 0,4,5
 745 1352 745 1352 733 1296 c 2,6,-1
 677 1028 l 2,7,8
 668 987 668 987 668 951 c 0,9,10
 668 803 668 803 818 755 c 1,11,12
 605 693 605 693 560 482 c 2,13,-1
 503 214 l 2,14,15
 462 22 462 22 313 -99 c 0,16,17
 188 -200 188 -200 7 -200 c 1,18,-1
 25 -118 l 1,19,20
 118 -118 118 -118 190 -64 c 0,21,22
 278 0 278 0 322 209 c 2,23,-1
 381 483 l 2,24,25
 426 697 426 697 641 755 c 1,26,27
 487 796 487 796 487 947 c 0,28,29
 487 984 487 984 496 1027 c 2,30,-1
 555 1301 l 2,31,32
 574 1389 574 1389 574 1452 c 0,33,34
 574 1537 574 1537 539 1574 c 0,35,36
 489 1628 489 1628 396 1628 c 1,37,-1
 413 1710 l 1,0,1
EndSplineSet
Validated: 1
EndChar

StartChar: asciitilde
Encoding: 126 126 87
Width: 1193
GlyphClass: 2
Flags: W
HStem: 598 151<885.047 1080.26> 760 151<432.201 629.953>
VStem: 283 20<624 632.899> 1212 19<876.101 885>
DStem2: 930 772 585 737 0.900056 -0.435774<-368.583 73.316>
LayerCount: 2
Fore
SplineSet
586 911 m 0,0,1
 643 911 643 911 709 879 c 2,2,-1
 930 772 l 2,3,4
 978 749 978 749 1025 749 c 0,5,6
 1125 749 1125 749 1212 885 c 1,7,-1
 1231 885 l 1,8,9
 1150 598 1150 598 929 598 c 0,10,11
 872 598 872 598 806 630 c 2,12,-1
 585 737 l 2,13,14
 537 760 537 760 489 760 c 0,15,16
 390 760 390 760 303 624 c 1,17,-1
 283 624 l 1,18,19
 362 911 362 911 586 911 c 0,0,1
EndSplineSet
Validated: 1
EndChar

StartChar: exclamdown
Encoding: 161 161 89
Width: 659
GlyphClass: 2
Flags: W
HStem: -430 21G<211.5 265> 856 264<461.959 617.602>
VStem: 134 262<-378.849 -160.5> 408 265<910.821 1066.48>
LayerCount: 2
Fore
SplineSet
567 1120 m 128,-1,1
 621 1120 621 1120 651 1082 c 0,2,3
 673 1054 673 1054 673 1017 c 0,4,5
 673 1003 673 1003 669 988 c 0,6,7
 657 933 657 933 611 894.5 c 128,-1,8
 565 856 565 856 511 856 c 128,-1,9
 457 856 457 856 428 894 c 0,10,11
 408 920 408 920 408 958 c 0,12,13
 408 975 408 975 411 988 c 0,14,15
 423 1043 423 1043 468 1081.5 c 128,-1,0
 513 1120 513 1120 567 1120 c 128,-1,1
238 -430 m 0,16,17
 185 -430 185 -430 155 -392 c 0,18,19
 134 -365 134 -365 134 -329 c 0,20,21
 134 -304 134 -304 143 -276 c 10,22,-1
 447 780 l 1,23,-1
 545 780 l 1,24,-1
 400 -276 l 2,25,26
 399 -286 399 -286 396 -298 c 0,27,28
 384 -353 384 -353 338 -391.5 c 128,-1,29
 292 -430 292 -430 238 -430 c 0,16,17
EndSplineSet
Validated: 1
EndChar

StartChar: cent
Encoding: 162 162 90
Width: 1196
GlyphClass: 2
Flags: W
HStem: -18 93<534.366 624 742 909.352> 1025 93<717.875 846>
VStem: 222 210<213.316 642.709> 1196 15<634 668.267> 1299 15<1109.34 1120>
DStem2: 596 -150 694.884 -150 0.207912 0.978148<78.8326 134.937 248.482 1201.3 1316.24 1373.11>
LayerCount: 2
Fore
SplineSet
596 -150 m 1,0,-1
 624 -18 l 1,1,2
 422 -1 422 -1 312 141 c 0,3,4
 222 257 222 257 222 414 c 0,5,6
 222 478 222 478 237 550 c 0,7,8
 290 801 290 801 486 959 c 0,9,10
 664 1103 664 1103 866 1118 c 1,11,-1
 882 1193 l 1,12,-1
 994 1250 l 1,13,-1
 966 1117 l 1,14,15
 1041 1107 1041 1107 1095 1068 c 0,16,17
 1148 1032 1148 1032 1197 1032 c 0,18,19
 1250 1032 1250 1032 1299 1120 c 1,20,-1
 1314 1120 l 1,21,-1
 1211 634 l 1,22,-1
 1196 634 l 1,23,24
 1181 793 1181 793 1121 909 c 0,25,26
 1068 1012 1068 1012 946 1027 c 1,27,-1
 742 73 l 1,28,29
 965 92 965 92 1143 316 c 1,30,-1
 1114 179 l 1,31,32
 951 -4 951 -4 723 -19 c 1,33,-1
 707 -93 l 1,34,-1
 596 -150 l 1,0,-1
644 75 m 1,35,-1
 846 1025 l 1,36,37
 698 1004 698 1004 595 875 c 0,38,39
 494 748 494 748 452 550 c 0,40,41
 432 457 432 457 432 379 c 0,42,43
 432 292 432 292 457 225 c 0,44,45
 505 96 505 96 644 75 c 1,35,-1
EndSplineSet
Validated: 1
EndChar

StartChar: sterling
Encoding: 163 163 91
Width: 1256
GlyphClass: 2
Flags: W
HStem: 0 90<515.311 907.57> 0 15<103 124.836> 545 90<286 386 605 898> 1446 84<859.498 1144.81>
VStem: 995 285<1214.31 1356.11>
DStem2: 269.861 0 469.861 0 0.207912 0.978148<216.014 557.237 690.803 1366.51>
LayerCount: 2
Fore
SplineSet
100 0 m 1,0,-1
 103 15 l 1,1,2
 282 60 282 60 323 250 c 2,3,-1
 386 545 l 1,4,-1
 216 545 l 1,5,-1
 286 635 l 1,6,-1
 405 635 l 1,7,-1
 510 1128 l 2,8,9
 549 1312 549 1312 696 1429 c 0,10,11
 823 1530 823 1530 1033 1530 c 0,12,13
 1189 1530 1189 1530 1253 1430 c 0,14,15
 1280 1389 1280 1389 1280 1337 c 0,16,17
 1280 1321 1280 1321 1277 1303 c 0,18,19
 1266 1233 1266 1233 1211 1192 c 0,20,21
 1161 1155 1161 1155 1105 1155 c 128,-1,22
 1049 1155 1049 1155 1020 1186 c 0,23,24
 995 1214 995 1214 995 1253 c 0,25,26
 995 1265 995 1265 997 1278 c 0,27,28
 1006 1331 1006 1331 1051 1367 c 0,29,30
 1089 1398 1089 1398 1147 1402 c 1,31,32
 1117 1446 1117 1446 1013 1446 c 128,-1,33
 909 1446 909 1446 832 1385 c 0,34,35
 751 1321 751 1321 710 1128 c 2,36,-1
 605 635 l 1,37,-1
 968 635 l 1,38,-1
 898 545 l 1,39,-1
 586 545 l 1,40,-1
 523 250 l 2,41,42
 513 205 513 205 513 168 c 0,43,44
 513 124 513 124 527 90 c 1,45,-1
 681 90 l 2,46,47
 936 90 936 90 1209 322 c 1,48,-1
 1224 322 l 1,49,-1
 970 0 l 1,50,-1
 100 0 l 1,0,-1
EndSplineSet
Validated: 1
EndChar

StartChar: currency
Encoding: 164 164 92
Width: 1522
GlyphClass: 2
Flags: W
HStem: 191 91<679.366 980.112> 1240 91<864.511 1165.87>
VStem: 385 203<399.701 841.753> 1257 204<675.245 1102.73>
DStem2: 260 283 344 177 0.771496 0.636234<0 209.717 1425.43 1594.26> 582 1299 454 1193 0.618641 -0.785674<4.0954 137.201 1126.29 1293.16>
LayerCount: 2
Fore
SplineSet
821 282 m 128,-1,1
 966 282 966 282 1076 404 c 0,2,3
 1183 522 1183 522 1234 761 c 0,4,5
 1257 869 1257 869 1257 960 c 0,6,7
 1257 1055 1257 1055 1228 1118 c 0,8,9
 1170 1240 1170 1240 1025 1240 c 0,10,11
 881 1240 881 1240 770 1118 c 0,12,13
 663 1000 663 1000 612 761 c 0,14,15
 588 648 588 648 588 562 c 0,16,17
 588 466 588 466 618 404 c 0,18,0
 676 282 676 282 821 282 c 128,-1,1
1045 1331 m 0,19,20
 1240 1331 1240 1331 1363 1192 c 9,21,-1
 1492 1299 l 1,22,-1
 1576 1193 l 1,23,-1
 1433 1075 l 1,24,25
 1461 1001 1461 1001 1461 911 c 0,26,27
 1461 841 1461 841 1444 761 c 0,28,29
 1401 557 1401 557 1276 418 c 1,30,-1
 1382 283 l 1,31,-1
 1254 177 l 1,32,-1
 1150 308 l 1,33,34
 983 191 983 191 801.5 191 c 128,-1,35
 620 191 620 191 502 308 c 1,36,-1
 344 177 l 1,37,-1
 260 283 l 1,38,-1
 424 418 l 1,39,40
 385 502 385 502 385 609 c 0,41,42
 385 680 385 680 402 761 c 0,43,44
 441 944 441 944 545 1075 c 1,45,-1
 454 1193 l 1,46,-1
 582 1299 l 1,47,-1
 665 1192 l 17,48,49
 848 1331 848 1331 1045 1331 c 0,19,20
EndSplineSet
Validated: 1
EndChar

StartChar: yen
Encoding: 165 165 93
Width: 1595
GlyphClass: 2
Flags: W
HStem: 0 15<531 552.832 1046.3 1066> 335 90<474 768 987 1283> 538 90<517 761 1101 1326> 1495 15<331 344.008 852.001 873 1438 1453.41>
DStem2: 955 628 526 1260 0.348249 -0.937402<-735.027 -67.5603> 984 628 1101 628 0.622538 0.78259<72.8369 934.616>
LayerCount: 2
Fore
SplineSet
528 0 m 1,0,-1
 531 15 l 1,1,2
 710 60 710 60 750 250 c 2,3,-1
 768 335 l 1,4,-1
 403 335 l 1,5,-1
 474 425 l 1,6,-1
 787 425 l 1,7,-1
 805 509 l 1,8,-1
 794 538 l 1,9,-1
 446 538 l 1,10,-1
 517 628 l 1,11,-1
 761 628 l 1,12,-1
 526 1260 l 2,13,14
 458 1443 458 1443 328 1495 c 1,15,-1
 331 1510 l 1,16,-1
 876 1510 l 1,17,-1
 873 1495 l 1,18,19
 734 1454 734 1454 713 1352 c 0,20,21
 710 1337 710 1337 710 1322 c 0,22,23
 710 1293 710 1293 722 1260 c 2,24,-1
 955 628 l 1,25,-1
 984 628 l 1,26,-1
 1487 1260 l 2,27,28
 1525 1308 1525 1308 1535 1353 c 0,29,30
 1538 1368 1538 1368 1538 1382 c 0,31,32
 1538 1461 1538 1461 1435 1495 c 1,33,-1
 1438 1510 l 1,34,-1
 1906 1510 l 1,35,-1
 1903 1495 l 1,36,37
 1748 1441 1748 1441 1604 1260 c 2,38,-1
 1101 628 l 1,39,-1
 1395 628 l 1,40,-1
 1326 538 l 1,41,-1
 1030 538 l 1,42,-1
 1005 507 l 1,43,-1
 987 425 l 1,44,-1
 1352 425 l 1,45,-1
 1283 335 l 1,46,-1
 968 335 l 1,47,-1
 950 250 l 2,48,49
 942 213 942 213 942 178 c 0,50,51
 942 50 942 50 1069 15 c 1,52,-1
 1066 0 l 1,53,-1
 528 0 l 1,0,-1
EndSplineSet
Validated: 1
EndChar

StartChar: brokenbar
Encoding: 166 166 94
Width: 654
GlyphClass: 2
Flags: W
VStem: 218 154<-150 4> 390 154<507 661> 431 154<850 1004> 603 154<1506 1660>
DStem2: 218 -150 372 -150 0.207912 0.978148<32.0184 829.039 1054.45 1850.49>
LayerCount: 2
Fore
SplineSet
218 -150 m 1,0,-1
 390 661 l 9,1,-1
 544 661 l 17,2,-1
 372 -150 l 1,3,-1
 218 -150 l 1,0,-1
603 1660 m 1,4,-1
 757 1660 l 1,5,-1
 585 850 l 9,6,-1
 431 850 l 17,7,-1
 603 1660 l 1,4,-1
EndSplineSet
Validated: 1
EndChar

StartChar: section
Encoding: 167 167 95
Width: 1142
GlyphClass: 2
Flags: W
HStem: -20 82<437.692 695.23> 1448 82<767.77 1025.31>
VStem: 299 285<153.887 295.688> 309 172<650.284 882.696> 539 156<1166.43 1370.65> 768 156<139.345 343.567> 879 285<1214.31 1356.11> 982 172<627.304 859.716>
DStem2: 606 592 518 457 0.892098 -0.451842<-147.413 275.91> 804 1122 703 996 0.892098 -0.451842<-135.718 286.87>
LayerCount: 2
Fore
SplineSet
546 -20 m 0,0,1
 392 -20 392 -20 326 80 c 0,2,3
 299 121 299 121 299 173 c 0,4,5
 299 189 299 189 302 207 c 0,6,7
 313 277 313 277 368 318 c 0,8,9
 418 355 418 355 474 355 c 128,-1,10
 530 355 530 355 559 324 c 0,11,12
 584 296 584 296 584 257 c 0,13,14
 584 245 584 245 582 232 c 0,15,16
 573 179 573 179 528 143 c 0,17,18
 490 112 490 112 432 108 c 1,19,20
 464 62 464 62 565 62 c 0,21,22
 627 62 627 62 682 94 c 0,23,24
 748 133 748 133 763 199 c 0,25,26
 768 221 768 221 768 241 c 0,27,28
 768 334 768 334 659 388 c 2,29,-1
 518 457 l 2,30,31
 309 559 309 559 309 724 c 0,32,33
 309 741 309 741 311 759 c 0,34,35
 331 919 331 919 495 1022 c 1,36,-1
 598 959 l 1,37,38
 501 893 501 893 484 796 c 0,39,40
 481 778 481 778 481 761 c 0,41,42
 481 655 481 655 606 592 c 2,43,-1
 760 514 l 2,44,45
 924 431 924 431 924 287 c 0,46,47
 924 264 924 264 920 240 c 0,48,49
 899 124 899 124 782 43 c 0,50,51
 689 -20 689 -20 546 -20 c 0,0,1
917 1530 m 0,52,53
 1071 1530 1071 1530 1137 1430 c 0,54,55
 1164 1389 1164 1389 1164 1337 c 0,56,57
 1164 1321 1164 1321 1161 1303 c 0,58,59
 1150 1233 1150 1233 1095 1192 c 0,60,61
 1045 1155 1045 1155 989 1155 c 128,-1,62
 933 1155 933 1155 904 1186 c 0,63,64
 879 1214 879 1214 879 1253 c 0,65,66
 879 1265 879 1265 881 1278 c 0,67,68
 890 1331 890 1331 935 1367 c 0,69,70
 973 1398 973 1398 1031 1402 c 1,71,72
 999 1448 999 1448 898 1448 c 0,73,74
 836 1448 836 1448 781 1416 c 0,75,76
 715 1377 715 1377 700 1311 c 0,77,78
 695 1289 695 1289 695 1269 c 0,79,80
 695 1176 695 1176 804 1122 c 2,81,-1
 945 1053 l 2,82,83
 1154 951 1154 951 1154 786 c 0,84,85
 1154 769 1154 769 1152 751 c 0,86,87
 1132 591 1132 591 968 488 c 1,88,-1
 865 551 l 1,89,90
 962 617 962 617 979 714 c 0,91,92
 982 732 982 732 982 749 c 0,93,94
 982 855 982 855 857 918 c 2,95,-1
 703 996 l 2,96,97
 539 1079 539 1079 539 1223 c 0,98,99
 539 1246 539 1246 543 1270 c 0,100,101
 564 1386 564 1386 681 1467 c 0,102,103
 774 1530 774 1530 917 1530 c 0,52,53
EndSplineSet
Validated: 1
EndChar

StartChar: dieresis
Encoding: 168 168 96
Width: 636
GlyphClass: 2
Flags: W
HStem: 1200 238<369.822 524.285 673.822 828.285>
VStem: 328 236<1239.68 1395.23> 632 236<1239.68 1395.23>
LayerCount: 2
Fore
SplineSet
776 1438 m 128,-1,1
 824 1438 824 1438 850 1404 c 0,2,3
 868 1380 868 1380 868 1347 c 0,4,5
 868 1328 868 1328 865 1314 c 0,6,7
 855 1263 855 1263 814 1231.5 c 128,-1,8
 773 1200 773 1200 725 1200 c 0,9,10
 676 1200 676 1200 650 1234 c 0,11,12
 632 1258 632 1258 632 1291 c 0,13,14
 632 1304 632 1304 634 1319 c 0,15,16
 644 1370 644 1370 686 1404 c 128,-1,0
 728 1438 728 1438 776 1438 c 128,-1,1
472 1438 m 128,-1,18
 520 1438 520 1438 546 1404 c 0,19,20
 564 1380 564 1380 564 1347 c 0,21,22
 564 1328 564 1328 561 1314 c 0,23,24
 551 1263 551 1263 510 1231.5 c 128,-1,25
 469 1200 469 1200 421 1200 c 0,26,27
 372 1200 372 1200 346 1234 c 0,28,29
 328 1258 328 1258 328 1291 c 0,30,31
 328 1304 328 1304 330 1319 c 0,32,33
 340 1370 340 1370 382 1404 c 128,-1,17
 424 1438 424 1438 472 1438 c 128,-1,18
EndSplineSet
Validated: 1
EndChar

StartChar: copyright
Encoding: 169 169 97
Width: 1418
GlyphClass: 2
Flags: W
HStem: 386 77<624.878 999.312> 558 56<779.654 994.123> 1286 57<902.453 1099.11> 1453 77<825.688 1200.37>
VStem: 343 82<659.426 1055.31> 543 155<684.592 1050.61> 1193 17<1042 1078.64> 1258 17<1328.72 1346> 1400 82<860.688 1256.57>
LayerCount: 2
Fore
SplineSet
1009 1343 m 0,0,1
 1080 1343 1080 1343 1124 1317 c 128,-1,2
 1168 1291 1168 1291 1193 1291 c 0,3,4
 1235 1291 1235 1291 1258 1346 c 1,5,-1
 1275 1346 l 1,6,-1
 1210 1042 l 1,7,-1
 1193 1042 l 1,8,9
 1178 1286 1178 1286 997 1286 c 0,10,11
 895 1286 895 1286 807 1167 c 24,12,13
 736 1071 736 1071 711 948 c 0,14,15
 698 883 698 883 698 830 c 0,16,17
 698 774 698 774 713 732 c 0,18,19
 756 614 756 614 881 614 c 0,20,21
 1024 614 1024 614 1150 760 c 1,22,-1
 1135 687 l 1,23,24
 1021 558 1021 558 852 558 c 0,25,26
 664 558 664 558 586 686 c 0,27,28
 543 755 543 755 543 848 c 0,29,30
 543 897 543 897 555 952 c 0,31,32
 589 1112 589 1112 698 1214 c 0,33,34
 834 1343 834 1343 1009 1343 c 0,0,1
1018 1530 m 0,35,36
 1260 1530 1260 1530 1387 1368 c 0,37,38
 1482 1247 1482 1247 1482 1097 c 0,39,40
 1482 1019 1482 1019 1473 964 c 0,41,42
 1433 718 1433 718 1234 553 c 0,43,44
 1032 386 1032 386 807 386 c 0,45,46
 565 386 565 386 438 548 c 0,47,48
 343 669 343 669 343 819 c 0,49,50
 343 897 343 897 352 952 c 0,51,52
 392 1199 392 1199 591 1363 c 0,53,54
 793 1530 793 1530 1018 1530 c 0,35,36
1017 1453 m 0,55,56
 827 1453 827 1453 655 1312 c 0,57,58
 477 1166 477 1166 436 953 c 0,59,60
 425 896 425 896 425 849 c 0,61,62
 425 701 425 701 501 602 c 0,63,64
 608 463 608 463 808 463 c 0,65,66
 998 463 998 463 1170 604 c 0,67,68
 1348 750 1348 750 1389 963 c 0,69,70
 1400 1020 1400 1020 1400 1067 c 0,71,72
 1400 1213 1400 1213 1324 1314 c 0,73,74
 1218 1453 1218 1453 1017 1453 c 0,55,56
EndSplineSet
Validated: 1
EndChar

StartChar: ordfeminine
Encoding: 170 170 98
Width: 635
GlyphClass: 2
Flags: W
HStem: 816 130<325 684> 1003 53<450.249 583.376> 1312 56<527.82 648> 1526 54<509.742 657.33>
VStem: 296 138<1062.42 1247.25> 399 17<1379 1392.46> 673 130<1368 1496.65>
DStem2: 542.494 816 672.494 816 0.207912 0.978148<346.46 507.097 552.756 643.824>
LayerCount: 2
Fore
SplineSet
616.5 1580 m 128,-1,1
 714 1580 714 1580 765 1536 c 0,2,3
 803 1503 803 1503 803 1450 c 0,4,5
 803 1431 803 1431 798 1409 c 2,6,-1
 742 1143 l 2,7,8
 740 1135 740 1135 740 1128 c 0,9,10
 740 1082 740 1082 812 1072 c 1,11,-1
 810 1061 l 1,12,13
 674 1003 674 1003 529 1003 c 128,-1,14
 384 1003 384 1003 333 1049 c 0,15,16
 296 1083 296 1083 296 1136 c 0,17,18
 296 1154 296 1154 300 1174 c 0,19,20
 317 1254 317 1254 404 1310 c 0,21,22
 491 1364 491 1364 660 1368 c 1,23,-1
 669 1410 l 2,24,25
 673 1430 673 1430 673 1447 c 0,26,27
 673 1478 673 1478 659 1498 c 0,28,29
 639 1526 639 1526 597 1526 c 0,30,31
 484 1526 484 1526 416 1379 c 1,32,-1
 399 1379 l 1,33,-1
 431 1529 l 1,34,0
 519 1580 519 1580 616.5 1580 c 128,-1,1
648 1312 m 1,35,36
 552 1307 552 1307 501 1268 c 128,-1,37
 450 1229 450 1229 438 1170 c 0,38,39
 434 1149 434 1149 434 1132 c 0,40,41
 434 1056 434 1056 520 1056 c 8,42,43
 593 1056 593 1056 612 1143 c 2,44,-1
 648 1312 l 1,35,36
325 946 m 1,45,-1
 786 946 l 1,46,-1
 684 816 l 1,47,-1
 223 816 l 1,48,-1
 325 946 l 1,45,-1
EndSplineSet
Validated: 1
EndChar

StartChar: guillemotleft
Encoding: 171 171 99
Width: 1223
GlyphClass: 2
Flags: W
DStem2: 458 779 305 730 0.443589 -0.89623<0 508.905> 305 730 458 779 0.660361 0.750948<137.832 761.704> 845 779 692 730 0.443589 -0.89623<0 508.905> 692 730 845 779 0.660361 0.750948<137.832 761.704>
LayerCount: 2
Fore
SplineSet
1195 1302 m 1,0,-1
 1266 1252 l 1,1,-1
 845 779 l 1,2,-1
 1077 326 l 1,3,-1
 937 235 l 1,4,-1
 692 730 l 1,5,-1
 1195 1302 l 1,0,-1
808 1302 m 1,6,-1
 879 1252 l 1,7,-1
 458 779 l 1,8,-1
 690 326 l 1,9,-1
 550 235 l 1,10,-1
 305 730 l 1,11,-1
 808 1302 l 1,6,-1
EndSplineSet
Validated: 1
EndChar

StartChar: logicalnot
Encoding: 172 172 100
Width: 1218
GlyphClass: 2
Flags: W
HStem: 680 150<411 973>
VStem: 738 154<380 534>
DStem2: 738 380 892 380 0.616119 0.787653<94.8824 381.084>
LayerCount: 2
Fore
SplineSet
411 830 m 1,0,-1
 1244 830 l 1,1,-1
 892 380 l 1,2,-1
 738 380 l 1,3,-1
 973 680 l 1,4,-1
 295 680 l 1,5,-1
 411 830 l 1,0,-1
EndSplineSet
Validated: 1
EndChar

StartChar: uni00AD
Encoding: 173 173 101
Width: 1218
GlyphClass: 2
Flags: W
HStem: 680 150<411 1128>
LayerCount: 2
Fore
SplineSet
411 830 m 1,0,-1
 1244 830 l 1,1,-1
 1128 680 l 1,2,-1
 295 680 l 1,3,-1
 411 830 l 1,0,-1
EndSplineSet
Validated: 1
EndChar

StartChar: registered
Encoding: 174 174 102
Width: 1401
GlyphClass: 2
Flags: W
HStem: 386 77<628.287 998.268> 802 57<837.784 933.27> 1276 55<911.563 1065.13> 1453 77<825.688 1200.37>
VStem: 343 82<659.426 1055.31> 1109 151<973.122 1249.23> 1400 82<860.688 1256.57>
DStem2: 560.808 386 700.808 386 0.207912 0.978148<304.256 473.978 579.992 832.838>
LayerCount: 2
Fore
SplineSet
820 944 m 2,0,1
 818 933 818 933 818 924 c 0,2,3
 818 896 818 896 837 880 c 0,4,5
 862 859 862 859 898 859 c 0,6,7
 975 859 975 859 1037 930 c 0,8,9
 1085 985 1085 985 1102 1068 c 0,10,11
 1109 1102 1109 1102 1109 1131 c 0,12,13
 1109 1178 1109 1178 1091 1215 c 0,14,15
 1060 1276 1060 1276 986 1276 c 0,16,17
 945 1276 945 1276 922 1259 c 0,18,19
 880 1228 880 1228 872 1191 c 2,20,-1
 820 944 l 2,0,1
1017 1453 m 0,21,22
 827 1453 827 1453 655 1312 c 0,23,24
 477 1166 477 1166 436 953 c 0,25,26
 425 896 425 896 425 849 c 0,27,28
 425 701 425 701 501 602 c 0,29,30
 512 588 512 588 524 575 c 1,31,32
 606 601 606 601 625 688 c 2,33,-1
 732 1191 l 2,34,35
 733 1196 733 1196 733 1201 c 0,36,37
 733 1239 733 1239 662 1263 c 1,38,-1
 665 1273 l 1,39,40
 813 1331 813 1331 973 1331 c 0,41,42
 1135 1331 1135 1331 1209 1257 c 0,43,44
 1260 1205 1260 1205 1260 1128 c 0,45,46
 1260 1101 1260 1101 1254 1071 c 0,47,48
 1229 953 1229 953 1129 879 c 0,49,50
 1078 841 1078 841 1021 822 c 1,51,52
 1100 798 1100 798 1109 720 c 0,53,54
 1118 638 1118 638 1161 596 c 1,55,56
 1166 600 1166 600 1170 604 c 0,57,58
 1348 750 1348 750 1389 963 c 0,59,60
 1400 1020 1400 1020 1400 1067 c 0,61,62
 1400 1213 1400 1213 1324 1314 c 0,63,64
 1218 1453 1218 1453 1017 1453 c 0,21,22
1018 1530 m 0,65,66
 1260 1530 1260 1530 1387 1368 c 0,67,68
 1482 1247 1482 1247 1482 1097 c 0,69,70
 1482 1019 1482 1019 1473 964 c 0,71,72
 1433 718 1433 718 1234 553 c 0,73,74
 1032 386 1032 386 807 386 c 0,75,76
 565 386 565 386 438 548 c 0,77,78
 343 669 343 669 343 819 c 0,79,80
 343 897 343 897 352 952 c 0,81,82
 392 1199 392 1199 591 1363 c 0,83,84
 793 1530 793 1530 1018 1530 c 0,65,66
1106 557 m 1,85,-1
 897 557 l 1,86,-1
 901 573 l 1,87,88
 950 584 950 584 960 633 c 0,89,90
 963 646 963 646 963 661 c 0,91,92
 963 681 963 681 958 706 c 0,93,94
 940 802 940 802 888 802 c 0,95,96
 831 802 831 802 794 821 c 1,97,-1
 765 688 l 2,98,99
 761 670 761 670 761 654 c 0,100,101
 761 591 761 591 826 573 c 1,102,-1
 822 557 l 1,103,-1
 542 557 l 1,104,105
 644 463 644 463 808 463 c 0,106,107
 963 463 963 463 1106 557 c 1,85,-1
EndSplineSet
Validated: 1
EndChar

StartChar: macron
Encoding: 175 175 103
Width: 650
GlyphClass: 2
Flags: W
HStem: 1246 130<416 791>
VStem: 315 577
LayerCount: 2
Fore
SplineSet
416 1376 m 1,0,-1
 892 1376 l 1,1,-1
 791 1246 l 1,2,-1
 315 1246 l 1,3,-1
 416 1376 l 1,0,-1
EndSplineSet
Validated: 1
EndChar

StartChar: degree
Encoding: 176 176 104
Width: 558
GlyphClass: 2
Flags: W
HStem: 1079 83<461.412 607.915> 1498 82<515.624 660.486>
VStem: 324 124<1209.69 1429.64> 676 122<1233.39 1488.6>
LayerCount: 2
Fore
SplineSet
614 1580 m 0,0,1
 700 1580 700 1580 754 1521 c 0,2,3
 798 1474 798 1474 798 1396 c 0,4,5
 798 1365 798 1365 791 1330 c 0,6,7
 767 1208 767 1208 673 1139 c 0,8,9
 593 1079 593 1079 507.5 1079 c 128,-1,10
 422 1079 422 1079 369 1139 c 0,11,12
 324 1189 324 1189 324 1266 c 0,13,14
 324 1296 324 1296 331 1330 c 0,15,16
 355 1452 355 1452 450 1521 c 0,17,18
 530 1580 530 1580 614 1580 c 0,0,1
597 1498 m 0,19,20
 551 1498 551 1498 509 1451 c 0,21,22
 472 1410 472 1410 456 1330 c 0,23,24
 448 1293 448 1293 448 1264 c 0,25,26
 448 1231 448 1231 458 1209 c 0,27,28
 480 1162 480 1162 527 1162 c 0,29,30
 572 1162 572 1162 614 1209 c 0,31,32
 651 1250 651 1250 668 1330 c 0,33,34
 676 1367 676 1367 676 1396 c 0,35,36
 676 1430 676 1430 665 1451 c 0,37,38
 641 1498 641 1498 597 1498 c 0,19,20
EndSplineSet
Validated: 1
EndChar

StartChar: plusminus
Encoding: 177 177 105
Width: 1318
GlyphClass: 2
Flags: W
HStem: 256 150<371 1087> 808 150<489 756 938 1205>
DStem2: 638.29 256 788.223 256 0.207912 0.978148<289.825 564.411 748.973 1023.35>
LayerCount: 2
Fore
SplineSet
1019 1342 m 1,0,-1
 938 958 l 1,1,-1
 1322 958 l 1,2,-1
 1205 808 l 1,3,-1
 906 808 l 1,4,-1
 842 509 l 1,5,-1
 674 424 l 1,6,-1
 756 808 l 1,7,-1
 372 808 l 1,8,-1
 489 958 l 1,9,-1
 788 958 l 1,10,-1
 851 1257 l 1,11,-1
 1019 1342 l 1,0,-1
371 406 m 1,12,-1
 1204 406 l 1,13,-1
 1087 256 l 1,14,-1
 254 256 l 1,15,-1
 371 406 l 1,12,-1
EndSplineSet
Validated: 1
EndChar

StartChar: uni00B2
Encoding: 178 178 106
Width: 664
VWidth: 1401
GlyphClass: 2
Flags: W
HStem: 796 130<452.661 713.077> 1524 56<534.073 695.207>
VStem: 355 16<1313 1326.15> 724 155<1278.22 1509.71>
LayerCount: 2
Fore
SplineSet
639 1580 m 0,0,1
 774 1580 774 1580 833 1520 c 0,2,3
 879 1474 879 1474 879 1409 c 0,4,5
 879 1388 879 1388 874 1365 c 0,6,7
 846 1233 846 1233 707 1158 c 0,8,9
 569 1084 569 1084 508.5 1037 c 128,-1,10
 448 990 448 990 401 937 c 1,11,12
 456 961 456 961 502 961 c 0,13,14
 530 961 530 961 556 951 c 0,15,16
 621 926 621 926 687 926 c 0,17,18
 747 926 747 926 805 973 c 1,19,-1
 821 973 l 1,20,21
 725 796 725 796 581 796 c 0,22,23
 539 796 539 796 478 819 c 0,24,25
 419 841 419 841 375 841 c 0,26,27
 287 841 287 841 233 796 c 1,28,-1
 219 796 l 1,29,30
 288 941 288 941 382.5 1029 c 128,-1,31
 477 1117 477 1117 586.5 1190 c 128,-1,32
 696 1263 696 1263 718 1364 c 0,33,34
 724 1392 724 1392 724 1415.5 c 128,-1,35
 724 1439 724 1439 718 1457 c 0,36,37
 696 1524 696 1524 626 1524 c 128,-1,38
 556 1524 556 1524 487 1461 c 128,-1,39
 418 1398 418 1398 371 1313 c 1,40,-1
 355 1313 l 1,41,-1
 392 1485 l 1,42,43
 505 1580 505 1580 639 1580 c 0,0,1
EndSplineSet
Validated: 1
EndChar

StartChar: uni00B3
Encoding: 179 179 107
Width: 606
VWidth: 1401
GlyphClass: 2
Flags: W
HStem: 798 56<350.234 522.069> 1524 56<495.343 641.767>
VStem: 390 16<1391 1406.09> 635 149<953.281 1180.06> 657 137<1324.13 1491.47>
LayerCount: 2
Fore
SplineSet
607 1580 m 128,-1,1
 710 1580 710 1580 758 1534 c 0,2,3
 794 1501 794 1501 794 1445 c 0,4,5
 794 1424 794 1424 789 1399 c 0,6,7
 770 1310 770 1310 656 1260 c 1,8,9
 705 1246 705 1246 736 1216 c 0,10,11
 784 1169 784 1169 784 1098 c 0,12,13
 784 1074 784 1074 778 1044 c 0,14,15
 755 934 755 934 658 866 c 0,16,17
 560 798 560 798 436 798 c 0,18,19
 302 798 302 798 232 855 c 1,20,-1
 265 1011 l 1,21,-1
 279 1011 l 1,22,23
 291 962 291 962 312 924 c 0,24,25
 355 854 355 854 432 854 c 0,26,27
 499 854 499 854 554.5 908 c 144,-1,28
 610 962 610 962 629 1050 c 0,29,30
 635 1077 635 1077 635 1100 c 0,31,32
 635 1151 635 1151 605 1181 c 0,33,34
 557 1227 557 1227 483 1235 c 1,35,-1
 485 1249 l 1,36,37
 552 1265 552 1265 596 1306 c 128,-1,38
 640 1347 640 1347 652 1404 c 0,39,40
 657 1426 657 1426 657 1445 c 0,41,42
 657 1475 657 1475 646 1492 c 0,43,44
 626 1524 626 1524 586 1524 c 0,45,46
 530 1524 530 1524 484 1489 c 0,47,48
 436 1453 436 1453 406 1391 c 1,49,-1
 390 1391 l 1,50,-1
 418 1525 l 1,51,0
 504 1580 504 1580 607 1580 c 128,-1,1
EndSplineSet
Validated: 1
EndChar

StartChar: acute
Encoding: 180 180 108
Width: 452
GlyphClass: 2
Flags: W
HStem: 1160 324
VStem: 300 397
LayerCount: 2
Fore
SplineSet
607 1484 m 0,0,1
 652 1484 652 1484 678 1455 c 0,2,3
 697 1433 697 1433 697 1399 c 0,4,5
 697 1392 697 1392 696 1384 c 0,6,7
 689 1330 689 1330 636 1306 c 2,8,-1
 313 1160 l 1,9,-1
 300 1178 l 1,10,-1
 518 1439 l 2,11,12
 556 1484 556 1484 607 1484 c 0,0,1
EndSplineSet
Validated: 1
EndChar

StartChar: uni00B5
Encoding: 181 181 109
Width: 1335
GlyphClass: 2
Flags: W
HStem: -430 15<413.223 423.867> -20 91<577.232 879.391> 1100 20G<509 598.754 1232.5 1318.76>
VStem: 163 172<-313.534 93.4922>
DStem2: 88.6007 -430 268.601 -430 0.207912 0.978148<298.158 592.551 862.127 1339.42> 814.036 -430 993.824 -430 0.207912 0.978148<709.003 1339.33>
LayerCount: 2
Fore
SplineSet
780 -20 m 0,0,1
 520 -20 520 -20 384 113 c 1,2,-1
 360 0 l 2,3,4
 335 -119 335 -119 335 -205 c 0,5,6
 335 -367 335 -367 424 -415 c 1,7,-1
 421 -430 l 1,8,9
 163 -397 163 -397 163 -143 c 0,10,11
 163 -79 163 -79 180 0 c 2,12,-1
 362 854 l 2,13,14
 365 868 365 868 365 881 c 0,15,16
 365 969 365 969 223 1002 c 1,17,-1
 226 1016 l 1,18,19
 415 1098 415 1098 603 1120 c 1,20,-1
 482 550 l 2,21,22
 460 448 460 448 460 370 c 0,23,24
 460 283 460 283 487 225 c 0,25,26
 559 71 559 71 739 71 c 0,27,28
 920 71 920 71 959 252 c 2,29,-1
 1087 854 l 2,30,31
 1090 868 1090 868 1090 881 c 0,32,33
 1090 969 1090 969 948 1002 c 1,34,-1
 951 1016 l 1,35,36
 1142 1099 1142 1099 1323 1120 c 1,37,-1
 1139 253 l 2,38,39
 1136 239 1136 239 1136 226 c 0,40,41
 1136 138 1136 138 1277 105 c 1,42,-1
 1274 91 l 1,43,44
 1019 -20 1019 -20 780 -20 c 0,0,1
EndSplineSet
Validated: 1
EndChar

StartChar: paragraph
Encoding: 182 182 110
Width: 1072
GlyphClass: 2
Flags: W
HStem: 0 15<455 476.836 975.781 992> 1510 20G<784 969>
DStem2: 622.073 0 693 0 0.207912 0.978148<101.844 780.971> 753 0 822.073 0 0.207912 0.978148<199.77 1280.92>
LayerCount: 2
Fore
SplineSet
452 0 m 1,0,-1
 455 15 l 1,1,2
 634 59 634 59 675 249 c 2,3,-1
 784 764 l 1,4,5
 739 760 739 760 704 760 c 0,6,7
 551 760 551 760 459 831 c 0,8,9
 353 913 353 913 353 1053 c 0,10,11
 353 1096 353 1096 363 1145 c 0,12,13
 404 1338 404 1338 591 1458 c 0,14,15
 702 1530 702 1530 866 1530 c 0,16,17
 1072 1530 1072 1530 1293 1415 c 1,18,-1
 1290 1401 l 1,19,20
 1109 1348 1109 1348 1088 1253 c 2,21,-1
 875 249 l 18,22,23
 867 211 867 211 867 179 c 0,24,25
 867 51 867 51 995 15 c 1,26,-1
 992 0 l 1,27,-1
 753 0 l 1,28,-1
 1019 1253 l 1,29,-1
 959 1253 l 1,30,-1
 693 0 l 1,31,-1
 452 0 l 1,0,-1
EndSplineSet
Validated: 1
EndChar

StartChar: periodcentered
Encoding: 183 183 111
Width: 359
GlyphClass: 2
Flags: W
HStem: 625 264<262.398 418.041>
VStem: 207 265<678.518 834.179>
LayerCount: 2
Fore
SplineSet
369 889 m 128,-1,1
 423 889 423 889 452 851 c 0,2,3
 472 825 472 825 472 787 c 0,4,5
 472 772 472 772 469 757 c 0,6,7
 457 702 457 702 412 663.5 c 128,-1,8
 367 625 367 625 313 625 c 128,-1,9
 259 625 259 625 229 663 c 0,10,11
 207 691 207 691 207 728 c 0,12,13
 207 742 207 742 211 757 c 0,14,15
 223 812 223 812 269 850.5 c 128,-1,0
 315 889 315 889 369 889 c 128,-1,1
EndSplineSet
Validated: 1
EndChar

StartChar: cedilla
Encoding: 184 184 112
Width: 364
GlyphClass: 2
Flags: W
HStem: -430 138<21.1563 102.741> -107 107<58 124.147>
VStem: 150 119<-264.122 -130.721>
LayerCount: 2
Fore
SplineSet
58 0 m 1,0,-1
 138 0 l 1,1,-1
 130 -39 l 1,2,3
 191 -50 191 -50 223 -82 c 0,4,5
 269 -128 269 -128 269 -192 c 0,6,7
 269 -205 269 -205 267 -219 c 0,8,9
 257 -298 257 -298 191 -357 c 0,10,11
 126 -415 126 -415 25 -430 c 1,12,-1
 -12 -292 l 1,13,14
 64 -292 64 -292 104 -265 c 0,15,16
 144 -237 144 -237 149 -198 c 0,17,18
 150 -191 150 -191 150 -185 c 0,19,20
 150 -153 150 -153 125 -130 c 0,21,22
 98 -107 98 -107 35 -107 c 1,23,-1
 58 0 l 1,0,-1
EndSplineSet
Validated: 1
EndChar

StartChar: uni00B9
Encoding: 185 185 113
Width: 410
VWidth: 1411
GlyphClass: 2
Flags: W
HStem: 804 15<224 245.406>
VStem: 221 392
DStem2: 306.155 804 446.155 804 0.207912 0.978148<129.435 547.821>
LayerCount: 2
Fore
SplineSet
598 1590 m 1,0,-1
 613 1590 l 1,1,-1
 474 935 l 2,2,3
 470 917 470 917 470 901 c 0,4,5
 470 838 470 838 534 819 c 1,6,-1
 531 804 l 1,7,-1
 221 804 l 1,8,-1
 224 819 l 1,9,10
 314 844 314 844 334 935 c 2,11,-1
 413 1307 l 2,12,13
 417 1325 417 1325 417 1341 c 0,14,15
 417 1404 417 1404 352 1422 c 1,16,-1
 355 1433 l 1,17,18
 499 1488 499 1488 598 1590 c 1,0,-1
EndSplineSet
Validated: 1
EndChar

StartChar: ordmasculine
Encoding: 186 186 114
Width: 660
GlyphClass: 2
Flags: W
HStem: 816 130<325 709> 1002 56<492.551 629.71> 1525 55<578.977 715.782>
VStem: 316 141<1115.94 1392.94> 752 142<1193.65 1465.06>
LayerCount: 2
Fore
SplineSet
325 946 m 1,0,-1
 811 946 l 1,1,-1
 709 816 l 1,2,-1
 223 816 l 1,3,-1
 325 946 l 1,0,-1
668 1580 m 128,-1,5
 780 1580 780 1580 847 1505 c 0,6,7
 894 1453 894 1453 894 1370 c 0,8,9
 894 1334 894 1334 884 1292 c 0,10,11
 854 1154 854 1154 754.5 1078 c 128,-1,12
 655 1002 655 1002 543 1002 c 128,-1,13
 431 1002 431 1002 363 1078 c 0,14,15
 316 1131 316 1131 316 1214 c 0,16,17
 316 1250 316 1250 324 1292 c 0,18,19
 354 1430 354 1430 455 1505 c 128,-1,4
 556 1580 556 1580 668 1580 c 128,-1,5
655 1525 m 0,20,21
 600 1525 600 1525 548 1470 c 24,22,23
 493 1411 493 1411 468 1291 c 0,24,25
 457 1236 457 1236 457 1194 c 0,26,27
 457 1145 457 1145 472 1115 c 0,28,29
 500 1058 500 1058 555.5 1058 c 128,-1,30
 611 1058 611 1058 661 1113 c 0,31,32
 716 1176 716 1176 740 1292 c 0,33,34
 752 1347 752 1347 752 1389 c 0,35,36
 752 1436 752 1436 738 1466 c 0,37,38
 710 1524 710 1524 655 1525 c 0,20,21
EndSplineSet
Validated: 1
EndChar

StartChar: guillemotright
Encoding: 187 187 115
Width: 1223
GlyphClass: 2
Flags: W
DStem2: 284 285 355 235 0.660361 0.750948<9.33827 633.211> 613 1302 473 1211 0.443589 -0.89623<19.4545 528.36> 671 285 742 235 0.660361 0.750948<9.33827 633.211> 1000 1302 860 1211 0.443589 -0.89623<19.4545 528.36>
LayerCount: 2
Fore
SplineSet
355 235 m 1,0,-1
 284 285 l 1,1,-1
 705 758 l 1,2,-1
 473 1211 l 1,3,-1
 613 1302 l 1,4,-1
 858 807 l 1,5,-1
 355 235 l 1,0,-1
742 235 m 1,6,-1
 671 285 l 1,7,-1
 1092 758 l 1,8,-1
 860 1211 l 1,9,-1
 1000 1302 l 1,10,-1
 1245 807 l 1,11,-1
 742 235 l 1,6,-1
EndSplineSet
Validated: 1
EndChar

StartChar: onequarter
Encoding: 188 188 116
Width: 1519
VWidth: 1411
GlyphClass: 2
Flags: W
HStem: 0 15<1059 1082.69> 180 56<942 1179 1331 1376> 764 15<316 337.391>
DStem2: 211 34 326 -40 0.63679 0.771037<16.1741 1966.15> 226.26 -40 366.26 -40 0.207912 0.978148<951.397 1369.78> 821 194 942 236 0.719321 0.694678<116.214 554.652> 1132.87 -40 1272.87 -40 0.207912 0.978148<169.307 224.784 311.163 594.883>
LayerCount: 2
Fore
SplineSet
689 1550 m 1,0,-1
 704 1550 l 1,1,-1
 565 895 l 2,2,3
 561 877 561 877 561 861 c 0,4,5
 561 798 561 798 626 779 c 1,6,-1
 622 764 l 1,7,-1
 312 764 l 1,8,-1
 316 779 l 1,9,10
 406 804 406 804 425 895 c 2,11,-1
 504 1267 l 2,12,13
 508 1285 508 1285 508 1301 c 0,14,15
 508 1364 508 1364 444 1382 c 1,16,-1
 446 1393 l 1,17,18
 590 1448 590 1448 689 1550 c 1,0,-1
1463 1550 m 1,19,-1
 1583 1482 l 1,20,-1
 326 -40 l 1,21,-1
 211 34 l 1,22,-1
 1463 1550 l 1,19,-1
1056 0 m 1,23,-1
 1059 15 l 1,24,25
 1148 33 1148 33 1169 130 c 2,26,-1
 1179 180 l 1,27,-1
 818 180 l 1,28,-1
 821 194 l 1,29,-1
 1434 786 l 1,30,-1
 1448 786 l 1,31,-1
 1331 236 l 1,32,-1
 1419 236 l 1,33,-1
 1376 180 l 1,34,-1
 1319 180 l 1,35,-1
 1309 130 l 2,36,37
 1305 112 1305 112 1305 96 c 0,38,39
 1305 33 1305 33 1369 15 c 1,40,-1
 1366 0 l 1,41,-1
 1056 0 l 1,23,-1
1191 236 m 1,42,-1
 1256 542 l 1,43,-1
 942 236 l 1,44,-1
 1191 236 l 1,42,-1
EndSplineSet
Validated: 1
EndChar

StartChar: onehalf
Encoding: 189 189 117
Width: 1648
VWidth: 1411
GlyphClass: 2
Flags: W
HStem: -10 130<1165.41 1425.68> 718 56<1246.32 1407.77> 764 15<316 337.391>
VStem: 1068 16<507 520.723> 1437 155<472.218 703.278>
DStem2: 211 34 326 -40 0.63679 0.771037<16.1741 1966.15> 226.26 -40 366.26 -40 0.207912 0.978148<951.397 1369.78>
LayerCount: 2
Fore
SplineSet
1352 774 m 0,0,1
 1487 774 1487 774 1546 714 c 0,2,3
 1592 668 1592 668 1592 603 c 0,4,5
 1592 582 1592 582 1587 559 c 0,6,7
 1559 426 1559 426 1421 352 c 128,-1,8
 1283 278 1283 278 1222 231 c 128,-1,9
 1161 184 1161 184 1114 131 c 1,10,11
 1169 155 1169 155 1215 155 c 0,12,13
 1243 155 1243 155 1269 145 c 0,14,15
 1334 120 1334 120 1400 120 c 0,16,17
 1460 120 1460 120 1517 167 c 1,18,-1
 1533 167 l 1,19,20
 1437 -10 1437 -10 1294 -10 c 0,21,22
 1252 -10 1252 -10 1191 13 c 0,23,24
 1132 35 1132 35 1087 35 c 0,25,26
 999 35 999 35 946 -10 c 1,27,-1
 932 -10 l 1,28,29
 1001 135 1001 135 1095.5 223 c 128,-1,30
 1190 311 1190 311 1299.5 384 c 128,-1,31
 1409 457 1409 457 1431 558 c 0,32,33
 1437 585 1437 585 1437 608 c 0,34,35
 1437 632 1437 632 1430 651 c 0,36,37
 1408 718 1408 718 1339 718 c 0,38,39
 1267 718 1267 718 1199 655 c 0,40,41
 1132 596 1132 596 1084 507 c 1,42,-1
 1068 507 l 1,43,-1
 1104 679 l 1,44,45
 1218 774 1218 774 1352 774 c 0,0,1
689 1550 m 1,46,-1
 704 1550 l 1,47,-1
 565 895 l 2,48,49
 561 877 561 877 561 861 c 0,50,51
 561 798 561 798 626 779 c 1,52,-1
 622 764 l 1,53,-1
 312 764 l 1,54,-1
 316 779 l 1,55,56
 406 804 406 804 425 895 c 2,57,-1
 504 1267 l 2,58,59
 508 1285 508 1285 508 1301 c 0,60,61
 508 1364 508 1364 444 1382 c 1,62,-1
 446 1393 l 1,63,64
 590 1448 590 1448 689 1550 c 1,46,-1
1463 1550 m 1,65,-1
 1583 1482 l 1,66,-1
 326 -40 l 1,67,-1
 211 34 l 1,68,-1
 1463 1550 l 1,65,-1
EndSplineSet
Validated: 1
EndChar

StartChar: threequarters
Encoding: 190 190 118
Width: 1639
VWidth: 1411
GlyphClass: 2
Flags: W
HStem: 0 15<1179 1202.69> 180 56<1062 1299 1451 1496> 758 56<441.664 613.493> 1484 56<586.898 732.285>
VStem: 481 16<1351 1364.25> 726 150<912.936 1140.09> 749 137<1284.13 1451.31>
DStem2: 331 34 446 -40 0.63679 0.771037<16.1741 1966.15> 941 194 1062 236 0.719321 0.694678<116.214 554.652> 1252.87 -40 1392.87 -40 0.207912 0.978148<169.307 224.784 311.163 594.883>
LayerCount: 2
Fore
SplineSet
698 1540 m 128,-1,1
 801 1540 801 1540 850 1494 c 0,2,3
 886 1461 886 1461 886 1405 c 0,4,5
 886 1384 886 1384 881 1359 c 0,6,7
 862 1270 862 1270 747 1220 c 1,8,9
 796 1206 796 1206 828 1176 c 0,10,11
 876 1130 876 1130 876 1058 c 0,12,13
 876 1032 876 1032 870 1004 c 0,14,15
 846 894 846 894 750 826 c 0,16,17
 652 758 652 758 527 758 c 0,18,19
 393 758 393 758 323 815 c 1,20,-1
 356 971 l 1,21,-1
 370 971 l 1,22,23
 382 922 382 922 404 884 c 0,24,25
 447 814 447 814 523 814 c 0,26,27
 590 814 590 814 646 868 c 144,-1,28
 702 922 702 922 720 1010 c 0,29,30
 726 1037 726 1037 726 1060 c 0,31,32
 726 1112 726 1112 697 1141 c 0,33,34
 649 1187 649 1187 574 1195 c 1,35,-1
 577 1209 l 1,36,37
 644 1225 644 1225 688 1266 c 128,-1,38
 732 1307 732 1307 744 1364 c 0,39,40
 749 1386 749 1386 749 1404 c 0,41,42
 749 1430 749 1430 736 1452 c 0,43,44
 716 1484 716 1484 677 1484 c 0,45,46
 621 1484 621 1484 576 1449 c 0,47,48
 528 1413 528 1413 497 1351 c 1,49,-1
 481 1351 l 1,50,-1
 510 1485 l 1,51,0
 595 1540 595 1540 698 1540 c 128,-1,1
1583 1550 m 1,52,-1
 1703 1482 l 1,53,-1
 446 -40 l 1,54,-1
 331 34 l 1,55,-1
 1583 1550 l 1,52,-1
1176 0 m 1,56,-1
 1179 15 l 1,57,58
 1268 33 1268 33 1289 130 c 2,59,-1
 1299 180 l 1,60,-1
 938 180 l 1,61,-1
 941 194 l 1,62,-1
 1554 786 l 1,63,-1
 1568 786 l 1,64,-1
 1451 236 l 1,65,-1
 1539 236 l 1,66,-1
 1496 180 l 1,67,-1
 1439 180 l 1,68,-1
 1429 130 l 2,69,70
 1425 112 1425 112 1425 96 c 0,71,72
 1425 33 1425 33 1489 15 c 1,73,-1
 1486 0 l 1,74,-1
 1176 0 l 1,56,-1
1311 236 m 1,75,-1
 1376 542 l 1,76,-1
 1062 236 l 1,77,-1
 1311 236 l 1,75,-1
EndSplineSet
Validated: 1
EndChar

StartChar: questiondown
Encoding: 191 191 119
Width: 1235
GlyphClass: 2
Flags: W
HStem: -430 92<449.929 766.096> 856 264<821.959 977.602>
VStem: 139 233<-256.438 89.0066> 768 265<910.821 1066.48> 806 108<666.108 780> 1088 15<72.3586 86>
LayerCount: 2
Fore
SplineSet
927 1120 m 128,-1,1
 981 1120 981 1120 1011 1082 c 0,2,3
 1033 1054 1033 1054 1033 1017 c 0,4,5
 1033 1003 1033 1003 1029 988 c 0,6,7
 1017 933 1017 933 971 894.5 c 128,-1,8
 925 856 925 856 871 856 c 128,-1,9
 817 856 817 856 788 894 c 0,10,11
 768 920 768 920 768 958 c 0,12,13
 768 973 768 973 771 988 c 0,14,15
 783 1043 783 1043 828 1081.5 c 128,-1,0
 873 1120 873 1120 927 1120 c 128,-1,1
549 -430 m 0,16,17
 341 -430 341 -430 230 -317 c 0,18,19
 139 -225 139 -225 139 -96 c 0,20,21
 139 -53 139 -53 149 -7 c 0,22,23
 194 205 194 205 427 365 c 2,24,-1
 572 465 l 2,25,26
 768 600 768 600 806 780 c 1,27,-1
 914 780 l 1,28,29
 861 530 861 530 634 340 c 2,30,-1
 582 296 l 2,31,32
 419 159 419 159 384 -7 c 0,33,34
 372 -65 372 -65 372 -112 c 0,35,36
 372 -157 372 -157 383 -193 c 0,37,38
 430 -338 430 -338 590 -338 c 0,39,40
 763 -338 763 -338 906 -185 c 0,41,42
 1023 -60 1023 -60 1088 86 c 1,43,-1
 1103 86 l 1,44,-1
 1033 -246 l 1,45,46
 819 -430 819 -430 549 -430 c 0,16,17
EndSplineSet
Validated: 1
EndChar

StartChar: endash
Encoding: 8211 8211 120
Width: 1218
GlyphClass: 2
Flags: W
HStem: 680 150<411 1128>
LayerCount: 2
Fore
SplineSet
411 830 m 1,0,-1
 1244 830 l 1,1,-1
 1128 680 l 1,2,-1
 295 680 l 1,3,-1
 411 830 l 1,0,-1
EndSplineSet
Validated: 1
EndChar

StartChar: emdash
Encoding: 8212 8212 121
Width: 1533
GlyphClass: 2
Flags: W
HStem: 680 150<411 1443>
LayerCount: 2
Fore
SplineSet
411 830 m 1,0,-1
 1559 830 l 1,1,-1
 1443 680 l 1,2,-1
 295 680 l 1,3,-1
 411 830 l 1,0,-1
EndSplineSet
Validated: 1
EndChar

StartChar: afii00208
Encoding: 8213 8213 122
Width: 1533
GlyphClass: 2
Flags: W
HStem: 680 150<411 1443>
LayerCount: 2
Fore
SplineSet
411 830 m 1,0,-1
 1559 830 l 1,1,-1
 1443 680 l 1,2,-1
 295 680 l 1,3,-1
 411 830 l 1,0,-1
EndSplineSet
Validated: 1
EndChar

StartChar: quoteleft
Encoding: 8216 8216 123
Width: 401
GlyphClass: 2
Flags: W
HStem: 1136 444
VStem: 321 266<1183.24 1345.19>
LayerCount: 2
Fore
SplineSet
687 1580 m 1,0,-1
 684 1567 l 1,1,2
 597 1523 597 1523 535 1456 c 0,3,4
 504 1422 504 1422 480 1377 c 1,5,6
 544 1377 544 1377 567 1346 c 0,7,8
 587 1320 587 1320 587 1286 c 0,9,10
 587 1274 587 1274 584 1260 c 0,11,12
 573 1208 573 1208 529 1171 c 0,13,14
 487 1136 487 1136 432 1136 c 0,15,16
 380 1136 380 1136 350 1170 c 0,17,18
 321 1204 321 1204 321 1252 c 0,19,20
 321 1275 321 1275 325 1290 c 0,21,22
 341 1362 341 1362 400 1435 c 0,23,24
 479 1531 479 1531 597 1568 c 0,25,26
 636 1580 636 1580 687 1580 c 1,0,-1
EndSplineSet
Validated: 1
EndChar

StartChar: quoteright
Encoding: 8217 8217 124
Width: 401
GlyphClass: 2
Flags: W
HStem: 1136 444
VStem: 392 266<1370.81 1532.76>
LayerCount: 2
Fore
SplineSet
292 1136 m 1,0,-1
 295 1149 l 1,1,2
 382 1193 382 1193 444 1260 c 0,3,4
 475 1294 475 1294 499 1339 c 1,5,6
 435 1339 435 1339 412 1370 c 0,7,8
 392 1396 392 1396 392 1430 c 0,9,10
 392 1442 392 1442 395 1456 c 0,11,12
 406 1508 406 1508 450 1545 c 0,13,14
 492 1580 492 1580 547 1580 c 0,15,16
 599 1580 599 1580 629 1546 c 0,17,18
 658 1512 658 1512 658 1464 c 0,19,20
 658 1441 658 1441 654 1426 c 0,21,22
 638 1354 638 1354 579 1281 c 0,23,24
 500 1185 500 1185 382 1148 c 0,25,26
 343 1136 343 1136 292 1136 c 1,0,-1
EndSplineSet
Validated: 1
EndChar

StartChar: quotesinglbase
Encoding: 8218 8218 125
Width: 368
GlyphClass: 2
Flags: W
HStem: -221 444
VStem: 70 266<13.8145 175.758>
LayerCount: 2
Fore
SplineSet
-30 -221 m 1,0,-1
 -27 -208 l 1,1,2
 60 -164 60 -164 122 -97 c 0,3,4
 153 -63 153 -63 177 -18 c 1,5,6
 113 -18 113 -18 90 13 c 0,7,8
 70 39 70 39 70 73 c 0,9,10
 70 85 70 85 73 99 c 0,11,12
 84 151 84 151 128 188 c 0,13,14
 170 223 170 223 225 223 c 0,15,16
 277 223 277 223 307 189 c 0,17,18
 336 155 336 155 336 107 c 0,19,20
 336 84 336 84 332 69 c 0,21,22
 316 -3 316 -3 257 -76 c 0,23,24
 178 -172 178 -172 60 -209 c 0,25,26
 21 -221 21 -221 -30 -221 c 1,0,-1
EndSplineSet
Validated: 1
EndChar

StartChar: quotereversed
Encoding: 8219 8219 126
Width: 401
GlyphClass: 2
Flags: W
HStem: 1339 241<472.664 578.805>
VStem: 348 281<1372.7 1518.81>
LayerCount: 2
Fore
SplineSet
518 1580 m 0,0,1
 578 1580 578 1580 606 1544 c 0,2,3
 629 1514 629 1514 629 1475 c 0,4,5
 629 1460 629 1460 626 1445 c 0,6,7
 616 1398 616 1398 580 1369 c 0,8,9
 542 1339 542 1339 472 1339 c 1,10,11
 476 1294 476 1294 493 1260 c 0,12,13
 527 1193 527 1193 595 1149 c 1,14,-1
 592 1136 l 1,15,16
 541 1136 541 1136 508 1148 c 0,17,18
 406 1185 406 1185 367 1281 c 0,19,20
 348 1328 348 1328 348 1377 c 0,21,22
 348 1402 348 1402 353 1427 c 0,23,24
 368 1506 368 1506 420 1546 c 0,25,26
 464 1580 464 1580 518 1580 c 0,0,1
EndSplineSet
Validated: 1
EndChar

StartChar: quotedblleft
Encoding: 8220 8220 127
Width: 685
GlyphClass: 2
Flags: W
HStem: 1136 241<480 539.027 797 856.027>
VStem: 321 266<1183.24 1345.19> 638 266<1183.24 1345.19>
LayerCount: 2
Fore
SplineSet
1004 1580 m 1,0,-1
 1001 1567 l 1,1,2
 914 1523 914 1523 852 1456 c 0,3,4
 821 1422 821 1422 797 1377 c 1,5,6
 861 1377 861 1377 884 1346 c 0,7,8
 904 1320 904 1320 904 1286 c 0,9,10
 904 1274 904 1274 901 1260 c 0,11,12
 890 1208 890 1208 846 1171 c 0,13,14
 804 1136 804 1136 749 1136 c 0,15,16
 697 1136 697 1136 667 1170 c 0,17,18
 638 1204 638 1204 638 1252 c 0,19,20
 638 1275 638 1275 642 1290 c 0,21,22
 658 1362 658 1362 717 1435 c 0,23,24
 796 1531 796 1531 914 1568 c 0,25,26
 953 1580 953 1580 1004 1580 c 1,0,-1
687 1580 m 1,27,-1
 684 1567 l 1,28,29
 597 1523 597 1523 535 1456 c 0,30,31
 504 1422 504 1422 480 1377 c 1,32,33
 544 1377 544 1377 567 1346 c 0,34,35
 587 1320 587 1320 587 1286 c 0,36,37
 587 1274 587 1274 584 1260 c 0,38,39
 573 1208 573 1208 529 1171 c 0,40,41
 487 1136 487 1136 432 1136 c 0,42,43
 380 1136 380 1136 350 1170 c 0,44,45
 321 1204 321 1204 321 1252 c 0,46,47
 321 1275 321 1275 325 1290 c 0,48,49
 341 1362 341 1362 400 1435 c 0,50,51
 479 1531 479 1531 597 1568 c 0,52,53
 636 1580 636 1580 687 1580 c 1,27,-1
EndSplineSet
Validated: 1
EndChar

StartChar: quotedblright
Encoding: 8221 8221 128
Width: 685
GlyphClass: 2
Flags: W
HStem: 1339 241<406.973 466 723.973 783>
VStem: 359 266<1370.81 1532.76> 676 266<1370.81 1532.76>
LayerCount: 2
Fore
SplineSet
576 1136 m 1,0,-1
 579 1149 l 1,1,2
 666 1193 666 1193 728 1260 c 0,3,4
 759 1294 759 1294 783 1339 c 1,5,6
 719 1339 719 1339 696 1370 c 0,7,8
 676 1396 676 1396 676 1430 c 0,9,10
 676 1442 676 1442 679 1456 c 0,11,12
 690 1508 690 1508 734 1545 c 0,13,14
 776 1580 776 1580 831 1580 c 0,15,16
 883 1580 883 1580 913 1546 c 0,17,18
 942 1512 942 1512 942 1464 c 0,19,20
 942 1441 942 1441 938 1426 c 0,21,22
 922 1354 922 1354 863 1281 c 0,23,24
 784 1185 784 1185 666 1148 c 0,25,26
 627 1136 627 1136 576 1136 c 1,0,-1
259 1136 m 1,27,-1
 262 1149 l 1,28,29
 349 1193 349 1193 411 1260 c 0,30,31
 442 1294 442 1294 466 1339 c 1,32,33
 402 1339 402 1339 379 1370 c 0,34,35
 359 1396 359 1396 359 1430 c 0,36,37
 359 1442 359 1442 362 1456 c 0,38,39
 373 1508 373 1508 417 1545 c 0,40,41
 459 1580 459 1580 514 1580 c 0,42,43
 566 1580 566 1580 596 1546 c 0,44,45
 625 1512 625 1512 625 1464 c 0,46,47
 625 1441 625 1441 621 1426 c 0,48,49
 605 1354 605 1354 546 1281 c 0,50,51
 467 1185 467 1185 349 1148 c 0,52,53
 310 1136 310 1136 259 1136 c 1,27,-1
EndSplineSet
Validated: 1
EndChar

StartChar: quotedblbase
Encoding: 8222 8222 129
Width: 685
GlyphClass: 2
Flags: W
HStem: -18 241<117.973 177 434.973 494>
VStem: 70 266<13.8145 175.758> 387 266<13.8145 175.758>
LayerCount: 2
Fore
SplineSet
287 -221 m 1,0,-1
 290 -208 l 1,1,2
 377 -164 377 -164 439 -97 c 0,3,4
 470 -63 470 -63 494 -18 c 1,5,6
 430 -18 430 -18 407 13 c 0,7,8
 387 39 387 39 387 73 c 0,9,10
 387 85 387 85 390 99 c 0,11,12
 401 151 401 151 445 188 c 0,13,14
 487 223 487 223 542 223 c 0,15,16
 594 223 594 223 624 189 c 0,17,18
 653 155 653 155 653 107 c 0,19,20
 653 84 653 84 649 69 c 0,21,22
 633 -3 633 -3 574 -76 c 0,23,24
 495 -172 495 -172 377 -209 c 0,25,26
 338 -221 338 -221 287 -221 c 1,0,-1
-30 -221 m 1,27,-1
 -27 -208 l 1,28,29
 60 -164 60 -164 122 -97 c 0,30,31
 153 -63 153 -63 177 -18 c 1,32,33
 113 -18 113 -18 90 13 c 0,34,35
 70 39 70 39 70 73 c 0,36,37
 70 85 70 85 73 99 c 0,38,39
 84 151 84 151 128 188 c 0,40,41
 170 223 170 223 225 223 c 0,42,43
 277 223 277 223 307 189 c 0,44,45
 336 155 336 155 336 107 c 0,46,47
 336 84 336 84 332 69 c 0,48,49
 316 -3 316 -3 257 -76 c 0,50,51
 178 -172 178 -172 60 -209 c 0,52,53
 21 -221 21 -221 -30 -221 c 1,27,-1
EndSplineSet
Validated: 1
EndChar

StartChar: dagger
Encoding: 8224 8224 130
Width: 1390
VWidth: 0
GlyphClass: 2
Flags: W
HStem: 935 100<661.193 844 965 1147.81>
DStem2: 636.277 -40 736.277 -40 0.207912 0.978148<391.567 996.882 1119.85 1254.85>
LayerCount: 2
Fore
SplineSet
681 -40 m 1,0,1
 659 105 659 105 525 159 c 1,2,-1
 527 169 l 1,3,4
 693 224 693 224 723 368 c 2,5,-1
 844 935 l 1,6,-1
 757 935 l 2,7,8
 614 935 614 935 525 781 c 1,9,-1
 515 781 l 1,10,11
 492 927 492 927 358 980 c 1,12,-1
 360 990 l 1,13,14
 516 1043 516 1043 602 1189 c 1,15,-1
 612 1189 l 1,16,17
 634 1035 634 1035 778 1035 c 2,18,-1
 865 1035 l 1,19,-1
 888 1142 l 2,20,21
 893 1167 893 1167 893 1189 c 0,22,23
 893 1295 893 1295 776 1341 c 1,24,-1
 778 1351 l 1,25,26
 935 1405 935 1405 1019 1550 c 1,27,-1
 1029 1550 l 1,28,29
 1051 1405 1051 1405 1186 1351 c 1,30,-1
 1184 1341 l 1,31,32
 1018 1286 1018 1286 988 1142 c 2,33,-1
 965 1035 l 1,34,-1
 1052 1035 l 2,35,36
 1195 1035 1195 1035 1284 1189 c 1,37,-1
 1294 1189 l 1,38,39
 1317 1043 1317 1043 1450 990 c 1,40,-1
 1448 980 l 1,41,42
 1292 927 1292 927 1207 781 c 1,43,-1
 1197 781 l 1,44,45
 1175 935 1175 935 1031 935 c 2,46,-1
 944 935 l 1,47,-1
 823 368 l 2,48,49
 818 343 818 343 818 321 c 0,50,51
 818 215 818 215 935 169 c 1,52,-1
 933 159 l 1,53,54
 776 105 776 105 691 -40 c 1,55,-1
 681 -40 l 1,0,1
EndSplineSet
Validated: 19457
EndChar

StartChar: daggerdbl
Encoding: 8225 8225 131
Width: 1390
VWidth: 0
GlyphClass: 2
Flags: W
HStem: 475 100<563.193 746 867 1049.81> 935 100<661.193 844 965 1147.81>
DStem2: 636.277 -40 736.277 -40 0.207912 0.978148<391.567 526.559 649.531 996.882 1119.85 1254.85>
LayerCount: 2
Fore
SplineSet
681 -40 m 1,0,1
 659 105 659 105 525 159 c 1,2,-1
 527 169 l 1,3,4
 693 224 693 224 723 368 c 2,5,-1
 746 475 l 1,6,-1
 659 475 l 2,7,8
 516 475 516 475 427 321 c 1,9,-1
 417 321 l 1,10,11
 394 467 394 467 261 520 c 1,12,-1
 263 530 l 1,13,14
 419 583 419 583 504 729 c 1,15,-1
 514 729 l 1,16,17
 536 575 536 575 680 575 c 2,18,-1
 767 575 l 1,19,-1
 844 935 l 1,20,-1
 757 935 l 2,21,22
 614 935 614 935 525 781 c 1,23,-1
 515 781 l 1,24,25
 492 927 492 927 358 980 c 1,26,-1
 360 990 l 1,27,28
 516 1043 516 1043 602 1189 c 1,29,-1
 612 1189 l 1,30,31
 634 1035 634 1035 778 1035 c 2,32,-1
 865 1035 l 1,33,-1
 888 1142 l 2,34,35
 893 1167 893 1167 893 1189 c 0,36,37
 893 1295 893 1295 776 1341 c 1,38,-1
 778 1351 l 1,39,40
 935 1405 935 1405 1019 1550 c 1,41,-1
 1029 1550 l 1,42,43
 1051 1405 1051 1405 1186 1351 c 1,44,-1
 1184 1341 l 1,45,46
 1018 1286 1018 1286 988 1142 c 2,47,-1
 965 1035 l 1,48,-1
 1052 1035 l 2,49,50
 1195 1035 1195 1035 1284 1189 c 1,51,-1
 1294 1189 l 1,52,53
 1317 1043 1317 1043 1450 990 c 1,54,-1
 1448 980 l 1,55,56
 1292 927 1292 927 1207 781 c 1,57,-1
 1197 781 l 1,58,59
 1175 935 1175 935 1031 935 c 2,60,-1
 944 935 l 1,61,-1
 867 575 l 1,62,-1
 954 575 l 2,63,64
 1097 575 1097 575 1186 729 c 1,65,-1
 1196 729 l 1,66,67
 1219 583 1219 583 1353 530 c 1,68,-1
 1351 520 l 1,69,70
 1195 467 1195 467 1109 321 c 1,71,-1
 1099 321 l 1,72,73
 1077 475 1077 475 933 475 c 2,74,-1
 846 475 l 1,75,-1
 823 368 l 2,76,77
 818 343 818 343 818 321 c 0,78,79
 818 215 818 215 935 169 c 1,80,-1
 933 159 l 1,81,82
 776 105 776 105 691 -40 c 1,83,-1
 681 -40 l 1,0,1
EndSplineSet
Validated: 19457
EndChar

StartChar: bullet
Encoding: 8226 8226 132
Width: 880
GlyphClass: 2
Flags: W
HStem: 470 572<497.541 703.718>
VStem: 304 594<659.258 852.742>
LayerCount: 2
Fore
SplineSet
661 1042 m 0,0,1
 780 1042 780 1042 848 958 c 0,2,3
 898 896 898 896 898 818 c 0,4,5
 898 788 898 788 891 756 c 0,6,7
 866 638 866 638 763 554 c 128,-1,8
 660 470 660 470 540 470 c 128,-1,9
 420 470 420 470 353 554 c 0,10,11
 304 615 304 615 304 695 c 0,12,13
 304 724 304 724 311 756 c 0,14,15
 336 874 336 874 438.5 958 c 128,-1,16
 541 1042 541 1042 661 1042 c 0,0,1
EndSplineSet
Validated: 1
EndChar

StartChar: ellipsis
Encoding: 8230 8230 133
Width: 1125
GlyphClass: 2
Flags: W
HStem: -20 264<125.398 281.041 508.398 664.041 891.398 1047.04>
VStem: 70 265<33.5176 189.179> 453 265<33.5176 189.179> 836 265<33.5176 189.179>
CounterMasks: 1 70
LayerCount: 2
Fore
SplineSet
942 -20 m 128,-1,1
 888 -20 888 -20 858 18 c 0,2,3
 836 46 836 46 836 83 c 0,4,5
 836 97 836 97 840 112 c 0,6,7
 852 167 852 167 898 205.5 c 128,-1,8
 944 244 944 244 998 244 c 128,-1,9
 1052 244 1052 244 1081 206 c 0,10,11
 1101 180 1101 180 1101 142 c 0,12,13
 1101 127 1101 127 1098 112 c 0,14,15
 1086 57 1086 57 1041 18.5 c 128,-1,0
 996 -20 996 -20 942 -20 c 128,-1,1
559 -20 m 128,-1,17
 505 -20 505 -20 475 18 c 0,18,19
 453 46 453 46 453 83 c 0,20,21
 453 97 453 97 457 112 c 0,22,23
 469 167 469 167 515 205.5 c 128,-1,24
 561 244 561 244 615 244 c 128,-1,25
 669 244 669 244 698 206 c 0,26,27
 718 180 718 180 718 142 c 0,28,29
 718 127 718 127 715 112 c 0,30,31
 703 57 703 57 658 18.5 c 128,-1,16
 613 -20 613 -20 559 -20 c 128,-1,17
176 -20 m 128,-1,33
 122 -20 122 -20 92 18 c 0,34,35
 70 46 70 46 70 83 c 0,36,37
 70 97 70 97 74 112 c 0,38,39
 86 167 86 167 132 205.5 c 128,-1,40
 178 244 178 244 232 244 c 128,-1,41
 286 244 286 244 315 206 c 0,42,43
 335 180 335 180 335 142 c 0,44,45
 335 127 335 127 332 112 c 0,46,47
 320 57 320 57 275 18.5 c 128,-1,32
 230 -20 230 -20 176 -20 c 128,-1,33
EndSplineSet
Validated: 1
EndChar

StartChar: perthousand
Encoding: 8240 8240 134
Width: 2293
GlyphClass: 2
Flags: W
HStem: -20 84<1061.46 1236.83 1765.46 1940.83> 580 84<1151.9 1327.62 1855.9 2031.62> 846 84<582.75 758.118> 1446 84<672.895 848.623>
VStem: 392 161<954.355 1289.19> 878 161<81.5359 436.375 1087.13 1422.75> 1357 161<220.814 555.645> 1575 160<88.6777 423.047> 2061 161<220.814 555.645>
DStem2: 273 34 388 -40 0.63679 0.771037<16.1741 1966.15>
LayerCount: 2
Fore
SplineSet
1826 -20 m 128,-1,1
 1708 -20 1708 -20 1635 62 c 0,2,3
 1575 129 1575 129 1575 231 c 0,4,5
 1576 274 1576 274 1586 322 c 0,6,7
 1622 488 1622 488 1746 582 c 0,8,9
 1853 664 1853 664 1971 664 c 128,-1,10
 2089 664 2089 664 2162 582 c 0,11,12
 2222 515 2222 515 2222 413 c 0,13,14
 2222 370 2222 370 2212 322 c 0,15,16
 2176 156 2176 156 2051 62 c 0,17,0
 1944 -20 1944 -20 1826 -20 c 128,-1,1
1844.5 64 m 128,-1,19
 1910 64 1910 64 1968 134 c 0,20,21
 2020 197 2020 197 2047 322 c 0,22,23
 2061 386 2061 386 2061 433 c 0,24,25
 2061 479 2061 479 2048 510 c 0,26,27
 2020 580 2020 580 1953 580 c 0,28,29
 1887 580 1887 580 1828 510 c 0,30,31
 1776 448 1776 448 1749 322 c 0,32,33
 1735 257 1735 257 1735 210 c 0,34,35
 1735 164 1735 164 1748 134 c 0,36,18
 1779 64 1779 64 1844.5 64 c 128,-1,19
1122 -20 m 128,-1,38
 1004 -20 1004 -20 931 62 c 0,39,40
 871 129 871 129 871 231 c 0,41,42
 872 274 872 274 882 322 c 0,43,44
 918 488 918 488 1042 582 c 0,45,46
 1149 664 1149 664 1267 664 c 128,-1,47
 1385 664 1385 664 1458 582 c 0,48,49
 1518 515 1518 515 1518 413 c 0,50,51
 1518 370 1518 370 1508 322 c 0,52,53
 1472 156 1472 156 1347 62 c 0,54,37
 1240 -20 1240 -20 1122 -20 c 128,-1,38
1140.5 64 m 128,-1,56
 1206 64 1206 64 1264 134 c 0,57,58
 1316 197 1316 197 1343 322 c 0,59,60
 1357 386 1357 386 1357 433 c 0,61,62
 1357 479 1357 479 1344 510 c 0,63,64
 1316 580 1316 580 1249 580 c 0,65,66
 1183 580 1183 580 1124 510 c 0,67,68
 1072 448 1072 448 1045 322 c 0,69,70
 1031 257 1031 257 1031 210 c 0,71,72
 1031 164 1031 164 1044 134 c 0,73,55
 1075 64 1075 64 1140.5 64 c 128,-1,56
788 1530 m 128,-1,75
 906 1530 906 1530 979 1448 c 0,76,77
 1039 1381 1039 1381 1039 1279 c 0,78,79
 1038 1236 1038 1236 1028 1188 c 0,80,81
 992 1022 992 1022 868 928 c 0,82,83
 761 846 761 846 643 846 c 128,-1,84
 525 846 525 846 452 928 c 0,85,86
 392 995 392 995 392 1097 c 0,87,88
 392 1140 392 1140 402 1188 c 0,89,90
 438 1354 438 1354 563 1448 c 0,91,74
 670 1530 670 1530 788 1530 c 128,-1,75
770 1446 m 0,92,93
 704 1446 704 1446 645 1376 c 0,94,95
 593 1314 593 1314 567 1188 c 0,96,97
 553 1123 553 1123 553 1076 c 0,98,99
 553 1030 553 1030 566 1000 c 0,100,101
 596 930 596 930 661.5 930 c 128,-1,102
 727 930 727 930 786 1000 c 0,103,104
 838 1063 838 1063 864 1188 c 0,105,106
 877 1251 877 1251 878 1298 c 0,107,108
 878 1344 878 1344 865 1376 c 0,109,110
 837 1446 837 1446 770 1446 c 0,92,93
1525 1550 m 1,111,-1
 1645 1482 l 1,112,-1
 388 -40 l 1,113,-1
 273 34 l 1,114,-1
 1525 1550 l 1,111,-1
EndSplineSet
Validated: 1
EndChar

StartChar: minute
Encoding: 8242 8242 135
Width: 371
GlyphClass: 2
Flags: W
HStem: 1150 400
VStem: 303 335
LayerCount: 2
Fore
SplineSet
487 1550 m 1,0,-1
 638 1491 l 1,1,-1
 409 1150 l 1,2,-1
 303 1192 l 1,3,-1
 487 1550 l 1,0,-1
EndSplineSet
Validated: 1
EndChar

StartChar: second
Encoding: 8243 8243 136
Width: 608
GlyphClass: 2
Flags: W
HStem: 1150 400
VStem: 303 572
LayerCount: 2
Fore
SplineSet
724 1550 m 1,0,-1
 875 1491 l 1,1,-1
 646 1150 l 1,2,-1
 540 1192 l 1,3,-1
 724 1550 l 1,0,-1
487 1550 m 1,4,-1
 638 1491 l 1,5,-1
 409 1150 l 1,6,-1
 303 1192 l 1,7,-1
 487 1550 l 1,4,-1
EndSplineSet
Validated: 1
EndChar

StartChar: guilsinglleft
Encoding: 8249 8249 137
Width: 836
GlyphClass: 2
Flags: W
VStem: 305 574
DStem2: 458 779 305 730 0.443589 -0.89623<0 508.905> 305 730 458 779 0.660361 0.750948<137.832 761.704>
LayerCount: 2
Fore
SplineSet
808 1302 m 1,0,-1
 879 1252 l 1,1,-1
 458 779 l 1,2,-1
 690 326 l 1,3,-1
 550 235 l 1,4,-1
 305 730 l 1,5,-1
 808 1302 l 1,0,-1
EndSplineSet
Validated: 1
EndChar

StartChar: guilsinglright
Encoding: 8250 8250 138
Width: 836
GlyphClass: 2
Flags: W
VStem: 284 574
DStem2: 284 285 355 235 0.660361 0.750948<9.33827 633.211> 613 1302 473 1211 0.443589 -0.89623<19.4545 528.36>
LayerCount: 2
Fore
SplineSet
355 235 m 1,0,-1
 284 285 l 1,1,-1
 705 758 l 1,2,-1
 473 1211 l 1,3,-1
 613 1302 l 1,4,-1
 858 807 l 1,5,-1
 355 235 l 1,0,-1
EndSplineSet
Validated: 1
EndChar

StartChar: fraction
Encoding: 8260 8260 139
Width: 1084
GlyphClass: 2
Flags: W
DStem2: 17 34 132 -40 0.63679 0.771037<16.1741 1966.15>
LayerCount: 2
Fore
SplineSet
1269 1550 m 1,0,-1
 1389 1482 l 1,1,-1
 132 -40 l 1,2,-1
 17 34 l 1,3,-1
 1269 1550 l 1,0,-1
EndSplineSet
Validated: 1
EndChar

StartChar: Euro
Encoding: 8364 8364 140
Width: 1592
GlyphClass: 2
Flags: W
HStem: -20 92<746.017 1139.94> 607 90<250 339 583 1059> 810 90<293 373 634 1102> 1438 92<1015.94 1392.1>
VStem: 337 232<311.657 607> 350 233<697 809.156> 1579 15<950 983.225> 1702 15<1514.69 1530>
LayerCount: 2
Fore
SplineSet
895 -20 m 0,0,1
 581 -20 581 -20 423 230 c 0,2,3
 337 366 337 366 337 550 c 0,4,5
 337 578 337 578 339 607 c 1,6,-1
 179 607 l 1,7,-1
 250 697 l 1,8,-1
 350 697 l 1,9,10
 354 726 354 726 360 755 c 0,11,12
 366 783 366 783 373 810 c 1,13,-1
 222 810 l 1,14,-1
 293 900 l 1,15,-1
 401 900 l 1,16,17
 480 1124 480 1124 646 1280 c 0,18,19
 912 1530 912 1530 1227 1530 c 0,20,21
 1357 1530 1357 1530 1443 1479 c 128,-1,22
 1529 1428 1529 1428 1580 1428 c 0,23,24
 1659 1428 1659 1428 1702 1530 c 1,25,-1
 1717 1530 l 1,26,-1
 1594 950 l 1,27,-1
 1579 950 l 1,28,29
 1565 1166 1565 1166 1488 1296 c 0,30,31
 1404 1438 1404 1438 1208 1438 c 0,32,33
 968 1438 968 1438 785 1191 c 0,34,35
 688 1061 688 1061 634 900 c 1,36,-1
 1171 900 l 1,37,-1
 1102 810 l 1,38,-1
 607 810 l 1,39,40
 599 784 599 784 593.5 755 c 128,-1,41
 588 726 588 726 583 697 c 1,42,-1
 1128 697 l 1,43,-1
 1059 607 l 1,44,-1
 572 607 l 1,45,46
 569 568 569 568 569 531 c 0,47,48
 569 400 569 400 598 313 c 0,49,50
 680 72 680 72 916 72 c 0,51,52
 1221 72 1221 72 1471 373 c 1,53,-1
 1441 230 l 1,54,55
 1222 -20 1222 -20 895 -20 c 0,0,1
EndSplineSet
Validated: 1
EndChar

StartChar: afii61248
Encoding: 8453 8453 141
Width: 1774
GlyphClass: 2
Flags: W
HStem: -20 56<1174.82 1352.51> 708 57<1308.56 1492.12> 745 56<616.654 831.123> 1473 57<739.453 936.111>
VStem: 380 155<871.592 1237.61> 949 156<106.592 476.784> 1030 17<1229 1265.64> 1095 17<1515.72 1533> 1560 155<269.37 636.288>
DStem2: 345 34 460 -40 0.63679 0.771037<16.1741 1966.15>
LayerCount: 2
Fore
SplineSet
1262 36 m 0,0,1
 1358 36 1358 36 1451 155 c 0,2,3
 1518 241 1518 241 1546 370 c 0,4,5
 1560 432 1560 432 1560 487 c 128,-1,6
 1560 542 1560 542 1546 591 c 0,7,8
 1514 708 1514 708 1402 708 c 0,9,10
 1301 708 1301 708 1213 589 c 0,11,12
 1142 494 1142 494 1118 370 c 0,13,14
 1105 304 1105 304 1105 250 c 128,-1,15
 1105 196 1105 196 1118 154 c 0,16,17
 1153 36 1153 36 1262 36 c 0,0,1
1249 -20 m 128,-1,19
 1071 -20 1071 -20 992 108 c 0,20,21
 949 177 949 177 949 270 c 0,22,23
 949 319 949 319 961 374 c 0,24,25
 995 534 995 534 1104 636 c 0,26,27
 1240 765 1240 765 1416 765 c 0,28,29
 1590 765 1590 765 1672 636 c 0,30,31
 1715 569 1715 569 1715 477 c 0,32,33
 1715 429 1715 429 1703 374 c 0,34,35
 1669 213 1669 213 1560 108 c 0,36,18
 1427 -20 1427 -20 1249 -20 c 128,-1,19
1597 1550 m 1,37,-1
 1717 1482 l 1,38,-1
 460 -40 l 1,39,-1
 345 34 l 1,40,-1
 1597 1550 l 1,37,-1
846 1530 m 0,41,42
 917 1530 917 1530 961 1504 c 128,-1,43
 1005 1478 1005 1478 1030 1478 c 0,44,45
 1072 1478 1072 1478 1095 1533 c 1,46,-1
 1112 1533 l 1,47,-1
 1047 1229 l 1,48,-1
 1030 1229 l 1,49,50
 1015 1473 1015 1473 834 1473 c 0,51,52
 732 1473 732 1473 644 1354 c 24,53,54
 573 1258 573 1258 548 1135 c 0,55,56
 535 1070 535 1070 535 1017 c 0,57,58
 535 961 535 961 550 919 c 0,59,60
 593 801 593 801 718 801 c 0,61,62
 861 801 861 801 987 947 c 1,63,-1
 972 874 l 1,64,65
 858 745 858 745 689 745 c 0,66,67
 501 745 501 745 423 873 c 0,68,69
 380 942 380 942 380 1035 c 0,70,71
 380 1084 380 1084 392 1139 c 0,72,73
 426 1299 426 1299 535 1401 c 0,74,75
 671 1530 671 1530 846 1530 c 0,41,42
EndSplineSet
Validated: 1
EndChar

StartChar: afii61289
Encoding: 8467 8467 142
Width: 958
GlyphClass: 2
Flags: W
HStem: -20 136<493.285 609.793> 0 21G<50 267.222> 1510 20G<957 1028>
LayerCount: 2
Fore
SplineSet
486 466 m 1,0,1
 648 708 648 708 737 860 c 0,2,3
 896 1134 896 1134 944 1359 c 1,4,5
 826 1238 826 1238 730 1067 c 0,6,7
 544 740 544 740 486 466 c 1,0,1
50 0 m 1,8,9
 205 158 205 158 304 282 c 1,10,11
 310 366 310 366 326 443 c 0,12,13
 366 629 366 629 459 848 c 0,14,15
 633 1251 633 1251 822 1434 c 0,16,17
 920 1530 920 1530 994 1530 c 0,18,19
 1062 1530 1062 1530 1086 1479 c 0,20,21
 1099 1453 1099 1453 1099 1410 c 0,22,23
 1099 1371 1099 1371 1088 1318 c 0,24,25
 1068 1226 1068 1226 1006 1072 c 0,26,27
 862 722 862 722 480 271 c 1,28,29
 480 116 480 116 536 116 c 0,30,31
 560 116 560 116 593.5 145 c 128,-1,32
 627 174 627 174 664 228 c 1,33,-1
 840 228 l 1,34,35
 736 100 736 100 659 40 c 128,-1,36
 582 -20 582 -20 498 -20 c 0,37,38
 378 -20 378 -20 324 90 c 1,39,-1
 251 0 l 1,40,-1
 50 0 l 1,8,9
EndSplineSet
Validated: 1
EndChar

StartChar: trademark
Encoding: 8482 8482 143
Width: 1956
GlyphClass: 2
Flags: W
HStem: 765 15<473 494.391 1583 1602.35 1906.99 1919> 1475 55<548.875 694.922 845.573 990.66>
DStem2: 550.117 745 690.117 745 0.207912 0.978148<148.86 712.288> 998 896 1063 895 0.341974 0.939709<-16.2557 403.443> 1250 1550 1194 1254 0.291608 -0.956538<266.805 624.126> 1432 953 1362 745 0.586234 0.810142<0 392.882> 1697 895 1838 896 0.061048 0.998135<-76.4336 336.655>
LayerCount: 2
Fore
SplineSet
863 765 m 1,0,-1
 866 780 l 1,1,2
 968 814 968 814 998 896 c 2,3,-1
 1236 1550 l 1,4,-1
 1250 1550 l 1,5,-1
 1432 953 l 1,6,-1
 1864 1550 l 1,7,-1
 1878 1550 l 1,8,-1
 1838 896 l 17,9,10
 1838 814 1838 814 1922 780 c 1,11,-1
 1919 765 l 1,12,-1
 1580 765 l 1,13,-1
 1583 780 l 1,14,15
 1691 813 1691 813 1697 895 c 9,16,-1
 1718 1231 l 1,17,-1
 1362 745 l 1,18,-1
 1348 745 l 1,19,-1
 1194 1254 l 1,20,-1
 1063 895 l 2,21,22
 1056 876 1056 876 1056 857 c 0,23,24
 1056 805 1056 805 1121 780 c 1,25,-1
 1118 765 l 1,26,-1
 863 765 l 1,0,-1
524 1530 m 1,27,-1
 1050 1530 l 1,28,-1
 1112 1359 l 1,29,-1
 1097 1359 l 1,30,31
 1006 1475 1006 1475 868 1475 c 2,32,-1
 862 1475 l 1,33,34
 840 1447 840 1447 830 1400 c 2,35,-1
 722 895 l 2,36,37
 718 877 718 877 718 861 c 0,38,39
 718 798 718 798 783 780 c 1,40,-1
 780 765 l 1,41,-1
 470 765 l 1,42,-1
 473 780 l 1,43,44
 563 803 563 803 582 895 c 2,45,-1
 690 1400 l 2,46,47
 695 1424 695 1424 695 1443 c 128,-1,48
 695 1462 695 1462 690 1475 c 1,49,-1
 684 1475 l 2,50,51
 545 1475 545 1475 404 1359 c 1,52,-1
 389 1359 l 1,53,-1
 524 1530 l 1,27,-1
EndSplineSet
Validated: 1
EndChar

StartChar: uni2126
Encoding: 8486 8486 144
Width: 1642
GlyphClass: 2
Flags: W
HStem: 0 21G<199.392 648.222 998 1451.15> 1438 92<949.756 1282.48>
VStem: 321 222<358.684 831.605> 1427 220<711.899 1231.9>
LayerCount: 2
Fore
SplineSet
206 0 m 1,0,-1
 93 342 l 1,1,-1
 108 342 l 1,2,3
 299 110 299 110 577 90 c 1,4,-1
 586 130 l 1,5,6
 321 275 321 275 321 577 c 0,7,8
 321 660 321 660 341 755 c 0,9,10
 426 1157 426 1157 713 1376 c 0,11,12
 915 1530 915 1530 1146 1530 c 128,-1,13
 1377 1530 1377 1530 1513 1376 c 0,14,15
 1647 1224 1647 1224 1647 984 c 0,16,17
 1647 878 1647 878 1621 755 c 0,18,19
 1533 339 1533 339 1112 130 c 1,20,-1
 1103 90 l 1,21,22
 1405 109 1405 109 1680 342 c 1,23,-1
 1695 342 l 1,24,-1
 1436 0 l 1,25,-1
 998 0 l 1,26,-1
 1036 180 l 1,27,28
 1312 375 1312 375 1393 754 c 0,29,30
 1427 914 1427 914 1427 1038 c 0,31,32
 1427 1204 1427 1204 1366 1305 c 0,33,34
 1285 1438 1285 1438 1126.5 1438 c 128,-1,35
 968 1438 968 1438 830 1305 c 0,36,37
 649 1129 649 1129 569 755 c 0,38,39
 543 632 543 632 543 530 c 0,40,41
 543 297 543 297 682 180 c 1,42,-1
 644 0 l 1,43,-1
 206 0 l 1,0,-1
EndSplineSet
Validated: 1
EndChar

StartChar: estimated
Encoding: 8494 8494 145
Width: 1330
GlyphClass: 2
Flags: W
HStem: -20 92<474.816 877.985> 525 80<477 1112> 1036 84<679.003 1065.2>
LayerCount: 2
Fore
SplineSet
1147 204 m 1,0,1
 1046 103 1046 103 964 58 c 0,2,3
 821 -20 821 -20 661 -20 c 0,4,5
 405 -20 405 -20 286 139 c 0,6,7
 201 252 201 252 201 407 c 0,8,9
 201 474 201 474 217 550 c 0,10,11
 268 788 268 788 451 952 c 24,12,13
 640 1120 640 1120 904 1120 c 0,14,15
 1153 1120 1153 1120 1269 964 c 272,16,17
 1359 843 1359 843 1359 677 c 0,18,19
 1359 605 1359 605 1342 525 c 1,20,-1
 460 525 l 1,21,-1
 389 192 l 1,22,23
 474 72 474 72 681 72 c 256,24,25
 804 72 804 72 908 132 c 0,26,27
 1001 186 1001 186 1068 266 c 1,28,-1
 1147 204 l 1,0,1
477 605 m 1,29,-1
 1112 605 l 1,30,-1
 1175 903 l 1,31,32
 1072 1036 1072 1036 886 1036 c 0,33,34
 695 1036 695 1036 542 914 c 1,35,-1
 477 605 l 1,29,-1
EndSplineSet
Validated: 1
EndChar

StartChar: partialdiff
Encoding: 8706 8706 146
Width: 1285
GlyphClass: 2
Flags: W
HStem: -20 153<437.241 699.292> 870 170<722.652 999.301> 1378 152<776.721 1115.99>
VStem: 214 191<164.14 478.052> 1178 184<934.086 1313.68>
LayerCount: 2
Fore
SplineSet
508 -20 m 0,0,1
 214 -20 214 -20 214 240 c 0,2,3
 214 300 214 300 230 375 c 0,4,5
 284 631 284 631 459 815 c 0,6,7
 675 1040 675 1040 893 1040 c 0,8,9
 1080 1040 1080 1040 1150 930 c 1,10,11
 1178 1063 1178 1063 1178 1153 c 0,12,13
 1178 1202 1178 1202 1170 1239 c 0,14,15
 1139 1378 1139 1378 971 1378 c 0,16,17
 840 1378 840 1378 695 1294 c 1,18,-1
 732 1468 l 1,19,20
 879 1530 879 1530 1028 1530 c 0,21,22
 1362 1530 1362 1530 1362 1173 c 0,23,24
 1362 1069 1362 1069 1334 934 c 0,25,26
 1251 545 1251 545 1022.5 262.5 c 128,-1,27
 794 -20 794 -20 508 -20 c 0,0,1
553 133 m 0,28,29
 691 133 691 133 833 286 c 128,-1,30
 975 439 975 439 1065 680 c 1,31,32
 1061 765 1061 765 1008.5 817.5 c 128,-1,33
 956 870 956 870 880 870 c 0,34,35
 720 870 720 870 587.5 710 c 128,-1,36
 455 550 455 550 416 369 c 0,37,38
 405 319 405 319 405 280 c 0,39,40
 405 133 405 133 553 133 c 0,28,29
EndSplineSet
Validated: 1
EndChar

StartChar: uni2206
Encoding: 8710 8710 147
Width: 1660
GlyphClass: 2
Flags: W
HStem: 0 90<294 1304> 0 15<13 31.9023 1636.6 1650>
DStem2: 292 250 294 90 0.556616 0.83077<-126.303 1238.3> 1178 1550 1057 1228 0.222723 -0.974882<286.962 1449.28>
LayerCount: 2
Fore
SplineSet
10 0 m 1,0,-1
 13 15 l 1,1,2
 165 60 165 60 292 250 c 2,3,-1
 1163 1550 l 1,4,-1
 1178 1550 l 1,5,-1
 1475 250 l 18,6,7
 1519 58 1519 58 1653 15 c 1,8,-1
 1650 0 l 1,9,-1
 10 0 l 1,0,-1
294 90 m 1,10,-1
 1304 90 l 1,11,-1
 1057 1228 l 1,12,-1
 294 90 l 1,10,-1
EndSplineSet
Validated: 1
EndChar

StartChar: product
Encoding: 8719 8719 148
Width: 1548
GlyphClass: 2
Flags: W
HStem: -410 15<-4 17.8359 513.125 533 844 865.836 1361.12 1381> 1419 91<758.934 1374.03> 1495 15<401 417.219 1764.05 1786>
DStem2: 163.073 -410 363.073 -410 0.207912 0.978148<226.014 1776.45> 1011.07 -410 1211.07 -410 0.207912 0.978148<226.992 1789.43>
LayerCount: 2
Fore
SplineSet
-7 -410 m 1,0,-1
 -4 -395 l 1,1,2
 175 -351 175 -351 216 -161 c 2,3,-1
 518 1260 l 2,4,5
 526 1298 526 1298 526 1330 c 0,6,7
 526 1459 526 1459 398 1495 c 1,8,-1
 401 1510 l 1,9,-1
 1789 1510 l 1,10,-1
 1786 1495 l 1,11,12
 1606 1450 1606 1450 1566 1260 c 2,13,-1
 1264 -161 l 2,14,15
 1256 -199 1256 -199 1256 -231 c 0,16,17
 1256 -360 1256 -360 1384 -395 c 1,18,-1
 1381 -410 l 1,19,-1
 841 -410 l 1,20,-1
 844 -395 l 1,21,22
 1023 -352 1023 -352 1064 -161 c 2,23,-1
 1366 1260 l 2,24,25
 1376 1306 1376 1306 1376 1343 c 0,26,27
 1376 1387 1376 1387 1362 1419 c 1,28,-1
 790 1419 l 17,29,30
 740 1361 740 1361 718 1260 c 2,31,-1
 416 -161 l 2,32,33
 408 -200 408 -200 408 -232 c 0,34,35
 408 -360 408 -360 536 -395 c 1,36,-1
 533 -410 l 1,37,-1
 -7 -410 l 1,0,-1
EndSplineSet
Validated: 1
EndChar

StartChar: summation
Encoding: 8721 8721 149
Width: 1362
GlyphClass: 2
Flags: W
HStem: -410 91<365.009 987.062> 1419 91<697.312 1208.3>
DStem2: -4 -395 396 -161 0.617448 0.786612<344.87 1182.29> 946 535 726 535 0.323316 -0.946291<-822.282 -71.1295>
LayerCount: 2
Fore
SplineSet
-7 -410 m 1,0,-1
 -4 -395 l 9,1,-1
 726 535 l 1,2,-1
 398 1495 l 17,3,-1
 401 1510 l 1,4,-1
 1327 1510 l 1,5,-1
 1445 1188 l 1,6,-1
 1430 1188 l 1,7,8
 1256 1419 1256 1419 1000 1419 c 2,9,-1
 744 1419 l 1,10,11
 683 1386 683 1386 683 1315 c 0,12,13
 683 1286 683 1286 692 1260 c 2,14,-1
 946 535 l 1,15,-1
 396 -161 l 2,16,17
 363 -203 363 -203 363 -246 c 0,18,19
 363 -290 363 -290 380 -319 c 1,20,-1
 760 -319 l 2,21,22
 1016 -319 1016 -319 1288 -88 c 1,23,-1
 1303 -88 l 1,24,-1
 1049 -410 l 1,25,-1
 -7 -410 l 1,0,-1
EndSplineSet
Validated: 1
EndChar

StartChar: minus
Encoding: 8722 8722 150
Width: 1218
GlyphClass: 2
Flags: W
HStem: 680 150<411 1128>
LayerCount: 2
Fore
SplineSet
411 830 m 1,0,-1
 1244 830 l 1,1,-1
 1128 680 l 1,2,-1
 295 680 l 1,3,-1
 411 830 l 1,0,-1
EndSplineSet
Validated: 1
EndChar

StartChar: uni2215
Encoding: 8725 8725 151
Width: 1084
GlyphClass: 2
Flags: W
DStem2: 17 34 132 -40 0.63679 0.771037<16.1741 1966.15>
LayerCount: 2
Fore
SplineSet
1269 1550 m 1,0,-1
 1389 1482 l 1,1,-1
 132 -40 l 1,2,-1
 17 34 l 1,3,-1
 1269 1550 l 1,0,-1
EndSplineSet
Validated: 1
EndChar

StartChar: uni2219
Encoding: 8729 8729 152
Width: 359
GlyphClass: 2
Flags: W
HStem: 625 264<262.398 418.041>
VStem: 207 265<678.518 834.179>
LayerCount: 2
Fore
SplineSet
369 889 m 128,-1,1
 423 889 423 889 452 851 c 0,2,3
 472 825 472 825 472 787 c 0,4,5
 472 772 472 772 469 757 c 0,6,7
 457 702 457 702 412 663.5 c 128,-1,8
 367 625 367 625 313 625 c 128,-1,9
 259 625 259 625 229 663 c 0,10,11
 207 691 207 691 207 728 c 0,12,13
 207 742 207 742 211 757 c 0,14,15
 223 812 223 812 269 850.5 c 128,-1,0
 315 889 315 889 369 889 c 128,-1,1
EndSplineSet
Validated: 1
EndChar

StartChar: radical
Encoding: 8730 8730 153
Width: 1338
GlyphClass: 2
Flags: W
HStem: 741 90<227 390> 1550 90<1487 1657>
DStem2: 552 831 390 741 0.180104 -0.983647<59.3513 529.41> 646 310 548 -40 0.50851 0.861056<0 1495.37>
LayerCount: 2
Fore
SplineSet
533 -40 m 1,0,-1
 390 741 l 1,1,-1
 208 741 l 1,2,-1
 227 831 l 1,3,-1
 552 831 l 1,4,-1
 646 310 l 1,5,-1
 1433 1640 l 1,6,-1
 1677 1640 l 1,7,-1
 1657 1550 l 1,8,-1
 1487 1550 l 1,9,-1
 548 -40 l 1,10,-1
 533 -40 l 1,0,-1
EndSplineSet
Validated: 1
EndChar

StartChar: infinity
Encoding: 8734 8734 154
Width: 1658
GlyphClass: 2
Flags: W
HStem: 362 178<457.566 729.291> 362 80<1106.77 1377.06> 970 178<1248.51 1521.3> 1068 80<604.728 872.596>
VStem: 299 107<593.308 857.306> 1573 106<650.008 917.31>
DStem2: 851 710 1023 645 0.562865 0.826549<-199.321 436.745>
LayerCount: 2
Fore
SplineSet
740 1148 m 0,0,1
 850 1148 850 1148 931 1088 c 1,2,-1
 860 1015 l 1,3,4
 811 1068 811 1068 730 1068 c 0,5,6
 632 1068 632 1068 531 972 c 0,7,8
 438 884 438 884 411 758 c 0,9,10
 406 733 406 733 406 709 c 0,11,12
 406 646 406 646 445 598 c 0,13,14
 493 540 493 540 589 540 c 0,15,16
 736 540 736 540 851 710 c 2,17,-1
 956 865 l 2,18,19
 1148 1148 1148 1148 1371 1148 c 0,20,21
 1540 1148 1540 1148 1619 1042 c 0,22,23
 1679 962 1679 962 1679 852 c 0,24,25
 1679 805 1679 805 1668 752 c 0,26,27
 1633 586 1633 586 1497 468 c 0,28,29
 1376 362 1376 362 1239 362 c 0,30,31
 1129 362 1129 362 1048 422 c 1,32,-1
 1119 495 l 1,33,34
 1171 442 1171 442 1249 442 c 0,35,36
 1352 442 1352 442 1448 538 c 0,37,38
 1541 628 1541 628 1568 752 c 0,39,40
 1573 777 1573 777 1573 801 c 0,41,42
 1573 864 1573 864 1534 912 c 0,43,44
 1486 970 1486 970 1390 970 c 0,45,46
 1244 970 1244 970 1134 808 c 2,47,-1
 1023 645 l 2,48,49
 830 362 830 362 608 362 c 0,50,51
 439 362 439 362 359 468 c 0,52,53
 299 547 299 547 299 656 c 0,54,55
 299 704 299 704 311 758 c 0,56,57
 346 924 346 924 481 1042 c 0,58,59
 602 1148 602 1148 740 1148 c 0,0,1
EndSplineSet
Validated: 1
EndChar

StartChar: approxequal
Encoding: 8776 8776 155
Width: 1193
GlyphClass: 2
Flags: W
HStem: 406 151<844.047 1039.26> 568 151<391.201 588.953> 804 151<929.047 1124.26> 966 151<475.201 673.359>
VStem: 242 20<432 440.899> 326 20<830 838.899> 1171 19<684.101 693> 1256 19<1082.1 1091>
DStem2: 889 580 544 545 0.900056 -0.435774<-368.583 73.316> 974 978 628 943 0.900825 -0.434182<-369.498 73.0368>
LayerCount: 2
Fore
SplineSet
545 719 m 0,0,1
 602 719 602 719 668 687 c 2,2,-1
 889 580 l 2,3,4
 937 557 937 557 984 557 c 0,5,6
 1084 557 1084 557 1171 693 c 1,7,-1
 1190 693 l 1,8,9
 1109 406 1109 406 888 406 c 0,10,11
 831 406 831 406 765 438 c 2,12,-1
 544 545 l 2,13,14
 496 568 496 568 448 568 c 0,15,16
 349 568 349 568 262 432 c 1,17,-1
 242 432 l 1,18,19
 321 719 321 719 545 719 c 0,0,1
629 1117 m 0,20,21
 687 1117 687 1117 753 1085 c 2,22,-1
 974 978 l 2,23,24
 1022 955 1022 955 1069 955 c 0,25,26
 1169 955 1169 955 1256 1091 c 1,27,-1
 1275 1091 l 1,28,29
 1194 804 1194 804 973 804 c 0,30,31
 916 804 916 804 850 836 c 2,32,-1
 628 943 l 2,33,34
 580 966 580 966 532 966 c 0,35,36
 433 966 433 966 346 830 c 1,37,-1
 326 830 l 1,38,39
 405 1117 405 1117 629 1117 c 0,20,21
EndSplineSet
Validated: 1
EndChar

StartChar: notequal
Encoding: 8800 8800 156
Width: 1218
GlyphClass: 2
Flags: W
HStem: 490 150<371 504 620 623 739 1087> 870 150<452 804 920 923 1039 1168>
VStem: 251 116<170 286> 1170 116<1217 1333>
DStem2: 251 170 367 170 0.619994 0.784606<71.9193 407.933 671.322 892.081 1155.47 1482.27>
LayerCount: 2
Fore
SplineSet
1170 1333 m 1,0,-1
 1286 1333 l 1,1,-1
 1039 1020 l 1,2,-1
 1285 1020 l 1,3,-1
 1168 870 l 1,4,-1
 920 870 l 1,5,-1
 739 640 l 1,6,-1
 1204 640 l 1,7,-1
 1087 490 l 1,8,-1
 620 490 l 1,9,-1
 367 170 l 1,10,-1
 251 170 l 1,11,-1
 504 490 l 1,12,-1
 254 490 l 1,13,-1
 371 640 l 1,14,-1
 623 640 l 1,15,-1
 804 870 l 1,16,-1
 335 870 l 1,17,-1
 452 1020 l 1,18,-1
 923 1020 l 1,19,-1
 1170 1333 l 1,0,-1
EndSplineSet
Validated: 1
EndChar

StartChar: lessequal
Encoding: 8804 8804 157
Width: 1318
GlyphClass: 2
Flags: W
HStem: 190 150<357 1073>
DStem2: 654 906 385 870 0.852274 -0.523095<0 624.982> 389 885 654 906 0.892504 0.45104<245.985 1033.53>
LayerCount: 2
Fore
SplineSet
1321 1356 m 1,0,-1
 1357 1261 l 1,1,-1
 654 906 l 1,2,-1
 1204 571 l 1,3,-1
 1097 433 l 1,4,-1
 385 870 l 1,5,-1
 389 885 l 1,6,-1
 1321 1356 l 1,0,-1
357 340 m 1,7,-1
 1190 340 l 1,8,-1
 1073 190 l 1,9,-1
 240 190 l 1,10,-1
 357 340 l 1,7,-1
EndSplineSet
Validated: 1
EndChar

StartChar: greaterequal
Encoding: 8805 8805 158
Width: 1318
GlyphClass: 2
Flags: W
HStem: 190 150<357 1073>
DStem2: 312 528 348 433 0.892504 0.45104<0 786.657> 572 1356 464 1218 0.851946 -0.523629<0 624.237>
LayerCount: 2
Fore
SplineSet
572 1356 m 1,0,-1
 1283 919 l 1,1,-1
 1280 904 l 1,2,-1
 348 433 l 1,3,-1
 312 528 l 1,4,-1
 1014 883 l 1,5,-1
 464 1218 l 1,6,-1
 572 1356 l 1,0,-1
357 340 m 1,7,-1
 1190 340 l 1,8,-1
 1073 190 l 1,9,-1
 240 190 l 1,10,-1
 357 340 l 1,7,-1
EndSplineSet
Validated: 1
EndChar

StartChar: lozenge
Encoding: 9674 9674 159
Width: 1134
GlyphClass: 2
Flags: W
HStem: -20 21G<554.926 579.531> 1510 20G<875.965 899.605>
DStem2: 257 738 426 804 0.625536 0.780196<157.208 744.89> 426 804 257 738 0.374342 -0.927291<0 615.939> 652 231 563 -20 0.637091 0.770789<0 579.527> 892 1530 793 1263 0.355404 -0.934713<214.383 836.707>
LayerCount: 2
Fore
SplineSet
652 231 m 1,0,-1
 1016 682 l 1,1,-1
 793 1263 l 1,2,-1
 426 804 l 1,3,-1
 652 231 l 1,0,-1
563 -20 m 1,4,-1
 257 738 l 1,5,-1
 892 1530 l 1,6,-1
 1192 741 l 1,7,-1
 563 -20 l 1,4,-1
EndSplineSet
Validated: 1
EndChar

StartChar: multiply
Encoding: 215 215 160
Width: 1156
Flags: W
HStem: 438 634
DStem2: 303 483 460 438 0.7714 0.636351<92.474 424.222 593.842 925.59> 595 1072 418 1027 0.618822 -0.785531<0 268.472 407.157 675.629>
LayerCount: 2
Fore
SplineSet
418 1027 m 1,0,-1
 595 1072 l 1,1,-1
 761 861 l 1,2,-1
 1017 1072 l 1,3,-1
 1174 1027 l 1,4,-1
 844 755 l 1,5,-1
 1059 483 l 1,6,-1
 882 438 l 1,7,-1
 716 649 l 1,8,-1
 460 438 l 1,9,-1
 303 483 l 1,10,-1
 632 755 l 1,11,-1
 418 1027 l 1,0,-1
EndSplineSet
Validated: 1
EndChar

StartChar: divide
Encoding: 247 247 161
Width: 1218
Flags: W
HStem: 298 264<621.398 777.041> 680 150<411 1128> 943 264<758.398 914.041>
VStem: 566 265<351.518 507.179> 703 265<996.518 1152.18>
LayerCount: 2
Fore
SplineSet
865 1207 m 128,-1,1
 919 1207 919 1207 948 1169 c 0,2,3
 968 1143 968 1143 968 1105 c 0,4,5
 968 1090 968 1090 965 1075 c 0,6,7
 953 1020 953 1020 908 981.5 c 128,-1,8
 863 943 863 943 809 943 c 128,-1,9
 755 943 755 943 725 981 c 0,10,11
 703 1009 703 1009 703 1046 c 0,12,13
 703 1060 703 1060 707 1075 c 0,14,15
 719 1130 719 1130 765 1168.5 c 128,-1,0
 811 1207 811 1207 865 1207 c 128,-1,1
672 298 m 128,-1,17
 618 298 618 298 588 336 c 0,18,19
 566 364 566 364 566 401 c 0,20,21
 566 415 566 415 570 430 c 0,22,23
 582 485 582 485 628 523.5 c 128,-1,24
 674 562 674 562 728 562 c 128,-1,25
 782 562 782 562 811 524 c 0,26,27
 831 498 831 498 831 460 c 0,28,29
 831 445 831 445 828 430 c 0,30,31
 816 375 816 375 771 336.5 c 128,-1,16
 726 298 726 298 672 298 c 128,-1,17
411 830 m 1,32,-1
 1244 830 l 1,33,-1
 1128 680 l 1,34,-1
 295 680 l 1,35,-1
 411 830 l 1,32,-1
EndSplineSet
Validated: 1
EndChar

StartChar: g
Encoding: 103 103 162
Width: 1240
Flags: W
HStem: -430 91<279.241 597.683> -20 91<514.5 817.339> 1029 91<692.116 1001.97>
VStem: 173 15<-80.1455 -46> 191 205<209.546 637.362>
DStem2: 749.036 -430 928.843 -430 0.207912 0.978148<548.963 1363.8>
LayerCount: 2
Fore
SplineSet
674 71 m 0,0,1
 855 71 855 71 894 252 c 2,2,-1
 1020 848 l 2,3,4
 1027 880 1027 880 1027 906 c 0,5,6
 1027 1029 1027 1029 878 1029 c 0,7,8
 683 1029 683 1029 560 875 c 0,9,10
 459 748 459 748 417 550 c 0,11,12
 396 449 396 449 396 371 c 0,13,14
 396 284 396 284 422 225 c 0,15,16
 492 71 492 71 674 71 c 0,0,1
838 -8 m 1,17,18
 776 -20 776 -20 715 -20 c 0,19,20
 422 -20 422 -20 282 141 c 0,21,22
 191 246 191 246 191 406 c 0,23,24
 191 473 191 473 207 550 c 0,25,26
 262 809 262 809 456 959 c 0,27,28
 664 1120 664 1120 957 1120 c 0,29,30
 1196 1120 1196 1120 1404 1009 c 1,31,-1
 1401 995 l 1,32,33
 1223 958 1223 958 1200 847 c 2,34,-1
 1050 140 l 2,35,36
 994 -125 994 -125 821 -264 c 0,37,38
 615 -430 615 -430 345 -430 c 0,39,40
 221 -430 221 -430 98 -398 c 1,41,-1
 173 -46 l 1,42,-1
 188 -46 l 1,43,44
 188 -158 188 -158 231 -235 c 0,45,46
 288 -339 288 -339 422 -339 c 0,47,48
 597 -339 597 -339 731 -186 c 0,49,50
 802 -105 802 -105 838 -8 c 1,17,18
EndSplineSet
Validated: 1
EndChar

StartChar: k
Encoding: 107 107 163
Width: 1278
Flags: W
HStem: 0 15<53 74.9531 550.125 570 692 713.467 1254.91 1268> 1080 20G<932 1405> 1510 20G<634.5 720.76>
DStem2: 219.861 0 400.073 0 0.207912 0.978148<222.877 292.031 444.428 1318.97> 485 398 453 249 0.706518 0.707695<0 259.439 283.481 779.604> 903 540 727 523 0.391613 -0.92013<0 313.013>
LayerCount: 2
Fore
SplineSet
50 0 m 1,0,-1
 53 15 l 1,1,2
 233 60 233 60 273 250 c 2,3,-1
 489 1264 l 2,4,5
 492 1278 492 1278 492 1291 c 0,6,7
 492 1379 492 1379 350 1412 c 1,8,-1
 353 1426 l 1,9,10
 544 1509 544 1509 725 1530 c 1,11,-1
 485 398 l 1,12,-1
 937 863 l 2,13,14
 998 926 998 926 1011 985 c 0,15,16
 1013 994 1013 994 1013 1003 c 0,17,18
 1013 1058 1013 1058 932 1085 c 1,19,-1
 935 1100 l 1,20,-1
 1405 1100 l 1,21,-1
 1402 1085 l 1,22,23
 1221 1018 1221 1018 1053 850 c 2,24,-1
 744 540 l 1,25,-1
 903 540 l 1,26,-1
 1026 251 l 2,27,28
 1097 85 1097 85 1271 15 c 1,29,-1
 1268 0 l 1,30,-1
 689 0 l 1,31,-1
 692 15 l 1,32,33
 834 59 834 59 858 157 c 0,34,35
 861 169 861 169 861 181 c 0,36,37
 861 211 861 211 845 248 c 2,38,-1
 727 523 l 1,39,-1
 453 249 l 1,40,41
 445 211 445 211 445 179 c 0,42,43
 445 50 445 50 573 15 c 1,44,-1
 570 0 l 1,45,-1
 50 0 l 1,0,-1
EndSplineSet
Validated: 1
EndChar

StartChar: v
Encoding: 118 118 164
Width: 1257
Flags: W
HStem: -20 91<479.224 801.26> 1100 20G<547.5 633.76 1114.51 1232>
VStem: 264 184<103.827 312.746> 1112 193<471.58 888.433>
DStem2: 215.61 -20 396.185 -20 0.207912 0.978148<263.266 920.29>
LayerCount: 2
Fore
SplineSet
537 -20 m 0,0,1
 264 -20 264 -20 264 175 c 0,2,3
 264 210 264 210 273 250 c 2,4,-1
 402 854 l 2,5,6
 405 868 405 868 405 881 c 0,7,8
 405 969 405 969 263 1002 c 1,9,-1
 266 1016 l 1,10,11
 457 1099 457 1099 638 1120 c 9,12,-1
 454 252 l 2,13,14
 448 223 448 223 448 199 c 0,15,16
 448 71 448 71 616 71 c 0,17,18
 803 71 803 71 939 225 c 0,19,20
 1052 354 1052 354 1098 570 c 0,21,22
 1112 634 1112 634 1112 693 c 0,23,24
 1112 889 1112 889 961 1031 c 1,25,-1
 1159 1120 l 1,26,27
 1305 946 1305 946 1305 726 c 0,28,29
 1305 651 1305 651 1288 570 c 0,30,31
 1234 314 1234 314 1033 146 c 0,32,33
 835 -20 835 -20 537 -20 c 0,0,1
EndSplineSet
Validated: 1
EndChar

StartChar: w
Encoding: 119 119 165
Width: 1962
Flags: W
HStem: -20 91<471.688 788.184 1202.38 1511.12> 1100 20G<547.5 633.76 1272.5 1358.76 1819.51 1937>
VStem: 264 183<96.5771 312.746> 1817 193<471.58 888.433>
DStem2: 215.61 -20 396.185 -20 0.207912 0.978148<258.229 920.29> 940.843 -20 1121.18 -20 0.207912 0.978148<301.376 920.241>
LayerCount: 2
Fore
SplineSet
517 -20 m 0,0,1
 264 -20 264 -20 264 171 c 0,2,3
 264 207 264 207 273 250 c 2,4,-1
 402 854 l 2,5,6
 405 868 405 868 405 881 c 0,7,8
 405 969 405 969 263 1002 c 1,9,-1
 266 1016 l 1,10,11
 457 1099 457 1099 638 1120 c 9,12,-1
 454 252 l 2,13,14
 447 220 447 220 447 194 c 0,15,16
 447 71 447 71 596 71 c 0,17,18
 796 71 796 71 919 225 c 0,19,20
 1020 352 1020 352 1062 550 c 2,21,-1
 1127 854 l 2,22,23
 1130 868 1130 868 1130 881 c 0,24,25
 1130 969 1130 969 988 1002 c 1,26,-1
 991 1016 l 1,27,28
 1182 1099 1182 1099 1363 1120 c 9,29,-1
 1179 252 l 2,30,31
 1173 223 1173 223 1173 199 c 0,32,33
 1173 71 1173 71 1341 71 c 0,34,35
 1508 71 1508 71 1644 225 c 0,36,37
 1757 354 1757 354 1803 570 c 0,38,39
 1817 634 1817 634 1817 693 c 0,40,41
 1817 889 1817 889 1666 1031 c 1,42,-1
 1864 1120 l 1,43,44
 2010 946 2010 946 2010 726 c 0,45,46
 2010 651 2010 651 1993 570 c 0,47,48
 1939 314 1939 314 1738 146 c 0,49,50
 1540 -20 1540 -20 1262 -20 c 0,51,52
 1059 -20 1059 -20 991 128 c 1,53,54
 781 -20 781 -20 517 -20 c 0,0,1
EndSplineSet
Validated: 1
EndChar

StartChar: y
Encoding: 121 121 166
Width: 1285
Flags: W
HStem: -430 91<344.241 663.679> -20 91<578.081 882.602> 1100 20G<509 598.754 1232.5 1318.76>
VStem: 238 15<-79.8818 -46> 278 182<192.912 655.688>
DStem2: 88.6946 -430 273.695 -430 0.207912 0.978148<861.13 1339.4> 814.036 -430 993.843 -430 0.207912 0.978148<548.963 1339.33>
LayerCount: 2
Fore
SplineSet
410 -430 m 0,0,1
 286 -430 286 -430 163 -398 c 1,2,-1
 238 -46 l 1,3,-1
 253 -46 l 1,4,5
 253 -157 253 -157 296 -235 c 0,6,7
 353 -339 353 -339 487 -339 c 0,8,9
 666 -339 666 -339 796 -187 c 0,10,11
 867 -104 867 -104 903 -8 c 1,12,13
 843 -20 843 -20 780 -20 c 0,14,15
 490 -20 490 -20 354 146 c 16,16,17
 278 239 278 239 278 388 c 0,18,19
 278 462 278 462 297 550 c 2,20,-1
 362 854 l 2,21,22
 365 868 365 868 365 881 c 0,23,24
 365 969 365 969 223 1002 c 1,25,-1
 226 1016 l 1,26,27
 415 1098 415 1098 603 1120 c 1,28,-1
 482 550 l 2,29,30
 460 447 460 447 460 369 c 0,31,32
 460 282 460 282 487 225 c 0,33,34
 561 71 561 71 739 71 c 0,35,36
 920 71 920 71 959 252 c 2,37,-1
 1087 854 l 2,38,39
 1090 868 1090 868 1090 881 c 0,40,41
 1090 969 1090 969 948 1002 c 1,42,-1
 951 1016 l 1,43,44
 1142 1099 1142 1099 1323 1120 c 9,45,-1
 1115 140 l 2,46,47
 1059 -125 1059 -125 886 -264 c 0,48,49
 680 -430 680 -430 410 -430 c 0,0,1
EndSplineSet
Validated: 1
EndChar

StartChar: z
Encoding: 122 122 167
Width: 1019
Flags: W
HStem: 0 90<314 798.38> 1010 90<504.898 900>
DStem2: 20 0 314 90 0.656918 0.753962<260.99 1339.59>
LayerCount: 2
Fore
SplineSet
20 0 m 1,0,-1
 900 1010 l 1,1,-1
 734 1010 l 2,2,3
 484 1010 484 1010 258 818 c 1,4,-1
 244 818 l 1,5,-1
 467 1100 l 1,6,-1
 1193 1100 l 1,7,-1
 314 90 l 1,8,-1
 569 90 l 2,9,10
 820 90 820 90 1044 282 c 1,11,-1
 1059 282 l 1,12,-1
 836 0 l 1,13,-1
 20 0 l 1,0,-1
EndSplineSet
Validated: 1
EndChar

StartChar: x
Encoding: 120 120 168
Width: 1186
Flags: W
HStem: 0 21G<20 432 662 1169> 1080 20G<251 751 977 1400>
DStem2: 355 243 470 235 0.69896 0.715161<-96.7341 368.13 563.6 1029.19> 749 646 465 849 0.460019 -0.887909<-311.423 0 144.428 445.449>
LayerCount: 2
Fore
SplineSet
20 0 m 1,0,-1
 23 15 l 1,1,2
 186 70 186 70 355 243 c 2,3,-1
 633 527 l 1,4,-1
 465 849 l 2,5,6
 376 1020 376 1020 251 1085 c 1,7,-1
 254 1100 l 1,8,-1
 751 1100 l 1,9,-1
 748 1085 l 1,10,11
 643 1047 643 1047 623 958 c 0,12,13
 620 945 620 945 620 931 c 0,14,15
 620 896 620 896 639 859 c 2,16,-1
 749 646 l 1,17,-1
 955 857 l 2,18,19
 1030 934 1030 934 1042 990 c 0,20,21
 1044 1000 1044 1000 1044 1009 c 0,22,23
 1044 1060 1044 1060 977 1085 c 1,24,-1
 980 1100 l 1,25,-1
 1400 1100 l 1,26,-1
 1397 1085 l 1,27,28
 1249 1031 1249 1031 1074 853 c 2,29,-1
 792 564 l 1,30,-1
 954 251 l 2,31,32
 1042 81 1042 81 1169 15 c 1,33,-1
 1166 0 l 1,34,-1
 662 0 l 1,35,-1
 665 15 l 1,36,37
 778 55 778 55 796 142 c 0,38,39
 799 156 799 156 799 169 c 0,40,41
 799 208 799 208 778 248 c 2,42,-1
 675 445 l 1,43,-1
 470 235 l 2,44,45
 392 155 392 155 381 102 c 0,46,47
 379 93 379 93 379 84 c 0,48,49
 379 40 379 40 432 15 c 1,50,-1
 429 0 l 1,51,-1
 20 0 l 1,0,-1
EndSplineSet
Validated: 1
EndChar

StartChar: AE
Encoding: 198 198 169
Width: 2077
Flags: W
HStem: 0 90<1239.97 1818.57> 0 15<13 34.2927 463.316 474 828 849.953> 545 90<684 1111 1330 1561.29> 1420 90<1505.2 1952.81>
DStem2: 292 250 405 250 0.587178 0.809458<-44.0057 432.559 541.815 1507.52> 994.861 0 1194.86 0 0.207912 0.978148<213.11 557.237 690.803 1357.37>
LayerCount: 2
Fore
SplineSet
10 0 m 1,0,-1
 13 15 l 1,1,2
 149 52 149 52 292 250 c 2,3,-1
 1206 1510 l 1,4,-1
 2072 1510 l 1,5,-1
 2190 1188 l 1,6,-1
 2175 1188 l 1,7,8
 2000 1420 2000 1420 1745 1420 c 2,9,-1
 1535 1420 l 1,10,11
 1485 1362 1485 1362 1463 1260 c 2,12,-1
 1330 635 l 1,13,-1
 1494 635 l 2,14,15
 1708 635 1708 635 1939 832 c 1,16,-1
 1954 832 l 1,17,-1
 1585 360 l 1,18,-1
 1570 360 l 1,19,20
 1579 402 1579 402 1579 434 c 0,21,22
 1579 545 1579 545 1475 545 c 2,23,-1
 1311 545 l 1,24,-1
 1248 250 l 2,25,26
 1238 203 1238 203 1238 165 c 0,27,28
 1238 121 1238 121 1252 90 c 1,29,-1
 1592 90 l 2,30,31
 1847 90 1847 90 2120 322 c 1,32,-1
 2135 322 l 1,33,-1
 1881 0 l 1,34,-1
 825 0 l 1,35,-1
 828 15 l 1,36,37
 1008 60 1008 60 1048 250 c 2,38,-1
 1111 545 l 1,39,-1
 622 545 l 1,40,-1
 405 250 l 2,41,42
 375 210 375 210 367 170 c 0,43,44
 364 156 364 156 364 143 c 0,45,46
 364 62 364 62 477 15 c 1,47,-1
 474 0 l 1,48,-1
 10 0 l 1,0,-1
1252 1416 m 1,49,-1
 684 635 l 1,50,-1
 1130 635 l 1,51,-1
 1263 1260 l 2,52,53
 1271 1298 1271 1298 1271 1330 c 0,54,55
 1271 1380 1271 1380 1252 1416 c 1,49,-1
EndSplineSet
Validated: 1
EndChar

StartChar: Eth
Encoding: 208 208 170
Width: 1454
Flags: W
HStem: -20 92<515.399 872.98> 715 90<272 372 591 731> 1438 92<785.325 1139.58>
VStem: 1320 227<694.237 1201.04>
DStem2: 215.972 -20 415.972 -20 0.207912 0.978148<277.246 751.379 884.944 1326.1>
LayerCount: 2
Fore
SplineSet
687 1257 m 2,0,-1
 591 805 l 1,1,-1
 801 805 l 1,2,-1
 731 715 l 1,3,-1
 572 715 l 1,4,-1
 474 253 l 2,5,6
 469 230 469 230 469 209 c 0,7,8
 469 147 469 147 515 113 c 0,9,10
 571 72 571 72 677 72 c 0,11,12
 920 72 920 72 1098 311 c 0,13,14
 1235 495 1235 495 1291 756 c 0,15,16
 1320 894 1320 894 1320 1004 c 0,17,18
 1320 1127 1320 1127 1284 1216 c 0,19,20
 1194 1438 1194 1438 968 1438 c 0,21,22
 859 1438 859 1438 788 1397 c 0,23,24
 707 1350 707 1350 687 1257 c 2,0,-1
596 -20 m 0,25,26
 300 -20 300 -20 69 91 c 1,27,-1
 72 105 l 1,28,29
 253 159 253 159 274 253 c 2,30,-1
 372 715 l 1,31,-1
 202 715 l 1,32,-1
 272 805 l 1,33,-1
 391 805 l 1,34,-1
 487 1257 l 2,35,36
 489 1268 489 1268 489 1278 c 0,37,38
 489 1357 489 1357 349 1405 c 1,39,-1
 352 1419 l 1,40,41
 630 1530 630 1530 925 1530 c 0,42,43
 1302 1530 1302 1530 1462 1280 c 0,44,45
 1547 1145 1547 1145 1547 961 c 0,46,47
 1547 865 1547 865 1524 755 c 0,48,49
 1457 438 1457 438 1239 230 c 0,50,51
 977 -20 977 -20 596 -20 c 0,25,26
EndSplineSet
Validated: 1
EndChar

StartChar: Dcroat
Encoding: 272 272 171
Width: 1454
Flags: W
HStem: -20 92<515.399 872.98> 715 90<272 372 591 731> 1438 92<785.325 1139.58>
VStem: 1320 227<694.237 1201.04>
DStem2: 215.972 -20 415.972 -20 0.207912 0.978148<277.246 751.379 884.944 1326.1>
LayerCount: 2
Fore
SplineSet
687 1257 m 2,0,-1
 591 805 l 1,1,-1
 801 805 l 1,2,-1
 731 715 l 1,3,-1
 572 715 l 1,4,-1
 474 253 l 2,5,6
 469 230 469 230 469 209 c 0,7,8
 469 147 469 147 515 113 c 0,9,10
 571 72 571 72 677 72 c 0,11,12
 920 72 920 72 1098 311 c 0,13,14
 1235 495 1235 495 1291 756 c 0,15,16
 1320 894 1320 894 1320 1004 c 0,17,18
 1320 1127 1320 1127 1284 1216 c 0,19,20
 1194 1438 1194 1438 968 1438 c 0,21,22
 859 1438 859 1438 788 1397 c 0,23,24
 707 1350 707 1350 687 1257 c 2,0,-1
596 -20 m 0,25,26
 300 -20 300 -20 69 91 c 1,27,-1
 72 105 l 1,28,29
 253 159 253 159 274 253 c 2,30,-1
 372 715 l 1,31,-1
 202 715 l 1,32,-1
 272 805 l 1,33,-1
 391 805 l 1,34,-1
 487 1257 l 2,35,36
 489 1268 489 1268 489 1278 c 0,37,38
 489 1357 489 1357 349 1405 c 1,39,-1
 352 1419 l 1,40,41
 630 1530 630 1530 925 1530 c 0,42,43
 1302 1530 1302 1530 1462 1280 c 0,44,45
 1547 1145 1547 1145 1547 961 c 0,46,47
 1547 865 1547 865 1524 755 c 0,48,49
 1457 438 1457 438 1239 230 c 0,50,51
 977 -20 977 -20 596 -20 c 0,25,26
EndSplineSet
Validated: 1
EndChar

StartChar: Hbar
Encoding: 294 294 172
Width: 1487
Flags: W
HStem: 0 15<53 74.9531 573.781 590 901 922.832 1420.78 1437> 540 100<556 1182> 1050 90<343 443 662 1290 1509 1609> 1495 15<371 387.219 886.047 908 1219 1238.7 1733.05 1755>
DStem2: 219.861 0 419.861 0 0.207912 0.978148<227.036 593.721 695.902 1073.45 1207.01 1358.35> 1066.86 0 1266.86 0 0.207912 0.978148<227.036 552.138 654.319 1073.45 1207.01 1359.29>
LayerCount: 2
Fore
SplineSet
50 0 m 1,0,-1
 53 15 l 1,1,2
 233 60 233 60 273 250 c 2,3,-1
 443 1050 l 1,4,-1
 273 1050 l 1,5,-1
 343 1140 l 1,6,-1
 462 1140 l 1,7,-1
 488 1260 l 2,8,9
 496 1299 496 1299 496 1331 c 0,10,11
 496 1459 496 1459 368 1495 c 1,12,-1
 371 1510 l 1,13,-1
 911 1510 l 1,14,-1
 908 1495 l 1,15,16
 728 1450 728 1450 688 1260 c 2,17,-1
 662 1140 l 1,18,-1
 1309 1140 l 1,19,-1
 1335 1260 l 2,20,21
 1343 1299 1343 1299 1343 1332 c 0,22,23
 1343 1460 1343 1460 1216 1495 c 1,24,-1
 1219 1510 l 1,25,-1
 1758 1510 l 1,26,-1
 1755 1495 l 1,27,28
 1575 1450 1575 1450 1535 1260 c 2,29,-1
 1509 1140 l 1,30,-1
 1679 1140 l 1,31,-1
 1609 1050 l 1,32,-1
 1490 1050 l 1,33,-1
 1320 250 l 2,34,35
 1312 211 1312 211 1312 179 c 0,36,37
 1312 51 1312 51 1440 15 c 1,38,-1
 1437 0 l 1,39,-1
 898 0 l 1,40,-1
 901 15 l 1,41,42
 1080 60 1080 60 1120 250 c 2,43,-1
 1182 540 l 1,44,-1
 535 540 l 1,45,-1
 473 250 l 2,46,47
 465 211 465 211 465 179 c 0,48,49
 465 51 465 51 593 15 c 1,50,-1
 590 0 l 1,51,-1
 50 0 l 1,0,-1
643 1050 m 1,52,-1
 556 640 l 1,53,-1
 1203 640 l 1,54,-1
 1290 1050 l 1,55,-1
 643 1050 l 1,52,-1
EndSplineSet
Validated: 1
EndChar

StartChar: Lslash
Encoding: 321 321 173
Width: 1221
Flags: W
HStem: 0 90<464.969 962.57> 0 15<53 74.9531> 474 102<172 274> 913 102<687 789> 1495 15<371 387.219 886.047 908>
DStem2: 172 576 170 474 0.814803 0.579738<0 157.899 536.367 695.661> 219.861 0 419.861 0 0.207912 0.978148<213.11 614.508 735.128 827.696 948.523 1358.35>
LayerCount: 2
Fore
SplineSet
50 0 m 1,0,-1
 53 15 l 1,1,2
 233 60 233 60 273 250 c 2,3,-1
 348 601 l 1,4,-1
 170 474 l 1,5,-1
 172 576 l 1,6,-1
 373 719 l 1,7,-1
 488 1260 l 2,8,9
 496 1299 496 1299 496 1331 c 0,10,11
 496 1459 496 1459 368 1495 c 1,12,-1
 371 1510 l 1,13,-1
 911 1510 l 1,14,-1
 908 1495 l 1,15,16
 728 1450 728 1450 688 1260 c 2,17,-1
 609 887 l 1,18,-1
 789 1015 l 1,19,-1
 786 913 l 1,20,-1
 583 769 l 1,21,-1
 473 250 l 2,22,23
 463 203 463 203 463 165 c 0,24,25
 463 121 463 121 477 90 c 1,26,-1
 736 90 l 2,27,28
 991 90 991 90 1264 322 c 1,29,-1
 1279 322 l 1,30,-1
 1025 0 l 1,31,-1
 50 0 l 1,0,-1
EndSplineSet
Validated: 1
EndChar

StartChar: Eng
Encoding: 330 330 174
Width: 1514
Flags: W
HStem: -430 21G<866 1072.5> 0 15<53 74.9531 573.781 590> 1438 92<785.325 1140>
VStem: 1338 209<672.867 1201.08>
DStem2: 128.674 -430 328.462 -430 0.207912 0.978148<666.598 1745.29> 1059.6 -430 1272.6 -430 0.207912 0.978148<252.537 1435.87>
LayerCount: 2
Fore
SplineSet
50 0 m 1,0,-1
 53 15 l 1,1,2
 233 60 233 60 273 249 c 2,3,-1
 487 1257 l 2,4,5
 489 1268 489 1268 489 1278 c 0,6,7
 489 1357 489 1357 349 1405 c 1,8,-1
 352 1419 l 1,9,10
 630 1530 630 1530 925 1530 c 0,11,12
 1302 1530 1302 1530 1462 1280 c 0,13,14
 1547 1145 1547 1145 1547 961 c 0,15,16
 1547 865 1547 865 1524 755 c 2,17,-1
 1364 0 l 18,18,19
 1282 -388 1282 -388 863 -430 c 1,20,-1
 866 -415 l 1,21,22
 1086 -306 1086 -306 1151 0 c 10,23,-1
 1312 756 l 2,24,25
 1338 879 1338 879 1338 982 c 0,26,27
 1338 1108 1338 1108 1299 1202 c 0,28,29
 1201 1438 1201 1438 968 1438 c 0,30,31
 859 1438 859 1438 788 1397 c 0,32,33
 707 1350 707 1350 687 1257 c 2,34,-1
 473 250 l 2,35,36
 465 211 465 211 465 179 c 0,37,38
 465 51 465 51 593 15 c 1,39,-1
 590 0 l 1,40,-1
 50 0 l 1,0,-1
EndSplineSet
Validated: 1
EndChar

StartChar: OE
Encoding: 338 338 175
Width: 2079
Flags: W
HStem: -20 92<589.426 918.892> 0 90<1241.97 1820.57> 545 90<1332 1563.29> 1420 90<1507.2 1954.81> 1438 92<858.8 1191.91>
VStem: 224 221<278.281 803.254>
DStem2: 992.61 -20 1192.61 -20 0.207912 0.978148<233.557 619.266 711.25 1358.28>
LayerCount: 2
Fore
SplineSet
1883 0 m 1,0,-1
 888 0 l 1,1,2
 809 -20 809 -20 726 -20 c 0,3,4
 495 -20 495 -20 358 134 c 0,5,6
 224 286 224 286 224 525 c 0,7,8
 224 631 224 631 250 755 c 0,9,10
 336 1157 336 1157 622 1376 c 0,11,12
 824 1530 824 1530 1055 1530 c 0,13,14
 1138 1530 1138 1530 1209 1510 c 1,15,-1
 2074 1510 l 1,16,-1
 2192 1188 l 1,17,-1
 2177 1188 l 1,18,19
 2002 1420 2002 1420 1747 1420 c 2,20,-1
 1537 1420 l 1,21,22
 1487 1362 1487 1362 1465 1260 c 2,23,-1
 1332 635 l 1,24,-1
 1496 635 l 2,25,26
 1710 635 1710 635 1941 832 c 1,27,-1
 1956 832 l 1,28,-1
 1587 360 l 1,29,-1
 1572 360 l 1,30,31
 1581 402 1581 402 1581 434 c 0,32,33
 1581 545 1581 545 1477 545 c 2,34,-1
 1313 545 l 1,35,-1
 1250 250 l 2,36,37
 1240 203 1240 203 1240 165 c 0,38,39
 1240 121 1240 121 1254 90 c 1,40,-1
 1594 90 l 2,41,42
 1849 90 1849 90 2122 322 c 1,43,-1
 2137 322 l 1,44,-1
 1883 0 l 1,0,-1
1272 1310 m 1,45,46
 1191 1438 1191 1438 1036 1438 c 0,47,48
 877 1438 877 1438 739 1305 c 0,49,50
 558 1130 558 1130 478 756 c 0,51,52
 445 602 445 602 445 473 c 0,53,54
 445 307 445 307 506 205 c 0,55,56
 587 72 587 72 745 72 c 0,57,58
 901 72 901 72 1037 200 c 1,59,60
 1045 224 1045 224 1050 250 c 2,61,-1
 1265 1260 l 2,62,63
 1270 1286 1270 1286 1272 1310 c 1,45,46
EndSplineSet
Validated: 1
EndChar

StartChar: Tbar
Encoding: 358 358 176
Width: 1375
Flags: W
HStem: 0 15<421 442.953 941.781 958> 715 90<619 740 959 1078> 1420 90<578.938 864.031 1098.2 1381.13>
DStem2: 587.861 0 787.861 0 0.207912 0.978148<227.036 731.007 864.573 1371.32>
LayerCount: 2
Fore
SplineSet
418 0 m 1,0,-1
 421 15 l 1,1,2
 601 60 601 60 641 250 c 2,3,-1
 740 715 l 1,4,-1
 550 715 l 1,5,-1
 619 805 l 1,6,-1
 759 805 l 1,7,-1
 856 1260 l 2,8,9
 866 1307 866 1307 866 1344 c 0,10,11
 866 1388 866 1388 852 1420 c 1,12,-1
 806 1420 l 2,13,14
 550 1420 550 1420 278 1188 c 1,15,-1
 263 1188 l 1,16,-1
 517 1510 l 1,17,-1
 1501 1510 l 1,18,-1
 1618 1188 l 1,19,-1
 1603 1188 l 1,20,21
 1428 1420 1428 1420 1174 1420 c 2,22,-1
 1128 1420 l 1,23,24
 1078 1362 1078 1362 1056 1260 c 2,25,-1
 959 805 l 1,26,-1
 1149 805 l 1,27,-1
 1078 715 l 1,28,-1
 940 715 l 1,29,-1
 841 250 l 2,30,31
 833 211 833 211 833 179 c 0,32,33
 833 51 833 51 961 15 c 1,34,-1
 958 0 l 1,35,-1
 418 0 l 1,0,-1
EndSplineSet
Validated: 1
EndChar

StartChar: uni1E02
Encoding: 7682 7682 177
Width: 1335
Flags: W
HStem: -20 92<515.465 858.971> 1439 91<785.264 1074.38> 1600 264<920.398 1076.04>
VStem: 865 265<1653.52 1809.18> 1125 225<350.236 683.281 1097.42 1373.2>
DStem2: 215.76 -20 415.76 -20 0.207912 0.978148<283.336 1326.14>
LayerCount: 2
Fore
SplineSet
1027 1864 m 128,-1,1
 1081 1864 1081 1864 1110 1826 c 0,2,3
 1130 1800 1130 1800 1130 1762 c 0,4,5
 1130 1747 1130 1747 1127 1732 c 0,6,7
 1115 1677 1115 1677 1070 1638.5 c 128,-1,8
 1025 1600 1025 1600 971 1600 c 128,-1,9
 917 1600 917 1600 887 1638 c 0,10,11
 865 1666 865 1666 865 1703 c 0,12,13
 865 1717 865 1717 869 1732 c 0,14,15
 881 1787 881 1787 927 1825.5 c 128,-1,0
 973 1864 973 1864 1027 1864 c 128,-1,1
474 254 m 2,16,17
 470 235 470 235 470 215 c 0,18,19
 470 155 470 155 515 113 c 0,20,21
 559 72 559 72 667 72 c 0,22,23
 856 72 856 72 993 219 c 0,24,25
 1089 322 1089 322 1116 451 c 0,26,27
 1125 494 1125 494 1125 536 c 0,28,29
 1125 646 1125 646 1045 725 c 0,30,31
 961 809 961 809 791 841 c 1,32,33
 915 891 915 891 988 946 c 0,34,35
 1093 1024 1093 1024 1124 1170 c 0,36,37
 1134 1218 1134 1218 1134 1259 c 0,38,39
 1134 1321 1134 1321 1106 1362 c 0,40,41
 1052 1439 1052 1439 932 1439 c 0,42,43
 850 1439 850 1439 788 1398 c 0,44,45
 705 1343 705 1343 687 1257 c 2,46,-1
 474 254 l 2,16,17
596 -20 m 0,47,48
 302 -20 302 -20 70 92 c 1,49,50
 70 94 70 94 73 106 c 1,51,52
 254 160 254 160 274 254 c 2,53,-1
 487 1257 l 2,54,55
 489 1268 489 1268 489 1278 c 0,56,57
 489 1357 489 1357 349 1405 c 1,58,59
 352 1417 352 1417 352 1419 c 1,60,61
 630 1530 630 1530 925 1530 c 0,62,63
 1189 1530 1189 1530 1288 1400 c 0,64,65
 1341 1329 1341 1329 1341 1243 c 0,66,67
 1341 1211 1341 1211 1334 1178 c 0,68,69
 1306 1045 1306 1045 1174 940 c 0,70,71
 1117 895 1117 895 1045 865 c 1,72,73
 1145 846 1145 846 1224 790 c 0,74,75
 1350 700 1350 700 1350 542 c 0,76,77
 1350 502 1350 502 1342 457 c 0,78,79
 1304 261 1304 261 1087 106 c 0,80,81
 909 -20 909 -20 596 -20 c 0,47,48
EndSplineSet
Validated: 1
EndChar

StartChar: uni1E03
Encoding: 7683 7683 178
Width: 1240
Flags: W
HStem: -20 91<472.021 781.884> 1029 91<656.818 958.339> 1510 20G<634.5 720.779> 1600 264<593.398 749.041>
VStem: 538 265<1653.52 1809.18> 1080 203<465.481 890.454>
DStem2: 215.972 -20 396.185 -20 0.207912 0.978148<258.154 1072.91 1195.78 1339.34>
LayerCount: 2
Fore
SplineSet
700 1864 m 128,-1,1
 754 1864 754 1864 783 1826 c 0,2,3
 803 1800 803 1800 803 1762 c 0,4,5
 803 1747 803 1747 800 1732 c 0,6,7
 788 1677 788 1677 743 1638.5 c 128,-1,8
 698 1600 698 1600 644 1600 c 128,-1,9
 590 1600 590 1600 560 1638 c 0,10,11
 538 1666 538 1666 538 1703 c 0,12,13
 538 1717 538 1717 542 1732 c 0,14,15
 554 1787 554 1787 600 1825.5 c 128,-1,0
 646 1864 646 1864 700 1864 c 128,-1,1
596 71 m 0,16,17
 791 71 791 71 914 225 c 0,18,19
 1015 352 1015 352 1057 550 c 0,20,21
 1080 653 1080 653 1080 731 c 0,22,23
 1080 818 1080 818 1052 875 c 0,24,25
 978 1029 978 1029 798.5 1029 c 128,-1,26
 619 1029 619 1029 580 848 c 2,27,-1
 454 252 l 2,28,29
 447 220 447 220 447 194 c 0,30,31
 447 71 447 71 596 71 c 0,16,17
517 -20 m 0,32,33
 278 -20 278 -20 69 91 c 1,34,-1
 72 105 l 1,35,36
 250 142 250 142 274 253 c 2,37,-1
 489 1264 l 2,38,39
 492 1278 492 1278 492 1291 c 0,40,41
 492 1379 492 1379 350 1412 c 1,42,-1
 353 1426 l 1,43,44
 544 1509 544 1509 725 1530 c 9,45,-1
 637 1113 l 1,46,47
 698 1120 698 1120 759 1120 c 0,48,49
 1052 1120 1052 1120 1192 959 c 0,50,51
 1283 854 1283 854 1283 694 c 0,52,53
 1283 627 1283 627 1267 550 c 0,54,55
 1212 291 1212 291 1018 141 c 0,56,57
 810 -20 810 -20 517 -20 c 0,32,33
EndSplineSet
Validated: 1
EndChar

StartChar: uni1E0A
Encoding: 7690 7690 179
Width: 1454
Flags: W
HStem: -20 92<515.399 872.98> 1438 92<785.325 1139.58> 1600 264<966.398 1122.04>
VStem: 911 265<1653.52 1809.18> 1320 227<694.456 1201.04>
DStem2: 215.972 -20 415.972 -20 0.207912 0.978148<277.246 1326.1>
LayerCount: 2
Fore
SplineSet
1073 1864 m 128,-1,1
 1127 1864 1127 1864 1156 1826 c 0,2,3
 1176 1800 1176 1800 1176 1762 c 0,4,5
 1176 1747 1176 1747 1173 1732 c 0,6,7
 1161 1677 1161 1677 1116 1638.5 c 128,-1,8
 1071 1600 1071 1600 1017 1600 c 128,-1,9
 963 1600 963 1600 933 1638 c 0,10,11
 911 1666 911 1666 911 1703 c 0,12,13
 911 1717 911 1717 915 1732 c 0,14,15
 927 1787 927 1787 973 1825.5 c 128,-1,0
 1019 1864 1019 1864 1073 1864 c 128,-1,1
677 72 m 0,16,17
 920 72 920 72 1098 311 c 0,18,19
 1237 497 1237 497 1291 756 c 0,20,21
 1320 894 1320 894 1320 1004 c 0,22,23
 1320 1127 1320 1127 1284 1216 c 0,24,25
 1194 1438 1194 1438 968 1438 c 0,26,27
 859 1438 859 1438 788 1397 c 0,28,29
 707 1350 707 1350 687 1257 c 2,30,-1
 474 253 l 2,31,32
 469 230 469 230 469 209 c 0,33,34
 469 147 469 147 515 113 c 0,35,36
 571 72 571 72 677 72 c 0,16,17
596 -20 m 0,37,38
 300 -20 300 -20 69 91 c 1,39,-1
 72 105 l 1,40,41
 253 159 253 159 274 253 c 2,42,-1
 487 1257 l 2,43,44
 489 1268 489 1268 489 1278 c 0,45,46
 489 1357 489 1357 349 1405 c 1,47,-1
 352 1419 l 1,48,49
 630 1530 630 1530 925 1530 c 0,50,51
 1302 1530 1302 1530 1462 1280 c 0,52,53
 1547 1145 1547 1145 1547 961 c 0,54,55
 1547 865 1547 865 1524 755 c 0,56,57
 1457 438 1457 438 1239 230 c 0,58,59
 977 -20 977 -20 596 -20 c 0,37,38
EndSplineSet
Validated: 1
EndChar

StartChar: uni1E0B
Encoding: 7691 7691 180
Width: 1240
Flags: W
HStem: -20 91<514.749 814.391> 1029 91<692.116 1002.44> 1510 20G<1254.5 1340.76> 1600 264<1206.4 1362.04>
VStem: 191 204<209.546 637.362> 1151 265<1653.52 1809.18>
DStem2: 836.185 -20 1015.97 -20 0.207912 0.978148<289.843 944.641 1153.22 1339.3>
LayerCount: 2
Fore
SplineSet
1313 1864 m 128,-1,1
 1367 1864 1367 1864 1396 1826 c 0,2,3
 1416 1800 1416 1800 1416 1762 c 0,4,5
 1416 1747 1416 1747 1413 1732 c 0,6,7
 1401 1677 1401 1677 1356 1638.5 c 128,-1,8
 1311 1600 1311 1600 1257 1600 c 128,-1,9
 1203 1600 1203 1600 1173 1638 c 0,10,11
 1151 1666 1151 1666 1151 1703 c 0,12,13
 1151 1717 1151 1717 1155 1732 c 0,14,15
 1167 1787 1167 1787 1213 1825.5 c 128,-1,0
 1259 1864 1259 1864 1313 1864 c 128,-1,1
715 -20 m 0,16,17
 422 -20 422 -20 282 141 c 0,18,19
 191 246 191 246 191 406 c 0,20,21
 191 473 191 473 207 550 c 0,22,23
 262 809 262 809 456 959 c 0,24,25
 664 1120 664 1120 957 1120 c 0,26,27
 1018 1120 1018 1120 1077 1113 c 1,28,-1
 1109 1264 l 2,29,30
 1112 1278 1112 1278 1112 1291 c 0,31,32
 1112 1379 1112 1379 970 1412 c 1,33,-1
 973 1426 l 1,34,35
 1164 1509 1164 1509 1345 1530 c 1,36,-1
 1074 253 l 2,37,38
 1071 239 1071 239 1071 226 c 0,39,40
 1071 138 1071 138 1212 105 c 1,41,-1
 1209 91 l 1,42,43
 954 -20 954 -20 715 -20 c 0,16,17
674 71 m 128,-1,45
 855 71 855 71 894 252 c 2,46,-1
 1020 848 l 2,47,48
 1027 880 1027 880 1027 906 c 0,49,50
 1027 1029 1027 1029 878 1029 c 0,51,52
 683 1029 683 1029 560 875 c 0,53,54
 459 748 459 748 417 550 c 0,55,56
 395 448 395 448 395 370 c 0,57,58
 395 283 395 283 422 225 c 0,59,44
 493 71 493 71 674 71 c 128,-1,45
EndSplineSet
Validated: 1
EndChar

StartChar: uni1E1E
Encoding: 7710 7710 181
Width: 1172
Flags: W
HStem: 0 15<53 74.8359 573.781 590> 545 90<555 786.554> 1420 90<730.202 1177.81> 1495 15<371 387.219> 1600 264<900.398 1056.04>
VStem: 845 265<1653.52 1809.18>
DStem2: 219.861 0 419.861 0 0.207912 0.978148<227.036 598.819 690.803 1357.37>
LayerCount: 2
Fore
SplineSet
1007 1864 m 128,-1,1
 1061 1864 1061 1864 1090 1826 c 0,2,3
 1110 1800 1110 1800 1110 1762 c 0,4,5
 1110 1747 1110 1747 1107 1732 c 0,6,7
 1095 1677 1095 1677 1050 1638.5 c 128,-1,8
 1005 1600 1005 1600 951 1600 c 128,-1,9
 897 1600 897 1600 867 1638 c 0,10,11
 845 1666 845 1666 845 1703 c 0,12,13
 845 1717 845 1717 849 1732 c 0,14,15
 861 1787 861 1787 907 1825.5 c 128,-1,0
 953 1864 953 1864 1007 1864 c 128,-1,1
50 0 m 1,16,-1
 53 15 l 1,17,18
 232 59 232 59 273 250 c 2,19,-1
 488 1260 l 2,20,21
 496 1298 496 1298 496 1330 c 0,22,23
 496 1459 496 1459 368 1495 c 1,24,-1
 371 1510 l 1,25,-1
 1297 1510 l 1,26,-1
 1415 1188 l 1,27,-1
 1400 1188 l 1,28,29
 1225 1420 1225 1420 970 1420 c 2,30,-1
 760 1420 l 1,31,32
 710 1362 710 1362 688 1260 c 2,33,-1
 555 635 l 1,34,-1
 719 635 l 2,35,36
 934 635 934 635 1164 831 c 1,37,-1
 1179 831 l 1,38,-1
 810 360 l 1,39,-1
 795 360 l 1,40,41
 804 402 804 402 804 434 c 0,42,43
 804 545 804 545 700 545 c 2,44,-1
 536 545 l 1,45,-1
 473 250 l 2,46,47
 465 211 465 211 465 179 c 0,48,49
 465 51 465 51 593 15 c 1,50,-1
 590 0 l 1,51,-1
 50 0 l 1,16,-1
EndSplineSet
Validated: 1
EndChar

StartChar: uni1E1F
Encoding: 7711 7711 182
Width: 1002
Flags: W
HStem: 0 15<53 74.9531 553.781 570> 653 90<558 752.95> 1439 91<746.521 1055.43> 1600 264<868.398 1024.04>
VStem: 813 265<1653.52 1809.18>
DStem2: 219.861 0 399.861 0 0.207912 0.978148<222.878 705.083 797.067 1311.71>
LayerCount: 2
Fore
SplineSet
975 1864 m 128,-1,1
 1029 1864 1029 1864 1058 1826 c 0,2,3
 1078 1800 1078 1800 1078 1762 c 0,4,5
 1078 1747 1078 1747 1075 1732 c 0,6,7
 1063 1677 1063 1677 1018 1638.5 c 128,-1,8
 973 1600 973 1600 919 1600 c 128,-1,9
 865 1600 865 1600 835 1638 c 0,10,11
 813 1666 813 1666 813 1703 c 0,12,13
 813 1717 813 1717 817 1732 c 0,14,15
 829 1787 829 1787 875 1825.5 c 128,-1,0
 921 1864 921 1864 975 1864 c 128,-1,1
50 0 m 1,16,-1
 53 15 l 1,17,18
 233 61 233 61 273 250 c 2,19,-1
 487 1257 l 2,20,21
 490 1271 490 1271 490 1284 c 0,22,23
 490 1372 490 1372 349 1405 c 1,24,-1
 352 1419 l 1,25,26
 608 1530 608 1530 846 1530 c 0,27,28
 1136 1530 1136 1530 1272 1364 c 1,29,-1
 1197 1012 l 1,30,-1
 1182 1012 l 1,31,32
 1182 1196 1182 1196 1144 1285 c 0,33,34
 1078 1439 1078 1439 887 1439 c 0,35,36
 705 1439 705 1439 667 1258 c 2,37,-1
 558 743 l 1,38,-1
 786 743 l 2,39,40
 876 743 876 743 991 836 c 1,41,-1
 1006 836 l 1,42,-1
 764 542 l 1,43,-1
 749 542 l 1,44,45
 754 570 754 570 754 592 c 0,46,47
 754 653 754 653 711 653 c 2,48,-1
 539 653 l 1,49,-1
 453 250 l 2,50,51
 445 211 445 211 445 179 c 0,52,53
 445 51 445 51 573 15 c 1,54,-1
 570 0 l 1,55,-1
 50 0 l 1,16,-1
EndSplineSet
Validated: 1
EndChar

StartChar: uni1E40
Encoding: 7744 7744 183
Width: 2052
Flags: W
HStem: 0 15<478.137 491 1452 1469.74 2029.71 2044.87> 1600 264<1311.4 1467.04>
VStem: 1256 265<1653.52 1809.18> 1682 196<130.234 482.749>
DStem2: 279 250 380 250 0.34064 0.940194<-47.8939 914.478> 765 1550 681 1077 0.254945 -0.966955<435.954 1306.16> 1098 287 992 -40 0.556974 0.83053<0 1010.63> 1682 250 1879 250 0.0621871 0.998065<-5.71068 829.569>
LayerCount: 2
Fore
SplineSet
1418 1864 m 128,-1,1
 1472 1864 1472 1864 1501 1826 c 0,2,3
 1521 1800 1521 1800 1521 1762 c 0,4,5
 1521 1747 1521 1747 1518 1732 c 0,6,7
 1506 1677 1506 1677 1461 1638.5 c 128,-1,8
 1416 1600 1416 1600 1362 1600 c 128,-1,9
 1308 1600 1308 1600 1278 1638 c 0,10,11
 1256 1666 1256 1666 1256 1703 c 0,12,13
 1256 1717 1256 1717 1260 1732 c 0,14,15
 1272 1787 1272 1787 1318 1825.5 c 128,-1,0
 1364 1864 1364 1864 1418 1864 c 128,-1,1
10 0 m 1,16,-1
 13 15 l 17,17,18
 219 84 219 84 279 250 c 2,19,-1
 750 1550 l 1,20,-1
 765 1550 l 1,21,-1
 1098 287 l 1,22,-1
 1945 1550 l 1,23,-1
 1960 1550 l 1,24,-1
 1879 250 l 2,25,26
 1878 234 1878 234 1878 232 c 0,27,28
 1878 80 1878 80 2045 15 c 1,29,30
 2044 9 2044 9 2042 0 c 1,31,-1
 1449 0 l 1,32,-1
 1452 15 l 1,33,34
 1645 73 1645 73 1677 211 c 0,35,36
 1681 229 1681 229 1682 250 c 2,37,-1
 1733 1078 l 1,38,-1
 992 -40 l 1,39,-1
 977 -40 l 1,40,-1
 681 1077 l 1,41,-1
 380 250 l 2,42,43
 372 228 372 228 368 209 c 0,44,45
 363 188 363 188 363 168 c 0,46,47
 363 64 363 64 494 15 c 1,48,-1
 491 0 l 1,49,-1
 10 0 l 1,16,-1
EndSplineSet
Validated: 1
EndChar

StartChar: uni1E41
Encoding: 7745 7745 184
Width: 2010
Flags: W
HStem: -20 21G<1645.25 1735> 0 15<53 74.9531 553.781 570 778 799.953 1275.12 1295> 1029 91<659.339 966.074 1383.06 1670.57> 1180 264<1174.4 1330.04>
VStem: 1119 265<1233.52 1389.18> 1784 181<444.312 906.081>
DStem2: 215.61 -20 395.61 -20 0.207912 0.978148<243.325 913.027> 940.61 -20 1120.61 -20 0.207912 0.978148<243.325 759.816> 1641 -20 1825.46 -20 0.207912 0.978148<283.658 762.877>
LayerCount: 2
Fore
SplineSet
1281 1444 m 128,-1,1
 1335 1444 1335 1444 1364 1406 c 0,2,3
 1384 1380 1384 1380 1384 1342 c 0,4,5
 1384 1327 1384 1327 1381 1312 c 0,6,7
 1369 1257 1369 1257 1324 1218.5 c 128,-1,8
 1279 1180 1279 1180 1225 1180 c 128,-1,9
 1171 1180 1171 1180 1141 1218 c 0,10,11
 1119 1246 1119 1246 1119 1283 c 0,12,13
 1119 1297 1119 1297 1123 1312 c 0,14,15
 1135 1367 1135 1367 1181 1405.5 c 128,-1,0
 1227 1444 1227 1444 1281 1444 c 128,-1,1
50 0 m 1,16,-1
 53 15 l 1,17,18
 233 61 233 61 273 250 c 2,19,-1
 400 847 l 2,20,21
 403 861 403 861 403 874 c 0,22,23
 403 962 403 962 261 995 c 1,24,-1
 264 1009 l 1,25,26
 520 1120 520 1120 759 1120 c 0,27,28
 1033 1120 1033 1120 1171 972 c 1,29,30
 1270 1120 1270 1120 1484 1120 c 0,31,32
 1762 1120 1762 1120 1890 954 c 0,33,34
 1965 856 1965 856 1965 708 c 0,35,36
 1965 635 1965 635 1947 550 c 2,37,-1
 1882 246 l 2,38,39
 1879 232 1879 232 1879 219 c 0,40,41
 1879 131 1879 131 2021 98 c 1,42,-1
 2018 84 l 1,43,44
 1829 2 1829 2 1641 -20 c 1,45,-1
 1762 550 l 2,46,47
 1784 653 1784 653 1784 732 c 0,48,49
 1784 819 1784 819 1757 875 c 0,50,51
 1685 1029 1685 1029 1523 1029 c 0,52,53
 1343 1029 1343 1029 1305 848 c 2,54,-1
 1178 250 l 2,55,56
 1170 211 1170 211 1170 179 c 0,57,58
 1170 50 1170 50 1298 15 c 1,59,-1
 1295 0 l 1,60,-1
 775 0 l 1,61,-1
 778 15 l 1,62,63
 958 61 958 61 998 250 c 2,64,-1
 1062 550 l 2,65,66
 1083 650 1083 650 1083 729 c 0,67,68
 1083 816 1083 816 1057 875 c 0,69,70
 988 1029 988 1029 800 1029 c 0,71,72
 618 1029 618 1029 580 848 c 2,73,-1
 453 250 l 2,74,75
 445 211 445 211 445 179 c 0,76,77
 445 51 445 51 573 15 c 1,78,-1
 570 0 l 1,79,-1
 50 0 l 1,16,-1
EndSplineSet
Validated: 1
EndChar

StartChar: uni1E56
Encoding: 7766 7766 185
Width: 1306
Flags: W
HStem: 0 15<53 74.9531 573.781 590> 490 91<622.546 957.536> 1438 92<782.422 1124.6> 1600 264<951.398 1107.04>
VStem: 896 265<1653.52 1809.18> 1242 222<912.842 1306.71>
DStem2: 220.073 0 419.861 0 0.207912 0.978148<226.992 619.17 779.975 1305.68>
LayerCount: 2
Fore
SplineSet
1058 1864 m 128,-1,1
 1112 1864 1112 1864 1141 1826 c 0,2,3
 1161 1800 1161 1800 1161 1762 c 0,4,5
 1161 1747 1161 1747 1158 1732 c 0,6,7
 1146 1677 1146 1677 1101 1638.5 c 128,-1,8
 1056 1600 1056 1600 1002 1600 c 128,-1,9
 948 1600 948 1600 918 1638 c 0,10,11
 896 1666 896 1666 896 1703 c 0,12,13
 896 1717 896 1717 900 1732 c 0,14,15
 912 1787 912 1787 958 1825.5 c 128,-1,0
 1004 1864 1004 1864 1058 1864 c 128,-1,1
50 0 m 1,16,-1
 53 15 l 1,17,18
 233 60 233 60 273 249 c 2,19,-1
 487 1257 l 2,20,21
 489 1268 489 1268 489 1278 c 0,22,23
 489 1357 489 1357 349 1405 c 1,24,25
 352 1417 352 1417 352 1419 c 1,26,27
 633 1530 633 1530 899 1530 c 0,28,29
 1218 1530 1218 1530 1361 1385 c 0,30,31
 1464 1280 1464 1280 1464 1128 c 0,32,33
 1464 1074 1464 1074 1452 1016 c 0,34,35
 1404 788 1404 788 1202 635 c 0,36,37
 1012 490 1012 490 768 490 c 0,38,39
 622 490 622 490 540 565 c 1,40,-1
 473 250 l 2,41,42
 465 211 465 211 465 179 c 0,43,44
 465 51 465 51 593 15 c 1,45,-1
 590 0 l 1,46,-1
 50 0 l 1,16,-1
582 762 m 2,47,48
 577 738 577 738 577 721 c 0,49,50
 577 660 577 660 623 622 c 0,51,52
 671 581 671 581 775 581 c 0,53,54
 960 581 960 581 1096 732 c 0,55,56
 1189 835 1189 835 1226 1010 c 0,57,58
 1242 1085 1242 1085 1242 1147 c 0,59,60
 1242 1234 1242 1234 1216 1288 c 0,61,62
 1145 1438 1145 1438 958 1438 c 0,63,64
 854 1438 854 1438 788 1397 c 0,65,66
 706 1346 706 1346 687 1257 c 2,67,-1
 582 762 l 2,47,48
EndSplineSet
Validated: 1
EndChar

StartChar: uni1E57
Encoding: 7767 7767 186
Width: 1240
VWidth: 1638
Flags: W
HStem: -410 15<-34 -12.0469 466.781 483> -20 91<471.561 781.884> 1029 91<659.589 963.661> 1180 264<817.398 973.041>
VStem: 762 265<1233.52 1389.18> 1078 205<462.638 890.454>
DStem2: 132.861 -410 312.861 -410 0.207912 0.978148<222.878 448.328 656.911 1311.71>
LayerCount: 2
Fore
SplineSet
924 1444 m 128,-1,1
 978 1444 978 1444 1007 1406 c 0,2,3
 1027 1380 1027 1380 1027 1342 c 0,4,5
 1027 1327 1027 1327 1024 1312 c 0,6,7
 1012 1257 1012 1257 967 1218.5 c 128,-1,8
 922 1180 922 1180 868 1180 c 128,-1,9
 814 1180 814 1180 784 1218 c 0,10,11
 762 1246 762 1246 762 1283 c 0,12,13
 762 1297 762 1297 766 1312 c 0,14,15
 778 1367 778 1367 824 1405.5 c 128,-1,0
 870 1444 870 1444 924 1444 c 128,-1,1
596 71 m 0,16,17
 791 71 791 71 914 225 c 0,18,19
 1015 352 1015 352 1057 550 c 0,20,21
 1078 650 1078 650 1078 728 c 0,22,23
 1078 815 1078 815 1052 875 c 0,24,25
 984 1029 984 1029 800 1029 c 0,26,27
 619 1029 619 1029 580 848 c 2,28,-1
 454 252 l 2,29,30
 447 220 447 220 447 194 c 0,31,32
 447 71 447 71 596 71 c 0,16,17
-37 -410 m 1,33,-1
 -34 -395 l 1,34,35
 146 -350 146 -350 186 -160 c 2,36,-1
 400 847 l 2,37,38
 403 861 403 861 403 874 c 0,39,40
 403 962 403 962 261 995 c 1,41,-1
 264 1009 l 1,42,43
 520 1120 520 1120 759 1120 c 0,44,45
 1052 1120 1052 1120 1192 959 c 0,46,47
 1283 854 1283 854 1283 694 c 0,48,49
 1283 627 1283 627 1267 550 c 0,50,51
 1212 291 1212 291 1018 141 c 0,52,53
 810 -20 810 -20 517 -20 c 0,54,55
 456 -20 456 -20 397 -13 c 1,56,-1
 366 -160 l 2,57,58
 358 -199 358 -199 358 -231 c 0,59,60
 358 -359 358 -359 486 -395 c 1,61,-1
 483 -410 l 1,62,-1
 -37 -410 l 1,33,-1
EndSplineSet
Validated: 1
EndChar

StartChar: uni1E60
Encoding: 7776 7776 187
Width: 1243
Flags: W
HStem: -20 92<433.946 807.997> 1442 88<766.478 1059.43> 1600 264<880.398 1036.04>
VStem: 86 15<-20 -4.38477> 210 15<531.334 566> 438 198<1062.43 1296.26> 825 265<1653.52 1809.18> 1042 217<345.663 614.299> 1174 15<1080 1112.59>
DStem2: 783 987 669 815 0.901318 -0.433158<-158.858 365.289>
LayerCount: 2
Fore
SplineSet
987 1864 m 128,-1,1
 1041 1864 1041 1864 1070 1826 c 0,2,3
 1090 1800 1090 1800 1090 1762 c 0,4,5
 1090 1747 1090 1747 1087 1732 c 0,6,7
 1075 1677 1075 1677 1030 1638.5 c 128,-1,8
 985 1600 985 1600 931 1600 c 128,-1,9
 877 1600 877 1600 847 1638 c 0,10,11
 825 1666 825 1666 825 1703 c 0,12,13
 825 1717 825 1717 829 1732 c 0,14,15
 841 1787 841 1787 887 1825.5 c 128,-1,0
 933 1864 933 1864 987 1864 c 128,-1,1
602 -20 m 0,16,17
 444 -20 444 -20 328 45 c 0,18,19
 258 84 258 84 218 84 c 0,20,21
 145 84 145 84 101 -20 c 1,22,-1
 86 -20 l 1,23,-1
 210 566 l 1,24,-1
 225 566 l 1,25,26
 225 340 225 340 316 220 c 0,27,28
 428 72 428 72 623 72 c 0,29,30
 785 72 785 72 914 191 c 0,31,32
 1003 274 1003 274 1032 399 c 0,33,34
 1042 442 1042 442 1042 486 c 0,35,36
 1042 633 1042 633 853 725 c 2,37,-1
 669 815 l 2,38,39
 438 928 438 928 438 1112 c 0,40,41
 438 1167 438 1167 451 1219 c 0,42,43
 482 1341 482 1341 611 1437 c 0,44,45
 734 1530 734 1530 894 1530 c 0,46,47
 988 1530 988 1530 1056 1499 c 0,48,49
 1136 1463 1136 1463 1179 1463 c 0,50,51
 1223 1463 1223 1463 1269 1530 c 1,52,-1
 1284 1530 l 1,53,-1
 1189 1080 l 1,54,-1
 1174 1080 l 1,55,56
 1165 1213 1165 1213 1127 1304 c 0,57,58
 1069 1442 1069 1442 928 1442 c 0,59,60
 821 1442 821 1442 742 1382 c 0,61,62
 658 1318 658 1318 640 1223 c 0,63,64
 636 1202 636 1202 636 1183 c 0,65,66
 636 1058 636 1058 783 987 c 2,67,-1
 989 888 l 2,68,69
 1259 758 1259 758 1259 550 c 0,70,71
 1259 495 1259 495 1248 445 c 0,72,73
 1204 250 1204 250 1013 106 c 0,74,75
 847 -20 847 -20 602 -20 c 0,16,17
EndSplineSet
Validated: 1
EndChar

StartChar: uni1E61
Encoding: 7777 7777 188
Width: 990
Flags: W
HStem: -20 86<338.997 638.125> 1037 83<594.955 840.628> 1180 264<681.398 837.041>
VStem: 86 15<-20 -4.98828> 186 15<421.517 453> 360 175<780.188 964.813> 626 265<1233.52 1389.18> 790 187<228.579 460.565> 913 15<768 800.527> 988 15<1108.28 1120>
DStem2: 641 735 525 589 0.892098 -0.451842<-131.909 269.736>
LayerCount: 2
Fore
SplineSet
788 1444 m 128,-1,1
 842 1444 842 1444 871 1406 c 0,2,3
 891 1380 891 1380 891 1342 c 0,4,5
 891 1327 891 1327 888 1312 c 0,6,7
 876 1257 876 1257 831 1218.5 c 128,-1,8
 786 1180 786 1180 732 1180 c 128,-1,9
 678 1180 678 1180 648 1218 c 0,10,11
 626 1246 626 1246 626 1283 c 0,12,13
 626 1297 626 1297 630 1312 c 0,14,15
 642 1367 642 1367 688 1405.5 c 128,-1,0
 734 1444 734 1444 788 1444 c 128,-1,1
468 -20 m 0,16,17
 351 -20 351 -20 257 39 c 0,18,19
 217 64 217 64 192 64 c 0,20,21
 140 64 140 64 101 -20 c 1,22,-1
 86 -20 l 1,23,-1
 186 453 l 1,24,-1
 201 453 l 1,25,26
 201 247 201 247 282.5 156.5 c 128,-1,27
 364 66 364 66 488 66 c 0,28,29
 595 66 595 66 686 141 c 0,30,31
 766 207 766 207 785 304 c 0,32,33
 790 328 790 328 790 349 c 0,34,35
 790 455 790 455 679 511 c 2,36,-1
 525 589 l 2,37,38
 360 672 360 672 360 815 c 0,39,40
 360 837 360 837 364 860 c 0,41,42
 384 984 384 984 502 1057 c 0,43,44
 600 1120 600 1120 706 1120 c 0,45,46
 788 1120 788 1120 843 1090 c 0,47,48
 880 1070 880 1070 912 1070 c 0,49,50
 961 1070 961 1070 988 1120 c 1,51,-1
 1003 1120 l 1,52,-1
 928 768 l 1,53,-1
 913 768 l 1,54,55
 913 874 913 874 871 955.5 c 128,-1,56
 829 1037 829 1037 718 1037 c 0,57,58
 653 1037 653 1037 606 1005 c 0,59,60
 550 967 550 967 538 901 c 0,61,62
 535 887 535 887 535 874 c 0,63,64
 535 790 535 790 641 735 c 2,65,-1
 780 663 l 2,66,67
 977 561 977 561 977 394 c 0,68,69
 977 368 977 368 972 341 c 0,70,71
 945 182 945 182 789 78 c 0,72,73
 645 -20 645 -20 468 -20 c 0,16,17
EndSplineSet
Validated: 1
EndChar

StartChar: uni1E6A
Encoding: 7786 7786 189
Width: 1375
Flags: W
HStem: 0 15<421 442.953 941.781 958> 1420 90<578.938 864.031 1098.2 1381.13> 1600 264<975.398 1131.04>
VStem: 920 265<1653.52 1809.18>
DStem2: 587.861 0 787.861 0 0.207912 0.978148<227.036 1371.32>
LayerCount: 2
Fore
SplineSet
1082 1864 m 128,-1,1
 1136 1864 1136 1864 1165 1826 c 0,2,3
 1185 1800 1185 1800 1185 1762 c 0,4,5
 1185 1747 1185 1747 1182 1732 c 0,6,7
 1170 1677 1170 1677 1125 1638.5 c 128,-1,8
 1080 1600 1080 1600 1026 1600 c 128,-1,9
 972 1600 972 1600 942 1638 c 0,10,11
 920 1666 920 1666 920 1703 c 0,12,13
 920 1717 920 1717 924 1732 c 0,14,15
 936 1787 936 1787 982 1825.5 c 128,-1,0
 1028 1864 1028 1864 1082 1864 c 128,-1,1
418 0 m 1,16,-1
 421 15 l 1,17,18
 601 60 601 60 641 250 c 2,19,-1
 856 1260 l 2,20,21
 866 1307 866 1307 866 1344 c 0,22,23
 866 1388 866 1388 852 1420 c 1,24,-1
 806 1420 l 2,25,26
 550 1420 550 1420 278 1188 c 1,27,-1
 263 1188 l 1,28,-1
 517 1510 l 1,29,-1
 1501 1510 l 1,30,-1
 1618 1188 l 1,31,-1
 1603 1188 l 1,32,33
 1428 1420 1428 1420 1174 1420 c 2,34,-1
 1128 1420 l 1,35,36
 1078 1362 1078 1362 1056 1260 c 2,37,-1
 841 250 l 2,38,39
 833 211 833 211 833 179 c 0,40,41
 833 51 833 51 961 15 c 1,42,-1
 958 0 l 1,43,-1
 418 0 l 1,16,-1
EndSplineSet
Validated: 1
EndChar

StartChar: uni1E6B
Encoding: 7787 7787 190
Width: 886
Flags: W
HStem: 0 15<191 212.953 681.781 698> 1010 90<457.074 573 762 876.95> 1510 20G<767.5 848.767> 1600 264<725.398 881.041>
VStem: 670 265<1653.52 1809.18>
DStem2: 357.861 0 527.861 0 0.207912 0.978148<220.799 1032.66 1159.99 1318.97>
LayerCount: 2
Fore
SplineSet
832 1864 m 128,-1,1
 886 1864 886 1864 915 1826 c 0,2,3
 935 1800 935 1800 935 1762 c 0,4,5
 935 1747 935 1747 932 1732 c 0,6,7
 920 1677 920 1677 875 1638.5 c 128,-1,8
 830 1600 830 1600 776 1600 c 128,-1,9
 722 1600 722 1600 692 1638 c 0,10,11
 670 1666 670 1666 670 1703 c 0,12,13
 670 1717 670 1717 674 1732 c 0,14,15
 686 1787 686 1787 732 1825.5 c 128,-1,0
 778 1864 778 1864 832 1864 c 128,-1,1
188 0 m 1,16,-1
 191 15 l 1,17,18
 371 60 371 60 411 250 c 2,19,-1
 573 1010 l 1,20,-1
 425 1010 l 2,21,22
 335 1010 335 1010 220 917 c 1,23,-1
 205 917 l 1,24,-1
 446 1211 l 1,25,-1
 461 1211 l 1,26,27
 456 1183 456 1183 456 1162 c 0,28,29
 456 1100 456 1100 500 1100 c 2,30,-1
 592 1100 l 1,31,-1
 627 1264 l 2,32,33
 630 1278 630 1278 630 1291 c 0,34,35
 630 1379 630 1379 488 1412 c 1,36,-1
 491 1426 l 1,37,38
 682 1510 682 1510 853 1530 c 1,39,-1
 762 1100 l 1,40,-1
 910 1100 l 2,41,42
 1000 1100 1000 1100 1115 1193 c 1,43,-1
 1130 1193 l 1,44,-1
 888 899 l 1,45,-1
 873 899 l 1,46,47
 878 927 878 927 878 949 c 0,48,49
 878 1010 878 1010 835 1010 c 2,50,-1
 743 1010 l 1,51,-1
 581 250 l 2,52,53
 573 211 573 211 573 179 c 0,54,55
 573 51 573 51 701 15 c 1,56,-1
 698 0 l 1,57,-1
 188 0 l 1,16,-1
EndSplineSet
Validated: 1
EndChar

